{"glyphs":{"0":{"ha":833,"x_min":111,"x_max":722,"o":"m 417 -14 q 194 67 276 -14 q 111 285 111 149 l 111 729 q 194 947 111 865 q 417 1028 276 1028 q 640 947 557 1028 q 722 729 722 865 l 722 285 q 685 127 722 194 q 578 23 647 60 q 417 -14 510 -14 m 417 93 q 551 147 500 93 q 601 285 601 200 l 601 729 q 551 867 601 814 q 417 921 500 921 q 283 867 333 921 q 232 729 232 814 l 232 285 q 283 147 232 200 q 417 93 333 93 m 417 425 q 356 449 379 425 q 333 511 333 472 q 356 572 333 549 q 417 594 379 594 q 477 572 454 594 q 500 511 500 549 q 477 449 500 472 q 417 425 454 425 z "},"1":{"ha":833,"x_min":125,"x_max":750,"o":"m 125 0 l 125 114 l 400 114 l 400 910 l 125 704 l 125 843 l 354 1014 l 525 1014 l 525 114 l 750 114 l 750 0 l 125 0 z "},"2":{"ha":833,"x_min":100,"x_max":731,"o":"m 128 0 l 128 124 l 451 476 q 556 615 524 554 q 589 735 589 676 q 540 867 589 818 q 408 917 492 917 q 274 866 324 917 q 225 729 225 815 l 100 729 q 188 947 104 867 q 408 1028 271 1028 q 631 949 549 1028 q 714 733 714 869 q 672 582 714 661 q 535 400 629 503 l 271 114 l 731 114 l 731 0 l 128 0 z "},"3":{"ha":833,"x_min":97,"x_max":708,"o":"m 401 -14 q 241 23 310 -14 q 135 125 172 60 q 97 278 97 190 l 222 278 q 270 145 222 193 q 403 97 318 97 q 536 147 489 97 q 583 278 583 197 l 583 347 q 536 481 583 433 q 403 528 489 528 l 293 528 l 293 636 l 535 900 l 139 900 l 139 1014 l 676 1014 l 676 897 l 439 638 q 635 550 563 628 q 708 347 708 472 l 708 278 q 670 125 708 190 q 563 23 632 60 q 401 -14 493 -14 z "},"4":{"ha":833,"x_min":97,"x_max":681,"o":"m 556 0 l 556 222 l 97 222 l 97 418 l 467 1014 l 604 1014 l 222 393 l 222 336 l 556 336 l 556 583 l 681 583 l 681 0 l 556 0 z "},"5":{"ha":833,"x_min":118,"x_max":715,"o":"m 414 -14 q 211 50 290 -14 q 118 222 132 114 l 243 222 q 294 130 250 163 q 415 97 339 97 q 547 144 503 97 q 590 278 590 192 l 590 376 q 547 510 590 463 q 417 557 503 557 q 322 528 363 557 q 264 453 282 500 l 139 453 l 146 1014 l 679 1014 l 679 900 l 267 900 l 263 563 l 268 563 q 330 639 281 611 q 454 667 379 667 q 647 591 578 668 q 715 376 715 514 l 715 278 q 636 65 715 143 q 414 -14 557 -14 z "},"6":{"ha":833,"x_min":89,"x_max":744,"o":"m 418 -14 q 245 27 319 -14 q 130 141 171 68 q 89 310 89 214 q 113 447 89 376 q 181 593 138 517 l 419 1014 l 556 1014 l 281 546 l 286 542 q 358 601 311 579 q 465 624 406 624 q 612 585 549 624 q 710 477 675 546 q 744 315 744 408 q 703 142 744 217 q 590 27 663 68 q 418 -14 517 -14 m 417 97 q 563 156 507 97 q 619 313 619 215 q 563 469 619 410 q 417 528 507 528 q 270 469 326 528 q 214 313 214 410 q 270 156 214 215 q 417 97 326 97 z "},"7":{"ha":833,"x_min":111,"x_max":757,"o":"m 265 0 l 628 900 l 236 900 l 236 736 l 111 736 l 111 1014 l 757 1014 l 757 897 l 403 0 l 265 0 z "},"8":{"ha":833,"x_min":92,"x_max":742,"o":"m 417 -14 q 246 20 319 -14 q 132 115 172 54 q 92 254 92 175 q 147 415 92 340 q 293 531 201 489 q 158 637 203 575 q 114 769 114 699 q 153 904 114 846 q 261 996 193 963 q 417 1029 329 1029 q 573 996 504 1029 q 681 904 642 963 q 719 769 719 846 q 675 638 719 700 q 540 531 631 576 q 687 415 632 489 q 742 254 742 340 q 701 115 742 175 q 588 20 661 54 q 417 -14 515 -14 m 376 593 l 417 578 l 451 592 q 557 663 517 617 q 597 765 597 710 q 547 876 597 833 q 417 918 497 918 q 286 875 336 918 q 236 765 236 832 q 275 663 236 708 q 376 593 314 617 m 417 97 q 564 145 508 97 q 619 271 619 193 q 582 381 619 332 q 476 457 544 431 l 417 481 l 353 456 q 250 380 286 429 q 214 271 214 331 q 269 145 214 193 q 417 97 325 97 z "},"9":{"ha":833,"x_min":89,"x_max":744,"o":"m 278 0 l 550 468 l 544 472 q 474 413 519 435 q 368 390 428 390 q 222 429 285 390 q 124 538 160 468 q 89 699 89 607 q 130 872 89 797 q 244 987 171 946 q 415 1028 318 1028 q 588 987 514 1028 q 703 874 663 946 q 744 704 744 801 q 719 567 744 638 q 651 421 694 497 l 417 0 l 278 0 m 417 486 q 563 545 507 486 q 619 701 619 604 q 563 858 619 799 q 417 917 507 917 q 270 858 326 917 q 214 701 214 799 q 270 545 214 604 q 417 486 326 486 z "},"A":{"ha":833,"x_min":69,"x_max":764,"o":"m 69 0 l 333 1014 l 501 1014 l 764 0 l 638 0 l 571 269 l 264 269 l 197 0 l 69 0 m 289 375 l 544 375 l 467 688 q 432 836 444 776 q 417 914 419 896 q 401 836 414 896 q 367 689 389 776 l 289 375 z "},"Á":{"ha":833,"x_min":69,"x_max":764,"o":"m 69 0 l 333 1014 l 501 1014 l 764 0 l 638 0 l 571 269 l 264 269 l 197 0 l 69 0 m 289 375 l 544 375 l 467 688 q 432 836 444 776 q 417 914 419 896 q 401 836 414 896 q 367 689 389 776 l 289 375 m 336 1125 l 483 1319 l 618 1319 l 464 1125 l 336 1125 z "},"Ă":{"ha":833,"x_min":69,"x_max":764,"o":"m 69 0 l 333 1014 l 501 1014 l 764 0 l 638 0 l 571 269 l 264 269 l 197 0 l 69 0 m 289 375 l 544 375 l 467 688 q 432 836 444 776 q 417 914 419 896 q 401 836 414 896 q 367 689 389 776 l 289 375 m 417 1118 q 256 1174 317 1118 q 194 1319 194 1229 l 293 1319 q 326 1232 293 1265 q 415 1199 360 1199 q 506 1232 472 1199 q 540 1319 540 1265 l 639 1319 q 578 1174 639 1229 q 417 1118 517 1118 z "},"Ắ":{"ha":833,"x_min":69,"x_max":764,"o":"m 329 1250 l 475 1417 l 608 1417 l 456 1250 l 329 1250 m 382 1083 q 240 1132 293 1083 q 188 1264 188 1181 l 285 1264 q 311 1193 285 1219 q 382 1167 338 1167 l 450 1167 q 522 1193 496 1167 q 549 1264 549 1219 l 646 1264 q 593 1132 646 1181 q 450 1083 540 1083 l 382 1083 m 69 0 l 333 1014 l 501 1014 l 764 0 l 638 0 l 571 269 l 264 269 l 197 0 l 69 0 m 289 375 l 544 375 l 467 688 q 432 836 444 776 q 417 914 419 896 q 401 836 414 896 q 367 689 389 776 l 289 375 z "},"Ặ":{"ha":833,"x_min":69,"x_max":764,"o":"m 417 1118 q 256 1174 317 1118 q 194 1319 194 1229 l 293 1319 q 326 1232 293 1265 q 415 1199 360 1199 q 506 1232 472 1199 q 540 1319 540 1265 l 639 1319 q 578 1174 639 1229 q 417 1118 517 1118 m 69 0 l 333 1014 l 501 1014 l 764 0 l 638 0 l 571 269 l 264 269 l 197 0 l 69 0 m 289 375 l 544 375 l 467 688 q 432 836 444 776 q 417 914 419 896 q 401 836 414 896 q 367 689 389 776 l 289 375 m 417 -296 q 344 -272 371 -296 q 318 -208 318 -249 q 344 -142 318 -167 q 417 -118 371 -118 q 489 -142 463 -118 q 515 -208 515 -167 q 489 -272 515 -249 q 417 -296 463 -296 z "},"Ằ":{"ha":833,"x_min":69,"x_max":764,"o":"m 69 0 l 333 1014 l 501 1014 l 764 0 l 638 0 l 571 269 l 264 269 l 197 0 l 69 0 m 289 375 l 544 375 l 467 688 q 432 836 444 776 q 417 914 419 896 q 401 836 414 896 q 367 689 389 776 l 289 375 m 378 1250 l 239 1417 l 372 1417 l 504 1250 l 378 1250 m 382 1083 q 240 1132 293 1083 q 188 1264 188 1181 l 285 1264 q 311 1193 285 1219 q 382 1167 338 1167 l 450 1167 q 522 1193 496 1167 q 549 1264 549 1219 l 646 1264 q 593 1132 646 1181 q 450 1083 540 1083 l 382 1083 z "},"Ẳ":{"ha":833,"x_min":69,"x_max":764,"o":"m 69 0 l 333 1014 l 501 1014 l 764 0 l 638 0 l 571 269 l 264 269 l 197 0 l 69 0 m 289 375 l 544 375 l 467 688 q 432 836 444 776 q 417 914 419 896 q 401 836 414 896 q 367 689 389 776 l 289 375 m 353 1222 l 418 1300 q 428 1322 428 1311 q 414 1333 428 1333 l 313 1333 l 313 1417 l 447 1417 q 503 1399 483 1417 q 524 1350 524 1382 q 518 1313 524 1332 q 501 1278 513 1293 l 457 1222 l 353 1222 m 382 1083 q 240 1132 293 1083 q 188 1264 188 1181 l 285 1264 q 311 1193 285 1219 q 382 1167 338 1167 l 450 1167 q 522 1193 496 1167 q 549 1264 549 1219 l 646 1264 q 593 1132 646 1181 q 450 1083 540 1083 l 382 1083 z "},"Ẵ":{"ha":833,"x_min":69,"x_max":764,"o":"m 69 0 l 333 1014 l 501 1014 l 764 0 l 638 0 l 571 269 l 264 269 l 197 0 l 69 0 m 289 375 l 544 375 l 467 688 q 432 836 444 776 q 417 914 419 896 q 401 836 414 896 q 367 689 389 776 l 289 375 m 524 1278 q 451 1288 481 1278 q 401 1310 422 1297 q 362 1333 381 1324 q 319 1343 343 1343 q 290 1332 301 1343 q 278 1301 278 1321 l 278 1292 l 188 1292 l 188 1301 q 222 1385 188 1354 q 313 1417 256 1417 q 385 1407 357 1417 q 434 1384 414 1397 q 472 1361 454 1371 q 514 1351 490 1351 q 544 1363 533 1351 q 556 1393 556 1375 l 556 1403 l 646 1403 l 646 1393 q 613 1309 646 1340 q 524 1278 581 1278 m 382 1083 q 240 1125 293 1083 q 188 1250 188 1167 l 285 1250 q 311 1186 285 1206 q 382 1167 338 1167 l 450 1167 q 522 1186 496 1167 q 549 1250 549 1206 l 646 1250 q 593 1125 646 1167 q 450 1083 540 1083 l 382 1083 z "},"Ǎ":{"ha":833,"x_min":69,"x_max":764,"o":"m 69 0 l 333 1014 l 501 1014 l 764 0 l 638 0 l 571 269 l 264 269 l 197 0 l 69 0 m 289 375 l 544 375 l 467 688 q 432 836 444 776 q 417 914 419 896 q 401 836 414 896 q 367 689 389 776 l 289 375 m 360 1125 l 165 1319 l 303 1319 l 417 1211 l 528 1319 l 668 1319 l 475 1125 l 360 1125 z "},"Â":{"ha":833,"x_min":69,"x_max":764,"o":"m 69 0 l 333 1014 l 501 1014 l 764 0 l 638 0 l 571 269 l 264 269 l 197 0 l 69 0 m 289 375 l 544 375 l 467 688 q 432 836 444 776 q 417 914 419 896 q 401 836 414 896 q 367 689 389 776 l 289 375 m 165 1125 l 358 1319 l 474 1319 l 668 1125 l 531 1125 l 417 1233 l 306 1125 l 165 1125 z "},"Ấ":{"ha":833,"x_min":69,"x_max":854,"o":"m 69 0 l 333 1014 l 501 1014 l 764 0 l 638 0 l 571 269 l 264 269 l 197 0 l 69 0 m 289 375 l 544 375 l 467 688 q 432 836 444 776 q 417 914 419 896 q 401 836 414 896 q 367 689 389 776 l 289 375 m 567 1250 l 713 1417 l 854 1417 l 701 1250 l 567 1250 m 167 1083 l 358 1278 l 475 1278 l 668 1083 l 528 1083 l 417 1192 l 304 1083 l 167 1083 z "},"Ậ":{"ha":833,"x_min":69,"x_max":764,"o":"m 165 1125 l 358 1319 l 474 1319 l 668 1125 l 531 1125 l 417 1233 l 306 1125 l 165 1125 m 69 0 l 333 1014 l 501 1014 l 764 0 l 638 0 l 571 269 l 264 269 l 197 0 l 69 0 m 289 375 l 544 375 l 467 688 q 432 836 444 776 q 417 914 419 896 q 401 836 414 896 q 367 689 389 776 l 289 375 m 417 -296 q 344 -272 371 -296 q 318 -208 318 -249 q 344 -142 318 -167 q 417 -118 371 -118 q 489 -142 463 -118 q 515 -208 515 -167 q 489 -272 515 -249 q 417 -296 463 -296 z "},"Ầ":{"ha":833,"x_min":69,"x_max":764,"o":"m 69 0 l 333 1014 l 501 1014 l 764 0 l 638 0 l 571 269 l 264 269 l 197 0 l 69 0 m 289 375 l 544 375 l 467 688 q 432 836 444 776 q 417 914 419 896 q 401 836 414 896 q 367 689 389 776 l 289 375 m 618 1250 l 451 1417 l 590 1417 l 750 1250 l 618 1250 m 167 1083 l 358 1278 l 475 1278 l 668 1083 l 528 1083 l 417 1192 l 304 1083 l 167 1083 z "},"Ẩ":{"ha":833,"x_min":69,"x_max":764,"o":"m 69 0 l 333 1014 l 501 1014 l 764 0 l 638 0 l 571 269 l 264 269 l 197 0 l 69 0 m 289 375 l 544 375 l 467 688 q 432 836 444 776 q 417 914 419 896 q 401 836 414 896 q 367 689 389 776 l 289 375 m 583 1222 l 650 1288 q 661 1314 661 1299 q 640 1336 661 1336 l 549 1336 l 549 1417 l 667 1417 q 738 1393 711 1417 q 764 1331 764 1369 q 742 1269 764 1292 l 692 1222 l 583 1222 m 167 1083 l 358 1278 l 475 1278 l 668 1083 l 528 1083 l 417 1192 l 304 1083 l 167 1083 z "},"Ẫ":{"ha":833,"x_min":69,"x_max":764,"o":"m 69 0 l 333 1014 l 501 1014 l 764 0 l 638 0 l 571 269 l 264 269 l 197 0 l 69 0 m 289 375 l 544 375 l 467 688 q 432 836 444 776 q 417 914 419 896 q 401 836 414 896 q 367 689 389 776 l 289 375 m 524 1278 q 451 1288 481 1278 q 401 1310 422 1297 q 362 1333 381 1324 q 319 1343 343 1343 q 290 1332 301 1343 q 278 1301 278 1321 l 278 1292 l 188 1292 l 188 1301 q 222 1385 188 1354 q 313 1417 256 1417 q 385 1407 357 1417 q 434 1384 414 1397 q 472 1361 454 1371 q 514 1351 490 1351 q 544 1363 533 1351 q 556 1393 556 1375 l 556 1403 l 646 1403 l 646 1393 q 613 1309 646 1340 q 524 1278 581 1278 m 167 1083 l 328 1236 l 506 1236 l 667 1083 l 526 1083 l 417 1185 l 304 1083 l 167 1083 z "},"Ä":{"ha":833,"x_min":69,"x_max":764,"o":"m 69 0 l 333 1014 l 501 1014 l 764 0 l 638 0 l 571 269 l 264 269 l 197 0 l 69 0 m 289 375 l 544 375 l 467 688 q 432 836 444 776 q 417 914 419 896 q 401 836 414 896 q 367 689 389 776 l 289 375 m 571 1135 q 506 1158 531 1135 q 482 1222 482 1182 q 506 1288 482 1264 q 571 1313 531 1313 q 635 1288 611 1313 q 660 1222 660 1264 q 635 1158 660 1182 q 571 1135 611 1135 m 263 1135 q 198 1158 222 1135 q 174 1222 174 1182 q 198 1288 174 1264 q 263 1313 222 1313 q 327 1288 303 1313 q 351 1222 351 1264 q 327 1158 351 1182 q 263 1135 303 1135 z "},"Ạ":{"ha":833,"x_min":69,"x_max":764,"o":"m 69 0 l 333 1014 l 501 1014 l 764 0 l 638 0 l 571 269 l 264 269 l 197 0 l 69 0 m 289 375 l 544 375 l 467 688 q 432 836 444 776 q 417 914 419 896 q 401 836 414 896 q 367 689 389 776 l 289 375 m 417 -296 q 344 -272 371 -296 q 318 -208 318 -249 q 344 -142 318 -167 q 417 -118 371 -118 q 489 -142 463 -118 q 515 -208 515 -167 q 489 -272 515 -249 q 417 -296 463 -296 z "},"À":{"ha":833,"x_min":69,"x_max":764,"o":"m 69 0 l 333 1014 l 501 1014 l 764 0 l 638 0 l 571 269 l 264 269 l 197 0 l 69 0 m 289 375 l 544 375 l 467 688 q 432 836 444 776 q 417 914 419 896 q 401 836 414 896 q 367 689 389 776 l 289 375 m 371 1125 l 211 1319 l 350 1319 l 503 1125 l 371 1125 z "},"Ả":{"ha":833,"x_min":69,"x_max":764,"o":"m 69 0 l 333 1014 l 501 1014 l 764 0 l 638 0 l 571 269 l 264 269 l 197 0 l 69 0 m 289 375 l 544 375 l 467 688 q 432 836 444 776 q 417 914 419 896 q 401 836 414 896 q 367 689 389 776 l 289 375 m 358 1111 l 421 1199 q 440 1243 440 1226 q 396 1271 440 1271 l 292 1271 l 292 1361 l 403 1361 q 508 1333 468 1361 q 549 1257 549 1304 q 525 1183 549 1218 l 476 1111 l 358 1111 z "},"Ā":{"ha":833,"x_min":69,"x_max":764,"o":"m 69 0 l 333 1014 l 501 1014 l 764 0 l 638 0 l 571 269 l 264 269 l 197 0 l 69 0 m 289 375 l 544 375 l 467 688 q 432 836 444 776 q 417 914 419 896 q 401 836 414 896 q 367 689 389 776 l 289 375 m 194 1167 l 194 1271 l 639 1271 l 639 1167 l 194 1167 z "},"Ą":{"ha":833,"x_min":69,"x_max":813,"o":"m 69 0 l 333 1014 l 501 1014 l 764 0 l 740 0 q 674 -69 694 -37 q 653 -129 653 -100 q 674 -179 653 -160 q 729 -199 694 -199 l 813 -199 l 813 -282 l 704 -282 q 581 -245 628 -282 q 535 -153 535 -208 q 558 -78 535 -115 q 638 3 581 -40 l 571 269 l 264 269 l 197 0 l 69 0 m 289 375 l 544 375 l 467 688 q 432 836 444 776 q 417 914 419 896 q 401 836 414 896 q 367 689 389 776 l 289 375 z "},"Å":{"ha":833,"x_min":69,"x_max":764,"o":"m 69 0 l 333 1014 l 501 1014 l 764 0 l 638 0 l 571 269 l 264 269 l 197 0 l 69 0 m 289 375 l 544 375 l 467 688 q 432 836 444 776 q 417 914 419 896 q 401 836 414 896 q 367 689 389 776 l 289 375 m 417 1064 q 296 1108 342 1064 q 250 1222 250 1151 q 296 1337 250 1293 q 417 1381 342 1381 q 538 1337 492 1381 q 583 1222 583 1293 q 538 1108 583 1151 q 417 1064 492 1064 m 417 1138 q 477 1160 454 1138 q 500 1222 500 1183 q 477 1285 500 1261 q 417 1308 454 1308 q 356 1285 379 1308 q 333 1222 333 1261 q 356 1160 333 1183 q 417 1138 379 1138 z "},"Ã":{"ha":833,"x_min":69,"x_max":764,"o":"m 69 0 l 333 1014 l 501 1014 l 764 0 l 638 0 l 571 269 l 264 269 l 197 0 l 69 0 m 289 375 l 544 375 l 467 688 q 432 836 444 776 q 417 914 419 896 q 401 836 414 896 q 367 689 389 776 l 289 375 m 514 1132 q 446 1147 472 1132 q 401 1181 419 1161 q 367 1215 383 1200 q 326 1229 350 1229 q 285 1181 285 1229 l 285 1139 l 194 1139 l 194 1181 q 229 1278 194 1243 q 319 1313 264 1313 q 388 1298 361 1313 q 432 1264 414 1283 q 467 1230 450 1244 q 507 1215 483 1215 q 549 1264 549 1215 l 549 1306 l 639 1306 l 639 1264 q 605 1167 639 1201 q 514 1132 571 1132 z "},"Æ":{"ha":833,"x_min":42,"x_max":792,"o":"m 42 0 l 243 1014 l 792 1014 l 792 900 l 539 900 l 539 583 l 757 583 l 757 469 l 539 469 l 539 114 l 792 114 l 792 0 l 419 0 l 419 282 l 224 282 l 168 0 l 42 0 m 243 386 l 419 386 l 419 900 l 342 900 l 243 386 z "},"Ǽ":{"ha":833,"x_min":42,"x_max":792,"o":"m 42 0 l 243 1014 l 792 1014 l 792 900 l 539 900 l 539 583 l 757 583 l 757 469 l 539 469 l 539 114 l 792 114 l 792 0 l 419 0 l 419 282 l 224 282 l 168 0 l 42 0 m 243 386 l 419 386 l 419 900 l 342 900 l 243 386 m 336 1125 l 483 1319 l 618 1319 l 464 1125 l 336 1125 z "},"B":{"ha":833,"x_min":129,"x_max":736,"o":"m 129 0 l 129 1014 l 417 1014 q 634 944 556 1014 q 713 751 713 875 q 672 612 713 668 q 560 536 632 556 q 689 447 642 513 q 736 282 736 381 q 656 76 736 151 q 438 0 576 0 l 129 0 m 251 582 l 415 582 q 542 625 496 582 q 589 742 589 668 q 543 858 589 815 q 417 901 497 901 l 251 901 l 251 582 m 251 113 l 424 113 q 562 159 511 113 q 613 286 613 206 q 562 422 613 369 q 424 474 511 474 l 251 474 l 251 113 z "},"C":{"ha":833,"x_min":122,"x_max":719,"o":"m 422 -14 q 203 64 283 -14 q 122 278 122 142 l 122 736 q 203 950 122 872 q 422 1028 283 1028 q 639 949 558 1028 q 719 736 719 871 l 594 736 q 549 869 594 822 q 422 915 504 915 q 294 869 340 915 q 247 738 247 824 l 247 278 q 294 145 247 192 q 422 99 340 99 q 549 145 504 99 q 594 278 594 192 l 719 278 q 639 65 719 143 q 422 -14 558 -14 z "},"Ć":{"ha":833,"x_min":122,"x_max":719,"o":"m 422 -14 q 203 64 283 -14 q 122 278 122 142 l 122 736 q 203 950 122 872 q 422 1028 283 1028 q 639 949 558 1028 q 719 736 719 871 l 594 736 q 549 869 594 822 q 422 915 504 915 q 294 869 340 915 q 247 738 247 824 l 247 278 q 294 145 247 192 q 422 99 340 99 q 549 145 504 99 q 594 278 594 192 l 719 278 q 639 65 719 143 q 422 -14 558 -14 m 343 1125 l 490 1319 l 625 1319 l 471 1125 l 343 1125 z "},"Č":{"ha":833,"x_min":122,"x_max":719,"o":"m 422 -14 q 203 64 283 -14 q 122 278 122 142 l 122 736 q 203 950 122 872 q 422 1028 283 1028 q 639 949 558 1028 q 719 736 719 871 l 594 736 q 549 869 594 822 q 422 915 504 915 q 294 869 340 915 q 247 738 247 824 l 247 278 q 294 145 247 192 q 422 99 340 99 q 549 145 504 99 q 594 278 594 192 l 719 278 q 639 65 719 143 q 422 -14 558 -14 m 367 1125 l 172 1319 l 310 1319 l 424 1211 l 535 1319 l 675 1319 l 482 1125 l 367 1125 z "},"Ç":{"ha":833,"x_min":122,"x_max":719,"o":"m 292 -282 l 292 -206 l 389 -206 q 438 -190 419 -206 q 457 -156 457 -174 q 419 -114 457 -132 q 311 -96 381 -96 l 344 -7 q 181 88 240 14 q 122 278 122 161 l 122 736 q 203 950 122 872 q 422 1028 283 1028 q 639 949 558 1028 q 719 736 719 871 l 594 736 q 549 869 594 822 q 422 915 504 915 q 294 869 340 915 q 247 738 247 824 l 247 278 q 294 145 247 192 q 422 99 340 99 q 549 145 504 99 q 594 278 594 192 l 719 278 q 639 65 719 143 q 422 -14 558 -14 l 422 -14 l 410 -49 q 485 -67 446 -53 q 550 -106 524 -81 q 576 -167 576 -131 q 531 -248 576 -214 q 410 -282 485 -282 l 292 -282 z "},"Ĉ":{"ha":833,"x_min":122,"x_max":719,"o":"m 422 -14 q 203 64 283 -14 q 122 278 122 142 l 122 736 q 203 950 122 872 q 422 1028 283 1028 q 639 949 558 1028 q 719 736 719 871 l 594 736 q 549 869 594 822 q 422 915 504 915 q 294 869 340 915 q 247 738 247 824 l 247 278 q 294 145 247 192 q 422 99 340 99 q 549 145 504 99 q 594 278 594 192 l 719 278 q 639 65 719 143 q 422 -14 558 -14 m 172 1125 l 365 1319 l 481 1319 l 675 1125 l 538 1125 l 424 1233 l 313 1125 l 172 1125 z "},"Ċ":{"ha":833,"x_min":122,"x_max":719,"o":"m 422 -14 q 203 64 283 -14 q 122 278 122 142 l 122 736 q 203 950 122 872 q 422 1028 283 1028 q 639 949 558 1028 q 719 736 719 871 l 594 736 q 549 869 594 822 q 422 915 504 915 q 294 869 340 915 q 247 738 247 824 l 247 278 q 294 145 247 192 q 422 99 340 99 q 549 145 504 99 q 594 278 594 192 l 719 278 q 639 65 719 143 q 422 -14 558 -14 m 424 1133 q 351 1158 378 1133 q 325 1222 325 1182 q 351 1287 325 1263 q 424 1311 378 1311 q 496 1287 469 1311 q 522 1222 522 1263 q 496 1158 522 1182 q 424 1133 469 1133 z "},"D":{"ha":833,"x_min":128,"x_max":711,"o":"m 128 0 l 128 1014 l 390 1014 q 560 976 489 1014 q 672 871 632 939 q 711 710 711 803 l 711 306 q 672 144 711 213 q 560 38 632 75 q 390 0 489 0 l 128 0 m 253 111 l 390 111 q 534 163 482 111 q 586 306 586 214 l 586 710 q 534 851 586 800 q 390 903 482 903 l 253 903 l 253 111 z "},"Ð":{"ha":833,"x_min":14,"x_max":711,"o":"m 128 0 l 128 465 l 14 465 l 14 569 l 128 569 l 128 1014 l 390 1014 q 560 976 489 1014 q 672 871 632 939 q 711 710 711 803 l 711 306 q 672 144 711 213 q 560 38 632 75 q 390 0 489 0 l 128 0 m 253 111 l 390 111 q 534 163 482 111 q 586 306 586 214 l 586 710 q 534 851 586 800 q 390 903 482 903 l 253 903 l 253 569 l 403 569 l 403 465 l 253 465 l 253 111 z "},"Ď":{"ha":833,"x_min":128,"x_max":711,"o":"m 128 0 l 128 1014 l 390 1014 q 560 976 489 1014 q 672 871 632 939 q 711 710 711 803 l 711 306 q 672 144 711 213 q 560 38 632 75 q 390 0 489 0 l 128 0 m 253 111 l 390 111 q 534 163 482 111 q 586 306 586 214 l 586 710 q 534 851 586 800 q 390 903 482 903 l 253 903 l 253 111 m 360 1125 l 165 1319 l 303 1319 l 417 1211 l 528 1319 l 668 1319 l 475 1125 l 360 1125 z "},"Đ":{"ha":833,"x_min":14,"x_max":711,"o":"m 128 0 l 128 465 l 14 465 l 14 569 l 128 569 l 128 1014 l 390 1014 q 560 976 489 1014 q 672 871 632 939 q 711 710 711 803 l 711 306 q 672 144 711 213 q 560 38 632 75 q 390 0 489 0 l 128 0 m 253 111 l 390 111 q 534 163 482 111 q 586 306 586 214 l 586 710 q 534 851 586 800 q 390 903 482 903 l 253 903 l 253 569 l 403 569 l 403 465 l 253 465 l 253 111 z "},"E":{"ha":833,"x_min":139,"x_max":722,"o":"m 139 0 l 139 1014 l 722 1014 l 722 900 l 263 900 l 263 586 l 674 586 l 674 475 l 263 475 l 263 114 l 722 114 l 722 0 l 139 0 z "},"É":{"ha":833,"x_min":139,"x_max":722,"o":"m 139 0 l 139 1014 l 722 1014 l 722 900 l 263 900 l 263 586 l 674 586 l 674 475 l 263 475 l 263 114 l 722 114 l 722 0 l 139 0 m 364 1125 l 511 1319 l 646 1319 l 492 1125 l 364 1125 z "},"Ĕ":{"ha":833,"x_min":139,"x_max":722,"o":"m 139 0 l 139 1014 l 722 1014 l 722 900 l 263 900 l 263 586 l 674 586 l 674 475 l 263 475 l 263 114 l 722 114 l 722 0 l 139 0 m 444 1118 q 283 1174 344 1118 q 222 1319 222 1229 l 321 1319 q 354 1232 321 1265 q 443 1199 388 1199 q 534 1232 500 1199 q 568 1319 568 1265 l 667 1319 q 606 1174 667 1229 q 444 1118 544 1118 z "},"Ě":{"ha":833,"x_min":139,"x_max":722,"o":"m 139 0 l 139 1014 l 722 1014 l 722 900 l 263 900 l 263 586 l 674 586 l 674 475 l 263 475 l 263 114 l 722 114 l 722 0 l 139 0 m 388 1125 l 193 1319 l 331 1319 l 444 1211 l 556 1319 l 696 1319 l 503 1125 l 388 1125 z "},"Ê":{"ha":833,"x_min":139,"x_max":722,"o":"m 139 0 l 139 1014 l 722 1014 l 722 900 l 263 900 l 263 586 l 674 586 l 674 475 l 263 475 l 263 114 l 722 114 l 722 0 l 139 0 m 193 1125 l 386 1319 l 501 1319 l 696 1125 l 558 1125 l 444 1233 l 333 1125 l 193 1125 z "},"Ế":{"ha":833,"x_min":139,"x_max":882,"o":"m 139 0 l 139 1014 l 722 1014 l 722 900 l 263 900 l 263 586 l 674 586 l 674 475 l 263 475 l 263 114 l 722 114 l 722 0 l 139 0 m 594 1250 l 740 1417 l 882 1417 l 729 1250 l 594 1250 m 194 1083 l 386 1278 l 503 1278 l 696 1083 l 556 1083 l 444 1192 l 332 1083 l 194 1083 z "},"Ệ":{"ha":833,"x_min":139,"x_max":722,"o":"m 139 0 l 139 1014 l 722 1014 l 722 900 l 263 900 l 263 586 l 674 586 l 674 475 l 263 475 l 263 114 l 722 114 l 722 0 l 139 0 m 444 -296 q 372 -272 399 -296 q 346 -208 346 -249 q 372 -142 346 -167 q 444 -118 399 -118 q 517 -142 490 -118 q 543 -208 543 -167 q 517 -272 543 -249 q 444 -296 490 -296 m 193 1125 l 386 1319 l 501 1319 l 696 1125 l 558 1125 l 444 1233 l 333 1125 l 193 1125 z "},"Ề":{"ha":833,"x_min":139,"x_max":778,"o":"m 139 0 l 139 1014 l 722 1014 l 722 900 l 263 900 l 263 586 l 674 586 l 674 475 l 263 475 l 263 114 l 722 114 l 722 0 l 139 0 m 646 1250 l 479 1417 l 618 1417 l 778 1250 l 646 1250 m 194 1083 l 386 1278 l 503 1278 l 696 1083 l 556 1083 l 444 1192 l 332 1083 l 194 1083 z "},"Ể":{"ha":833,"x_min":139,"x_max":792,"o":"m 139 0 l 139 1014 l 722 1014 l 722 900 l 263 900 l 263 586 l 674 586 l 674 475 l 263 475 l 263 114 l 722 114 l 722 0 l 139 0 m 611 1222 l 678 1288 q 689 1314 689 1299 q 668 1336 689 1336 l 576 1336 l 576 1417 l 694 1417 q 765 1393 739 1417 q 792 1331 792 1369 q 769 1269 792 1292 l 719 1222 l 611 1222 m 194 1083 l 386 1278 l 503 1278 l 696 1083 l 556 1083 l 444 1192 l 332 1083 l 194 1083 z "},"Ễ":{"ha":833,"x_min":139,"x_max":722,"o":"m 139 0 l 139 1014 l 722 1014 l 722 900 l 263 900 l 263 586 l 674 586 l 674 475 l 263 475 l 263 114 l 722 114 l 722 0 l 139 0 m 551 1278 q 479 1288 508 1278 q 429 1310 450 1297 q 390 1333 408 1324 q 347 1343 371 1343 q 317 1332 329 1343 q 306 1301 306 1321 l 306 1292 l 215 1292 l 215 1301 q 249 1385 215 1354 q 340 1417 283 1417 q 413 1407 385 1417 q 462 1384 442 1397 q 500 1361 482 1371 q 542 1351 518 1351 q 572 1363 561 1351 q 583 1393 583 1375 l 583 1403 l 674 1403 l 674 1393 q 641 1309 674 1340 q 551 1278 608 1278 m 194 1083 l 356 1236 l 533 1236 l 694 1083 l 554 1083 l 444 1185 l 332 1083 l 194 1083 z "},"Ë":{"ha":833,"x_min":139,"x_max":722,"o":"m 139 0 l 139 1014 l 722 1014 l 722 900 l 263 900 l 263 586 l 674 586 l 674 475 l 263 475 l 263 114 l 722 114 l 722 0 l 139 0 m 599 1135 q 534 1158 558 1135 q 510 1222 510 1182 q 534 1288 510 1264 q 599 1313 558 1313 q 663 1288 639 1313 q 688 1222 688 1264 q 663 1158 688 1182 q 599 1135 639 1135 m 290 1135 q 226 1158 250 1135 q 201 1222 201 1182 q 226 1288 201 1264 q 290 1313 250 1313 q 355 1288 331 1313 q 379 1222 379 1264 q 355 1158 379 1182 q 290 1135 331 1135 z "},"Ė":{"ha":833,"x_min":139,"x_max":722,"o":"m 139 0 l 139 1014 l 722 1014 l 722 900 l 263 900 l 263 586 l 674 586 l 674 475 l 263 475 l 263 114 l 722 114 l 722 0 l 139 0 m 444 1133 q 372 1158 399 1133 q 346 1222 346 1182 q 372 1287 346 1263 q 444 1311 399 1311 q 517 1287 490 1311 q 543 1222 543 1263 q 517 1158 543 1182 q 444 1133 490 1133 z "},"Ẹ":{"ha":833,"x_min":139,"x_max":722,"o":"m 139 0 l 139 1014 l 722 1014 l 722 900 l 263 900 l 263 586 l 674 586 l 674 475 l 263 475 l 263 114 l 722 114 l 722 0 l 139 0 m 444 -296 q 372 -272 399 -296 q 346 -208 346 -249 q 372 -142 346 -167 q 444 -118 399 -118 q 517 -142 490 -118 q 543 -208 543 -167 q 517 -272 543 -249 q 444 -296 490 -296 z "},"È":{"ha":833,"x_min":139,"x_max":722,"o":"m 139 0 l 139 1014 l 722 1014 l 722 900 l 263 900 l 263 586 l 674 586 l 674 475 l 263 475 l 263 114 l 722 114 l 722 0 l 139 0 m 399 1125 l 239 1319 l 378 1319 l 531 1125 l 399 1125 z "},"Ẻ":{"ha":833,"x_min":139,"x_max":722,"o":"m 139 0 l 139 1014 l 722 1014 l 722 900 l 263 900 l 263 586 l 674 586 l 674 475 l 263 475 l 263 114 l 722 114 l 722 0 l 139 0 m 386 1111 l 449 1199 q 468 1243 468 1226 q 424 1271 468 1271 l 319 1271 l 319 1361 l 431 1361 q 536 1333 496 1361 q 576 1257 576 1304 q 553 1183 576 1218 l 504 1111 l 386 1111 z "},"Ē":{"ha":833,"x_min":139,"x_max":722,"o":"m 139 0 l 139 1014 l 722 1014 l 722 900 l 263 900 l 263 586 l 674 586 l 674 475 l 263 475 l 263 114 l 722 114 l 722 0 l 139 0 m 222 1167 l 222 1271 l 667 1271 l 667 1167 l 222 1167 z "},"Ę":{"ha":833,"x_min":139,"x_max":729,"o":"m 139 0 l 139 1014 l 722 1014 l 722 900 l 263 900 l 263 586 l 674 586 l 674 475 l 263 475 l 263 114 l 722 114 l 722 0 l 657 0 q 590 -69 611 -37 q 569 -129 569 -100 q 590 -179 569 -160 q 646 -199 611 -199 l 729 -199 l 729 -282 l 621 -282 q 498 -245 544 -282 q 451 -153 451 -208 q 474 -79 451 -117 q 550 0 496 -42 l 139 0 z "},"Ɛ":{"ha":833,"x_min":97,"x_max":758,"o":"m 432 -14 q 601 22 528 -14 q 716 120 675 57 q 758 267 757 183 l 633 267 q 576 144 631 190 q 432 97 521 97 q 281 149 338 97 q 224 285 224 200 q 281 421 224 369 q 432 472 338 472 l 558 472 l 558 583 l 433 583 q 297 629 349 583 q 246 750 246 675 q 297 871 246 825 q 433 917 349 917 q 570 869 518 917 q 622 743 622 821 l 747 743 q 708 893 747 829 q 597 992 668 957 q 429 1028 525 1028 q 267 994 336 1028 q 159 901 197 961 q 121 758 121 840 q 166 613 121 671 q 289 538 211 556 q 149 453 200 519 q 97 285 97 386 q 139 128 97 196 q 256 24 181 61 q 432 -14 331 -14 z "},"Ẽ":{"ha":833,"x_min":139,"x_max":722,"o":"m 139 0 l 139 1014 l 722 1014 l 722 900 l 263 900 l 263 586 l 674 586 l 674 475 l 263 475 l 263 114 l 722 114 l 722 0 l 139 0 m 542 1132 q 474 1147 500 1132 q 429 1181 447 1161 q 394 1215 411 1200 q 354 1229 378 1229 q 313 1181 313 1229 l 313 1139 l 222 1139 l 222 1181 q 257 1278 222 1243 q 347 1313 292 1313 q 415 1298 389 1313 q 460 1264 442 1283 q 494 1230 478 1244 q 535 1215 511 1215 q 576 1264 576 1215 l 576 1306 l 667 1306 l 667 1264 q 633 1167 667 1201 q 542 1132 599 1132 z "},"F":{"ha":833,"x_min":132,"x_max":729,"o":"m 132 0 l 132 1014 l 729 1014 l 729 900 l 254 900 l 254 564 l 693 564 l 693 450 l 257 450 l 257 0 l 132 0 z "},"G":{"ha":833,"x_min":122,"x_max":719,"o":"m 422 -14 q 203 64 283 -14 q 122 278 122 142 l 122 736 q 203 950 122 872 q 422 1028 283 1028 q 639 949 558 1028 q 719 736 719 871 l 594 736 q 549 869 594 822 q 422 915 504 915 q 294 869 340 915 q 247 738 247 824 l 247 278 q 294 144 247 192 q 422 97 340 97 q 549 144 504 97 q 594 278 594 192 l 594 403 l 389 403 l 389 517 l 719 517 l 719 278 q 639 65 719 143 q 422 -14 558 -14 z "},"Ǵ":{"ha":833,"x_min":122,"x_max":719,"o":"m 422 -14 q 203 64 283 -14 q 122 278 122 142 l 122 736 q 203 950 122 872 q 422 1028 283 1028 q 639 949 558 1028 q 719 736 719 871 l 594 736 q 549 869 594 822 q 422 915 504 915 q 294 869 340 915 q 247 738 247 824 l 247 278 q 294 144 247 192 q 422 97 340 97 q 549 144 504 97 q 594 278 594 192 l 594 403 l 389 403 l 389 517 l 719 517 l 719 278 q 639 65 719 143 q 422 -14 558 -14 m 336 1125 l 483 1319 l 618 1319 l 464 1125 l 336 1125 z "},"Ğ":{"ha":833,"x_min":122,"x_max":719,"o":"m 422 -14 q 203 64 283 -14 q 122 278 122 142 l 122 736 q 203 950 122 872 q 422 1028 283 1028 q 639 949 558 1028 q 719 736 719 871 l 594 736 q 549 869 594 822 q 422 915 504 915 q 294 869 340 915 q 247 738 247 824 l 247 278 q 294 144 247 192 q 422 97 340 97 q 549 144 504 97 q 594 278 594 192 l 594 403 l 389 403 l 389 517 l 719 517 l 719 278 q 639 65 719 143 q 422 -14 558 -14 m 417 1118 q 256 1174 317 1118 q 194 1319 194 1229 l 293 1319 q 326 1232 293 1265 q 415 1199 360 1199 q 506 1232 472 1199 q 540 1319 540 1265 l 639 1319 q 578 1174 639 1229 q 417 1118 517 1118 z "},"Ǧ":{"ha":833,"x_min":122,"x_max":719,"o":"m 422 -14 q 203 64 283 -14 q 122 278 122 142 l 122 736 q 203 950 122 872 q 422 1028 283 1028 q 639 949 558 1028 q 719 736 719 871 l 594 736 q 549 869 594 822 q 422 915 504 915 q 294 869 340 915 q 247 738 247 824 l 247 278 q 294 144 247 192 q 422 97 340 97 q 549 144 504 97 q 594 278 594 192 l 594 403 l 389 403 l 389 517 l 719 517 l 719 278 q 639 65 719 143 q 422 -14 558 -14 m 360 1125 l 165 1319 l 303 1319 l 417 1211 l 528 1319 l 668 1319 l 475 1125 l 360 1125 z "},"Ĝ":{"ha":833,"x_min":122,"x_max":719,"o":"m 422 -14 q 203 64 283 -14 q 122 278 122 142 l 122 736 q 203 950 122 872 q 422 1028 283 1028 q 639 949 558 1028 q 719 736 719 871 l 594 736 q 549 869 594 822 q 422 915 504 915 q 294 869 340 915 q 247 738 247 824 l 247 278 q 294 144 247 192 q 422 97 340 97 q 549 144 504 97 q 594 278 594 192 l 594 403 l 389 403 l 389 517 l 719 517 l 719 278 q 639 65 719 143 q 422 -14 558 -14 m 165 1125 l 358 1319 l 474 1319 l 668 1125 l 531 1125 l 417 1233 l 306 1125 l 165 1125 z "},"Ģ":{"ha":833,"x_min":122,"x_max":719,"o":"m 422 -14 q 203 64 283 -14 q 122 278 122 142 l 122 736 q 203 950 122 872 q 422 1028 283 1028 q 639 949 558 1028 q 719 736 719 871 l 594 736 q 549 869 594 822 q 422 915 504 915 q 294 869 340 915 q 247 738 247 824 l 247 278 q 294 144 247 192 q 422 97 340 97 q 549 144 504 97 q 594 278 594 192 l 594 403 l 389 403 l 389 517 l 719 517 l 719 278 q 639 65 719 143 q 422 -14 558 -14 m 269 -333 l 401 -132 l 547 -132 l 401 -333 l 269 -333 z "},"Ġ":{"ha":833,"x_min":122,"x_max":719,"o":"m 422 -14 q 203 64 283 -14 q 122 278 122 142 l 122 736 q 203 950 122 872 q 422 1028 283 1028 q 639 949 558 1028 q 719 736 719 871 l 594 736 q 549 869 594 822 q 422 915 504 915 q 294 869 340 915 q 247 738 247 824 l 247 278 q 294 144 247 192 q 422 97 340 97 q 549 144 504 97 q 594 278 594 192 l 594 403 l 389 403 l 389 517 l 719 517 l 719 278 q 639 65 719 143 q 422 -14 558 -14 m 417 1133 q 344 1158 371 1133 q 318 1222 318 1182 q 344 1287 318 1263 q 417 1311 371 1311 q 489 1287 463 1311 q 515 1222 515 1263 q 489 1158 515 1182 q 417 1133 463 1133 z "},"H":{"ha":833,"x_min":129,"x_max":704,"o":"m 129 0 l 129 1014 l 254 1014 l 254 581 l 579 581 l 579 1014 l 704 1014 l 704 0 l 579 0 l 579 467 l 254 467 l 254 0 l 129 0 z "},"Ħ":{"ha":833,"x_min":14,"x_max":819,"o":"m 129 0 l 129 729 l 14 729 l 14 833 l 129 833 l 129 1014 l 254 1014 l 254 833 l 579 833 l 579 1014 l 704 1014 l 704 833 l 819 833 l 819 729 l 704 729 l 704 0 l 579 0 l 579 467 l 254 467 l 254 0 l 129 0 m 254 581 l 579 581 l 579 729 l 254 729 l 254 581 z "},"Ĥ":{"ha":833,"x_min":129,"x_max":704,"o":"m 129 0 l 129 1014 l 254 1014 l 254 581 l 579 581 l 579 1014 l 704 1014 l 704 0 l 579 0 l 579 467 l 254 467 l 254 0 l 129 0 m 165 1125 l 358 1319 l 474 1319 l 668 1125 l 531 1125 l 417 1233 l 306 1125 l 165 1125 z "},"I":{"ha":833,"x_min":146,"x_max":688,"o":"m 146 0 l 146 114 l 353 114 l 353 900 l 146 900 l 146 1014 l 688 1014 l 688 900 l 481 900 l 481 114 l 688 114 l 688 0 l 146 0 z "},"Í":{"ha":833,"x_min":146,"x_max":688,"o":"m 146 0 l 146 114 l 353 114 l 353 900 l 146 900 l 146 1014 l 688 1014 l 688 900 l 481 900 l 481 114 l 688 114 l 688 0 l 146 0 m 336 1125 l 483 1319 l 618 1319 l 464 1125 l 336 1125 z "},"Ĭ":{"ha":833,"x_min":146,"x_max":688,"o":"m 146 0 l 146 114 l 353 114 l 353 900 l 146 900 l 146 1014 l 688 1014 l 688 900 l 481 900 l 481 114 l 688 114 l 688 0 l 146 0 m 417 1118 q 256 1174 317 1118 q 194 1319 194 1229 l 293 1319 q 326 1232 293 1265 q 415 1199 360 1199 q 506 1232 472 1199 q 540 1319 540 1265 l 639 1319 q 578 1174 639 1229 q 417 1118 517 1118 z "},"Î":{"ha":833,"x_min":146,"x_max":688,"o":"m 146 0 l 146 114 l 353 114 l 353 900 l 146 900 l 146 1014 l 688 1014 l 688 900 l 481 900 l 481 114 l 688 114 l 688 0 l 146 0 m 165 1125 l 358 1319 l 474 1319 l 668 1125 l 531 1125 l 417 1233 l 306 1125 l 165 1125 z "},"Ï":{"ha":833,"x_min":146,"x_max":688,"o":"m 146 0 l 146 114 l 353 114 l 353 900 l 146 900 l 146 1014 l 688 1014 l 688 900 l 481 900 l 481 114 l 688 114 l 688 0 l 146 0 m 571 1135 q 506 1158 531 1135 q 482 1222 482 1182 q 506 1288 482 1264 q 571 1313 531 1313 q 635 1288 611 1313 q 660 1222 660 1264 q 635 1158 660 1182 q 571 1135 611 1135 m 263 1135 q 198 1158 222 1135 q 174 1222 174 1182 q 198 1288 174 1264 q 263 1313 222 1313 q 327 1288 303 1313 q 351 1222 351 1264 q 327 1158 351 1182 q 263 1135 303 1135 z "},"İ":{"ha":833,"x_min":146,"x_max":688,"o":"m 146 0 l 146 114 l 353 114 l 353 900 l 146 900 l 146 1014 l 688 1014 l 688 900 l 481 900 l 481 114 l 688 114 l 688 0 l 146 0 m 417 1133 q 344 1158 371 1133 q 318 1222 318 1182 q 344 1287 318 1263 q 417 1311 371 1311 q 489 1287 463 1311 q 515 1222 515 1263 q 489 1158 515 1182 q 417 1133 463 1133 z "},"Ị":{"ha":833,"x_min":146,"x_max":688,"o":"m 146 0 l 146 114 l 353 114 l 353 900 l 146 900 l 146 1014 l 688 1014 l 688 900 l 481 900 l 481 114 l 688 114 l 688 0 l 146 0 m 417 -296 q 344 -272 371 -296 q 318 -208 318 -249 q 344 -142 318 -167 q 417 -118 371 -118 q 489 -142 463 -118 q 515 -208 515 -167 q 489 -272 515 -249 q 417 -296 463 -296 z "},"Ì":{"ha":833,"x_min":146,"x_max":688,"o":"m 146 0 l 146 114 l 353 114 l 353 900 l 146 900 l 146 1014 l 688 1014 l 688 900 l 481 900 l 481 114 l 688 114 l 688 0 l 146 0 m 371 1125 l 211 1319 l 350 1319 l 503 1125 l 371 1125 z "},"Ỉ":{"ha":833,"x_min":146,"x_max":688,"o":"m 146 0 l 146 114 l 353 114 l 353 900 l 146 900 l 146 1014 l 688 1014 l 688 900 l 481 900 l 481 114 l 688 114 l 688 0 l 146 0 m 358 1111 l 421 1199 q 440 1243 440 1226 q 396 1271 440 1271 l 292 1271 l 292 1361 l 403 1361 q 508 1333 468 1361 q 549 1257 549 1304 q 525 1183 549 1218 l 476 1111 l 358 1111 z "},"Ī":{"ha":833,"x_min":146,"x_max":688,"o":"m 146 0 l 146 114 l 353 114 l 353 900 l 146 900 l 146 1014 l 688 1014 l 688 900 l 481 900 l 481 114 l 688 114 l 688 0 l 146 0 m 194 1167 l 194 1271 l 639 1271 l 639 1167 l 194 1167 z "},"Į":{"ha":833,"x_min":146,"x_max":688,"o":"m 146 0 l 146 114 l 353 114 l 353 900 l 146 900 l 146 1014 l 688 1014 l 688 900 l 481 900 l 481 114 l 688 114 l 688 0 l 463 0 q 396 -69 417 -37 q 375 -129 375 -100 q 396 -179 375 -160 q 451 -199 417 -199 l 535 -199 l 535 -282 l 426 -282 q 303 -245 350 -282 q 257 -153 257 -208 q 279 -79 257 -117 q 356 0 301 -42 l 146 0 z "},"Ĩ":{"ha":833,"x_min":146,"x_max":688,"o":"m 146 0 l 146 114 l 353 114 l 353 900 l 146 900 l 146 1014 l 688 1014 l 688 900 l 481 900 l 481 114 l 688 114 l 688 0 l 146 0 m 514 1132 q 446 1147 472 1132 q 401 1181 419 1161 q 367 1215 383 1200 q 326 1229 350 1229 q 285 1181 285 1229 l 285 1139 l 194 1139 l 194 1181 q 229 1278 194 1243 q 319 1313 264 1313 q 388 1298 361 1313 q 432 1264 414 1283 q 467 1230 450 1244 q 507 1215 483 1215 q 549 1264 549 1215 l 549 1306 l 639 1306 l 639 1264 q 605 1167 639 1201 q 514 1132 571 1132 z "},"J":{"ha":833,"x_min":63,"x_max":688,"o":"m 375 -14 q 146 68 229 -14 q 63 292 63 150 l 188 292 q 237 148 188 199 q 375 97 286 97 q 513 148 464 97 q 563 292 563 199 l 563 900 l 278 900 l 278 1014 l 688 1014 l 688 292 q 603 68 688 150 q 375 -14 519 -14 z "},"Ĵ":{"ha":833,"x_min":63,"x_max":751,"o":"m 375 -14 q 146 68 229 -14 q 63 292 63 150 l 188 292 q 237 148 188 199 q 375 97 286 97 q 513 148 464 97 q 563 292 563 199 l 563 900 l 278 900 l 278 1014 l 688 1014 l 688 292 q 603 68 688 150 q 375 -14 519 -14 m 249 1125 l 442 1319 l 557 1319 l 751 1125 l 614 1125 l 500 1233 l 389 1125 l 249 1125 z "},"K":{"ha":833,"x_min":128,"x_max":778,"o":"m 128 0 l 128 1014 l 253 1014 l 253 579 l 403 579 l 628 1014 l 764 1014 l 513 526 l 778 0 l 635 0 l 399 469 l 253 469 l 253 0 l 128 0 z "},"Ķ":{"ha":833,"x_min":128,"x_max":778,"o":"m 128 0 l 128 1014 l 253 1014 l 253 579 l 403 579 l 628 1014 l 764 1014 l 513 526 l 778 0 l 635 0 l 399 469 l 253 469 l 253 0 l 128 0 m 264 -333 l 396 -132 l 542 -132 l 396 -333 l 264 -333 z "},"L":{"ha":833,"x_min":181,"x_max":764,"o":"m 181 0 l 181 1014 l 306 1014 l 306 114 l 764 114 l 764 0 l 181 0 z "},"Ĺ":{"ha":833,"x_min":163,"x_max":764,"o":"m 181 0 l 181 1014 l 306 1014 l 306 114 l 764 114 l 764 0 l 181 0 m 163 1125 l 310 1319 l 444 1319 l 290 1125 l 163 1125 z "},"Ľ":{"ha":833,"x_min":181,"x_max":965,"o":"m 181 0 l 181 1014 l 306 1014 l 306 114 l 764 114 l 764 0 l 181 0 m 833 1014 l 847 1264 l 965 1264 l 938 1014 l 833 1014 z "},"Ļ":{"ha":833,"x_min":181,"x_max":764,"o":"m 181 0 l 181 1014 l 306 1014 l 306 114 l 764 114 l 764 0 l 181 0 m 319 -333 l 451 -132 l 597 -132 l 451 -333 l 319 -333 z "},"Ŀ":{"ha":833,"x_min":181,"x_max":764,"o":"m 181 0 l 181 1014 l 306 1014 l 306 114 l 764 114 l 764 0 l 181 0 m 618 368 q 534 399 565 368 q 503 481 503 429 q 534 567 503 535 q 618 599 565 599 q 702 567 671 599 q 733 481 733 535 q 702 399 733 429 q 618 368 671 368 z "},"Ł":{"ha":833,"x_min":28,"x_max":764,"o":"m 181 0 l 181 422 l 28 319 l 28 431 l 181 533 l 181 1014 l 306 1014 l 306 618 l 542 778 l 542 667 l 306 507 l 306 114 l 764 114 l 764 0 l 181 0 z "},"M":{"ha":833,"x_min":106,"x_max":728,"o":"m 106 0 l 106 1014 l 269 1014 l 378 686 q 403 598 393 642 q 419 531 414 554 q 436 598 425 554 q 461 688 447 642 l 564 1014 l 728 1014 l 728 0 l 606 0 l 606 479 q 617 722 606 603 q 642 951 628 842 l 476 444 l 357 444 l 190 951 q 217 731 206 846 q 228 479 228 615 l 228 0 l 106 0 z "},"N":{"ha":833,"x_min":125,"x_max":708,"o":"m 125 0 l 125 1014 l 292 1014 l 601 146 q 595 231 599 181 q 590 338 592 282 q 588 444 588 394 l 588 1014 l 708 1014 l 708 0 l 542 0 l 233 868 q 239 784 236 835 q 244 677 242 733 q 246 569 246 621 l 246 0 l 125 0 z "},"Ń":{"ha":833,"x_min":125,"x_max":708,"o":"m 125 0 l 125 1014 l 292 1014 l 601 146 q 595 231 599 181 q 590 338 592 282 q 588 444 588 394 l 588 1014 l 708 1014 l 708 0 l 542 0 l 233 868 q 239 784 236 835 q 244 677 242 733 q 246 569 246 621 l 246 0 l 125 0 m 336 1125 l 483 1319 l 618 1319 l 464 1125 l 336 1125 z "},"Ň":{"ha":833,"x_min":125,"x_max":708,"o":"m 125 0 l 125 1014 l 292 1014 l 601 146 q 595 231 599 181 q 590 338 592 282 q 588 444 588 394 l 588 1014 l 708 1014 l 708 0 l 542 0 l 233 868 q 239 784 236 835 q 244 677 242 733 q 246 569 246 621 l 246 0 l 125 0 m 360 1125 l 165 1319 l 303 1319 l 417 1211 l 528 1319 l 668 1319 l 475 1125 l 360 1125 z "},"Ņ":{"ha":833,"x_min":125,"x_max":708,"o":"m 125 0 l 125 1014 l 292 1014 l 601 146 q 595 231 599 181 q 590 338 592 282 q 588 444 588 394 l 588 1014 l 708 1014 l 708 0 l 542 0 l 233 868 q 239 784 236 835 q 244 677 242 733 q 246 569 246 621 l 246 0 l 125 0 m 264 -333 l 396 -132 l 542 -132 l 396 -333 l 264 -333 z "},"Ŋ":{"ha":833,"x_min":125,"x_max":708,"o":"m 333 -250 l 333 -136 l 424 -136 q 540 -94 497 -136 q 583 21 583 -51 l 233 868 q 239 784 236 835 q 244 677 242 733 q 246 569 246 621 l 246 0 l 125 0 l 125 1014 l 292 1014 l 601 251 q 595 337 599 286 q 590 444 592 388 q 588 551 588 501 l 588 1014 l 708 1014 l 708 21 q 631 -176 708 -101 q 424 -250 553 -250 l 333 -250 z "},"Ñ":{"ha":833,"x_min":125,"x_max":708,"o":"m 125 0 l 125 1014 l 292 1014 l 601 146 q 595 231 599 181 q 590 338 592 282 q 588 444 588 394 l 588 1014 l 708 1014 l 708 0 l 542 0 l 233 868 q 239 784 236 835 q 244 677 242 733 q 246 569 246 621 l 246 0 l 125 0 m 514 1132 q 446 1147 472 1132 q 401 1181 419 1161 q 367 1215 383 1200 q 326 1229 350 1229 q 285 1181 285 1229 l 285 1139 l 194 1139 l 194 1181 q 229 1278 194 1243 q 319 1313 264 1313 q 388 1298 361 1313 q 432 1264 414 1283 q 467 1230 450 1244 q 507 1215 483 1215 q 549 1264 549 1215 l 549 1306 l 639 1306 l 639 1264 q 605 1167 639 1201 q 514 1132 571 1132 z "},"O":{"ha":833,"x_min":122,"x_max":711,"o":"m 417 -14 q 201 64 281 -14 q 122 278 122 142 l 122 736 q 201 950 122 872 q 417 1028 281 1028 q 632 951 553 1028 q 711 738 711 874 l 711 278 q 632 64 711 142 q 417 -14 553 -14 m 417 99 q 542 145 499 99 q 586 278 586 192 l 586 736 q 542 869 586 822 q 417 915 499 915 q 292 869 336 915 q 247 736 247 822 l 247 278 q 292 145 247 192 q 417 99 336 99 z "},"Ó":{"ha":833,"x_min":122,"x_max":711,"o":"m 417 -14 q 201 64 281 -14 q 122 278 122 142 l 122 736 q 201 950 122 872 q 417 1028 281 1028 q 632 951 553 1028 q 711 738 711 874 l 711 278 q 632 64 711 142 q 417 -14 553 -14 m 417 99 q 542 145 499 99 q 586 278 586 192 l 586 736 q 542 869 586 822 q 417 915 499 915 q 292 869 336 915 q 247 736 247 822 l 247 278 q 292 145 247 192 q 417 99 336 99 m 336 1125 l 483 1319 l 618 1319 l 464 1125 l 336 1125 z "},"Ŏ":{"ha":833,"x_min":122,"x_max":711,"o":"m 417 -14 q 201 64 281 -14 q 122 278 122 142 l 122 736 q 201 950 122 872 q 417 1028 281 1028 q 632 951 553 1028 q 711 738 711 874 l 711 278 q 632 64 711 142 q 417 -14 553 -14 m 417 99 q 542 145 499 99 q 586 278 586 192 l 586 736 q 542 869 586 822 q 417 915 499 915 q 292 869 336 915 q 247 736 247 822 l 247 278 q 292 145 247 192 q 417 99 336 99 m 417 1118 q 256 1174 317 1118 q 194 1319 194 1229 l 293 1319 q 326 1232 293 1265 q 415 1199 360 1199 q 506 1232 472 1199 q 540 1319 540 1265 l 639 1319 q 578 1174 639 1229 q 417 1118 517 1118 z "},"Ô":{"ha":833,"x_min":122,"x_max":711,"o":"m 417 -14 q 201 64 281 -14 q 122 278 122 142 l 122 736 q 201 950 122 872 q 417 1028 281 1028 q 632 951 553 1028 q 711 738 711 874 l 711 278 q 632 64 711 142 q 417 -14 553 -14 m 417 99 q 542 145 499 99 q 586 278 586 192 l 586 736 q 542 869 586 822 q 417 915 499 915 q 292 869 336 915 q 247 736 247 822 l 247 278 q 292 145 247 192 q 417 99 336 99 m 165 1125 l 358 1319 l 474 1319 l 668 1125 l 531 1125 l 417 1233 l 306 1125 l 165 1125 z "},"Ố":{"ha":833,"x_min":122,"x_max":854,"o":"m 417 -14 q 201 64 281 -14 q 122 278 122 142 l 122 736 q 201 950 122 872 q 417 1028 281 1028 q 632 951 553 1028 q 711 738 711 874 l 711 278 q 632 64 711 142 q 417 -14 553 -14 m 417 99 q 542 145 499 99 q 586 278 586 192 l 586 736 q 542 869 586 822 q 417 915 499 915 q 292 869 336 915 q 247 736 247 822 l 247 278 q 292 145 247 192 q 417 99 336 99 m 567 1250 l 713 1417 l 854 1417 l 701 1250 l 567 1250 m 167 1083 l 358 1278 l 475 1278 l 668 1083 l 528 1083 l 417 1192 l 304 1083 l 167 1083 z "},"Ộ":{"ha":833,"x_min":122,"x_max":711,"o":"m 417 -14 q 201 64 281 -14 q 122 278 122 142 l 122 736 q 201 950 122 872 q 417 1028 281 1028 q 632 951 553 1028 q 711 738 711 874 l 711 278 q 632 64 711 142 q 417 -14 553 -14 m 417 99 q 542 145 499 99 q 586 278 586 192 l 586 736 q 542 869 586 822 q 417 915 499 915 q 292 869 336 915 q 247 736 247 822 l 247 278 q 292 145 247 192 q 417 99 336 99 m 417 -296 q 344 -272 371 -296 q 318 -208 318 -249 q 344 -142 318 -167 q 417 -118 371 -118 q 489 -142 463 -118 q 515 -208 515 -167 q 489 -272 515 -249 q 417 -296 463 -296 m 165 1125 l 358 1319 l 474 1319 l 668 1125 l 531 1125 l 417 1233 l 306 1125 l 165 1125 z "},"Ồ":{"ha":833,"x_min":122,"x_max":750,"o":"m 417 -14 q 201 64 281 -14 q 122 278 122 142 l 122 736 q 201 950 122 872 q 417 1028 281 1028 q 632 951 553 1028 q 711 738 711 874 l 711 278 q 632 64 711 142 q 417 -14 553 -14 m 417 99 q 542 145 499 99 q 586 278 586 192 l 586 736 q 542 869 586 822 q 417 915 499 915 q 292 869 336 915 q 247 736 247 822 l 247 278 q 292 145 247 192 q 417 99 336 99 m 618 1250 l 451 1417 l 590 1417 l 750 1250 l 618 1250 m 167 1083 l 358 1278 l 475 1278 l 668 1083 l 528 1083 l 417 1192 l 304 1083 l 167 1083 z "},"Ổ":{"ha":833,"x_min":122,"x_max":764,"o":"m 417 -14 q 201 64 281 -14 q 122 278 122 142 l 122 736 q 201 950 122 872 q 417 1028 281 1028 q 632 951 553 1028 q 711 738 711 874 l 711 278 q 632 64 711 142 q 417 -14 553 -14 m 417 99 q 542 145 499 99 q 586 278 586 192 l 586 736 q 542 869 586 822 q 417 915 499 915 q 292 869 336 915 q 247 736 247 822 l 247 278 q 292 145 247 192 q 417 99 336 99 m 583 1222 l 650 1288 q 661 1314 661 1299 q 640 1336 661 1336 l 549 1336 l 549 1417 l 667 1417 q 738 1393 711 1417 q 764 1331 764 1369 q 742 1269 764 1292 l 692 1222 l 583 1222 m 167 1083 l 358 1278 l 475 1278 l 668 1083 l 528 1083 l 417 1192 l 304 1083 l 167 1083 z "},"Ỗ":{"ha":833,"x_min":122,"x_max":711,"o":"m 417 -14 q 201 64 281 -14 q 122 278 122 142 l 122 736 q 201 950 122 872 q 417 1028 281 1028 q 632 951 553 1028 q 711 738 711 874 l 711 278 q 632 64 711 142 q 417 -14 553 -14 m 417 99 q 542 145 499 99 q 586 278 586 192 l 586 736 q 542 869 586 822 q 417 915 499 915 q 292 869 336 915 q 247 736 247 822 l 247 278 q 292 145 247 192 q 417 99 336 99 m 524 1278 q 451 1288 481 1278 q 401 1310 422 1297 q 362 1333 381 1324 q 319 1343 343 1343 q 290 1332 301 1343 q 278 1301 278 1321 l 278 1292 l 188 1292 l 188 1301 q 222 1385 188 1354 q 313 1417 256 1417 q 385 1407 357 1417 q 434 1384 414 1397 q 472 1361 454 1371 q 514 1351 490 1351 q 544 1363 533 1351 q 556 1393 556 1375 l 556 1403 l 646 1403 l 646 1393 q 613 1309 646 1340 q 524 1278 581 1278 m 167 1083 l 328 1236 l 506 1236 l 667 1083 l 526 1083 l 417 1185 l 304 1083 l 167 1083 z "},"Ö":{"ha":833,"x_min":122,"x_max":711,"o":"m 417 -14 q 201 64 281 -14 q 122 278 122 142 l 122 736 q 201 950 122 872 q 417 1028 281 1028 q 632 951 553 1028 q 711 738 711 874 l 711 278 q 632 64 711 142 q 417 -14 553 -14 m 417 99 q 542 145 499 99 q 586 278 586 192 l 586 736 q 542 869 586 822 q 417 915 499 915 q 292 869 336 915 q 247 736 247 822 l 247 278 q 292 145 247 192 q 417 99 336 99 m 571 1135 q 506 1158 531 1135 q 482 1222 482 1182 q 506 1288 482 1264 q 571 1313 531 1313 q 635 1288 611 1313 q 660 1222 660 1264 q 635 1158 660 1182 q 571 1135 611 1135 m 263 1135 q 198 1158 222 1135 q 174 1222 174 1182 q 198 1288 174 1264 q 263 1313 222 1313 q 327 1288 303 1313 q 351 1222 351 1264 q 327 1158 351 1182 q 263 1135 303 1135 z "},"Ọ":{"ha":833,"x_min":122,"x_max":711,"o":"m 417 -14 q 201 64 281 -14 q 122 278 122 142 l 122 736 q 201 950 122 872 q 417 1028 281 1028 q 632 951 553 1028 q 711 738 711 874 l 711 278 q 632 64 711 142 q 417 -14 553 -14 m 417 99 q 542 145 499 99 q 586 278 586 192 l 586 736 q 542 869 586 822 q 417 915 499 915 q 292 869 336 915 q 247 736 247 822 l 247 278 q 292 145 247 192 q 417 99 336 99 m 417 -296 q 344 -272 371 -296 q 318 -208 318 -249 q 344 -142 318 -167 q 417 -118 371 -118 q 489 -142 463 -118 q 515 -208 515 -167 q 489 -272 515 -249 q 417 -296 463 -296 z "},"Ò":{"ha":833,"x_min":122,"x_max":711,"o":"m 417 -14 q 201 64 281 -14 q 122 278 122 142 l 122 736 q 201 950 122 872 q 417 1028 281 1028 q 632 951 553 1028 q 711 738 711 874 l 711 278 q 632 64 711 142 q 417 -14 553 -14 m 417 99 q 542 145 499 99 q 586 278 586 192 l 586 736 q 542 869 586 822 q 417 915 499 915 q 292 869 336 915 q 247 736 247 822 l 247 278 q 292 145 247 192 q 417 99 336 99 m 371 1125 l 211 1319 l 350 1319 l 503 1125 l 371 1125 z "},"Ỏ":{"ha":833,"x_min":122,"x_max":711,"o":"m 417 -14 q 201 64 281 -14 q 122 278 122 142 l 122 736 q 201 950 122 872 q 417 1028 281 1028 q 632 951 553 1028 q 711 738 711 874 l 711 278 q 632 64 711 142 q 417 -14 553 -14 m 417 99 q 542 145 499 99 q 586 278 586 192 l 586 736 q 542 869 586 822 q 417 915 499 915 q 292 869 336 915 q 247 736 247 822 l 247 278 q 292 145 247 192 q 417 99 336 99 m 358 1111 l 421 1199 q 440 1243 440 1226 q 396 1271 440 1271 l 292 1271 l 292 1361 l 403 1361 q 508 1333 468 1361 q 549 1257 549 1304 q 525 1183 549 1218 l 476 1111 l 358 1111 z "},"Ơ":{"ha":833,"x_min":122,"x_max":736,"o":"m 417 -14 q 201 64 281 -14 q 122 278 122 142 l 122 736 q 201 950 122 872 q 417 1028 281 1028 q 603 975 528 1028 q 632 1021 632 986 l 632 1125 l 736 1125 l 736 1014 q 671 900 736 935 q 711 738 711 832 l 711 278 q 632 64 711 142 q 417 -14 553 -14 m 417 99 q 542 145 499 99 q 586 278 586 192 l 586 736 q 542 869 586 822 q 417 915 499 915 q 292 869 336 915 q 247 736 247 822 l 247 278 q 292 145 247 192 q 417 99 336 99 z "},"Ớ":{"ha":833,"x_min":122,"x_max":736,"o":"m 417 -14 q 201 64 281 -14 q 122 278 122 142 l 122 736 q 201 950 122 872 q 417 1028 281 1028 q 603 975 528 1028 q 632 1021 632 986 l 632 1125 l 736 1125 l 736 1014 q 671 900 736 935 q 711 738 711 832 l 711 278 q 632 64 711 142 q 417 -14 553 -14 m 417 99 q 542 145 499 99 q 586 278 586 192 l 586 736 q 542 869 586 822 q 417 915 499 915 q 292 869 336 915 q 247 736 247 822 l 247 278 q 292 145 247 192 q 417 99 336 99 m 322 1125 l 469 1319 l 604 1319 l 450 1125 l 322 1125 z "},"Ợ":{"ha":833,"x_min":122,"x_max":736,"o":"m 417 -14 q 201 64 281 -14 q 122 278 122 142 l 122 736 q 201 950 122 872 q 417 1028 281 1028 q 603 975 528 1028 q 632 1021 632 986 l 632 1125 l 736 1125 l 736 1014 q 671 900 736 935 q 711 738 711 832 l 711 278 q 632 64 711 142 q 417 -14 553 -14 m 417 99 q 542 145 499 99 q 586 278 586 192 l 586 736 q 542 869 586 822 q 417 915 499 915 q 292 869 336 915 q 247 736 247 822 l 247 278 q 292 145 247 192 q 417 99 336 99 m 417 -296 q 344 -272 371 -296 q 318 -208 318 -249 q 344 -142 318 -167 q 417 -118 371 -118 q 489 -142 463 -118 q 515 -208 515 -167 q 489 -272 515 -249 q 417 -296 463 -296 z "},"Ờ":{"ha":833,"x_min":122,"x_max":736,"o":"m 417 -14 q 201 64 281 -14 q 122 278 122 142 l 122 736 q 201 950 122 872 q 417 1028 281 1028 q 603 975 528 1028 q 632 1021 632 986 l 632 1125 l 736 1125 l 736 1014 q 671 900 736 935 q 711 738 711 832 l 711 278 q 632 64 711 142 q 417 -14 553 -14 m 417 99 q 542 145 499 99 q 586 278 586 192 l 586 736 q 542 869 586 822 q 417 915 499 915 q 292 869 336 915 q 247 736 247 822 l 247 278 q 292 145 247 192 q 417 99 336 99 m 357 1125 l 197 1319 l 336 1319 l 489 1125 l 357 1125 z "},"Ở":{"ha":833,"x_min":122,"x_max":736,"o":"m 417 -14 q 201 64 281 -14 q 122 278 122 142 l 122 736 q 201 950 122 872 q 417 1028 281 1028 q 603 975 528 1028 q 632 1021 632 986 l 632 1125 l 736 1125 l 736 1014 q 671 900 736 935 q 711 738 711 832 l 711 278 q 632 64 711 142 q 417 -14 553 -14 m 417 99 q 542 145 499 99 q 586 278 586 192 l 586 736 q 542 869 586 822 q 417 915 499 915 q 292 869 336 915 q 247 736 247 822 l 247 278 q 292 145 247 192 q 417 99 336 99 m 344 1111 l 407 1199 q 426 1243 426 1226 q 382 1271 426 1271 l 278 1271 l 278 1361 l 389 1361 q 494 1333 454 1361 q 535 1257 535 1304 q 511 1183 535 1218 l 463 1111 l 344 1111 z "},"Ỡ":{"ha":833,"x_min":122,"x_max":736,"o":"m 417 -14 q 201 64 281 -14 q 122 278 122 142 l 122 736 q 201 950 122 872 q 417 1028 281 1028 q 603 975 528 1028 q 632 1021 632 986 l 632 1125 l 736 1125 l 736 1014 q 671 900 736 935 q 711 738 711 832 l 711 278 q 632 64 711 142 q 417 -14 553 -14 m 417 99 q 542 145 499 99 q 586 278 586 192 l 586 736 q 542 869 586 822 q 417 915 499 915 q 292 869 336 915 q 247 736 247 822 l 247 278 q 292 145 247 192 q 417 99 336 99 m 500 1132 q 432 1147 458 1132 q 388 1181 406 1161 q 353 1215 369 1200 q 313 1229 336 1229 q 271 1181 271 1229 l 271 1139 l 181 1139 l 181 1181 q 215 1278 181 1243 q 306 1313 250 1313 q 374 1298 347 1313 q 418 1264 400 1283 q 453 1230 436 1244 q 493 1215 469 1215 q 535 1264 535 1215 l 535 1306 l 625 1306 l 625 1264 q 591 1167 625 1201 q 500 1132 557 1132 z "},"Ő":{"ha":833,"x_min":122,"x_max":733,"o":"m 417 -14 q 201 64 281 -14 q 122 278 122 142 l 122 736 q 201 950 122 872 q 417 1028 281 1028 q 632 951 553 1028 q 711 738 711 874 l 711 278 q 632 64 711 142 q 417 -14 553 -14 m 417 99 q 542 145 499 99 q 586 278 586 192 l 586 736 q 542 869 586 822 q 417 915 499 915 q 292 869 336 915 q 247 736 247 822 l 247 278 q 292 145 247 192 q 417 99 336 99 m 453 1125 l 606 1319 l 733 1319 l 574 1125 l 453 1125 m 204 1125 l 357 1319 l 485 1319 l 325 1125 l 204 1125 z "},"Ō":{"ha":833,"x_min":122,"x_max":711,"o":"m 417 -14 q 201 64 281 -14 q 122 278 122 142 l 122 736 q 201 950 122 872 q 417 1028 281 1028 q 632 951 553 1028 q 711 738 711 874 l 711 278 q 632 64 711 142 q 417 -14 553 -14 m 417 99 q 542 145 499 99 q 586 278 586 192 l 586 736 q 542 869 586 822 q 417 915 499 915 q 292 869 336 915 q 247 736 247 822 l 247 278 q 292 145 247 192 q 417 99 336 99 m 194 1167 l 194 1271 l 639 1271 l 639 1167 l 194 1167 z "},"Ǫ":{"ha":833,"x_min":122,"x_max":711,"o":"m 526 -282 q 403 -245 450 -282 q 357 -153 357 -208 q 435 -14 357 -89 l 417 -14 q 201 64 281 -14 q 122 278 122 142 l 122 736 q 201 950 122 872 q 417 1028 281 1028 q 632 951 553 1028 q 711 738 711 874 l 711 278 q 681 133 711 196 q 597 35 651 71 l 557 1 q 493 -69 511 -37 q 475 -129 475 -100 q 496 -179 475 -160 q 551 -199 517 -199 l 635 -199 l 635 -282 l 526 -282 m 417 99 q 542 145 499 99 q 586 278 586 192 l 586 736 q 542 869 586 822 q 417 915 499 915 q 292 869 336 915 q 247 736 247 822 l 247 278 q 292 145 247 192 q 417 99 336 99 z "},"Ø":{"ha":833,"x_min":49,"x_max":785,"o":"m 49 -56 l 154 131 q 122 278 122 193 l 122 736 q 201 950 122 872 q 417 1028 281 1028 q 622 960 544 1028 l 668 1042 l 785 1042 l 688 868 q 711 738 711 811 l 711 278 q 632 64 711 142 q 417 -14 553 -14 q 222 46 299 -14 l 165 -56 l 49 -56 m 247 736 l 247 296 l 558 847 q 417 915 515 915 q 292 869 336 915 q 247 736 247 822 m 417 99 q 542 145 499 99 q 586 278 586 192 l 586 690 l 283 154 q 417 99 328 99 z "},"Ǿ":{"ha":833,"x_min":49,"x_max":785,"o":"m 49 -56 l 154 131 q 122 278 122 193 l 122 736 q 201 950 122 872 q 417 1028 281 1028 q 622 960 544 1028 l 668 1042 l 785 1042 l 688 868 q 711 738 711 811 l 711 278 q 632 64 711 142 q 417 -14 553 -14 q 222 46 299 -14 l 165 -56 l 49 -56 m 247 736 l 247 296 l 558 847 q 417 915 515 915 q 292 869 336 915 q 247 736 247 822 m 417 99 q 542 145 499 99 q 586 278 586 192 l 586 690 l 283 154 q 417 99 328 99 m 336 1125 l 483 1319 l 618 1319 l 464 1125 l 336 1125 z "},"Õ":{"ha":833,"x_min":122,"x_max":711,"o":"m 417 -14 q 201 64 281 -14 q 122 278 122 142 l 122 736 q 201 950 122 872 q 417 1028 281 1028 q 632 951 553 1028 q 711 738 711 874 l 711 278 q 632 64 711 142 q 417 -14 553 -14 m 417 99 q 542 145 499 99 q 586 278 586 192 l 586 736 q 542 869 586 822 q 417 915 499 915 q 292 869 336 915 q 247 736 247 822 l 247 278 q 292 145 247 192 q 417 99 336 99 m 514 1132 q 446 1147 472 1132 q 401 1181 419 1161 q 367 1215 383 1200 q 326 1229 350 1229 q 285 1181 285 1229 l 285 1139 l 194 1139 l 194 1181 q 229 1278 194 1243 q 319 1313 264 1313 q 388 1298 361 1313 q 432 1264 414 1283 q 467 1230 450 1244 q 507 1215 483 1215 q 549 1264 549 1215 l 549 1306 l 639 1306 l 639 1264 q 605 1167 639 1201 q 514 1132 571 1132 z "},"Œ":{"ha":833,"x_min":56,"x_max":799,"o":"m 271 -14 q 113 57 171 -14 q 56 250 56 128 l 56 764 q 113 957 56 886 q 271 1028 171 1028 q 351 1008 319 1028 q 401 959 383 988 q 424 903 419 931 l 431 903 l 431 1014 l 799 1014 l 799 900 l 553 900 l 553 581 l 764 581 l 764 467 l 553 467 l 553 114 l 799 114 l 799 0 l 431 0 l 431 111 l 424 111 q 401 56 419 85 q 351 6 383 26 q 271 -14 319 -14 m 306 97 q 397 138 364 97 q 431 250 431 179 l 431 764 q 397 876 431 835 q 306 917 364 917 q 214 876 247 917 q 181 764 181 835 l 181 250 q 214 138 181 179 q 306 97 247 97 z "},"P":{"ha":833,"x_min":128,"x_max":764,"o":"m 128 0 l 128 1014 l 454 1014 q 680 933 596 1014 q 764 715 764 851 q 680 498 764 579 q 454 417 596 417 l 253 417 l 253 0 l 128 0 m 253 529 l 454 529 q 585 580 536 529 q 635 715 635 631 q 585 851 635 801 q 454 901 536 901 l 253 901 l 253 529 z "},"Þ":{"ha":833,"x_min":125,"x_max":764,"o":"m 125 0 l 125 1014 l 250 1014 l 250 806 l 463 806 q 622 771 554 806 q 726 674 689 736 q 764 528 764 611 q 682 326 764 401 q 463 250 600 250 l 250 250 l 250 0 l 125 0 m 250 361 l 463 361 q 589 406 543 361 q 635 528 635 451 q 588 650 635 606 q 463 694 542 694 l 250 694 l 250 361 z "},"Q":{"ha":833,"x_min":111,"x_max":731,"o":"m 586 -250 l 443 -12 q 431 -13 438 -12 q 417 -14 424 -14 q 194 67 276 -14 q 111 285 111 149 l 111 729 q 194 947 111 865 q 417 1028 276 1028 q 640 947 557 1028 q 722 729 722 865 l 722 285 q 682 122 722 192 q 568 18 642 53 l 731 -250 l 586 -250 m 417 97 q 548 149 499 97 q 597 285 597 200 l 597 729 q 548 866 597 815 q 417 917 499 917 q 285 866 335 917 q 236 729 236 815 l 236 285 q 285 149 236 200 q 417 97 335 97 z "},"R":{"ha":833,"x_min":128,"x_max":757,"o":"m 128 0 l 128 1014 l 442 1014 q 600 977 532 1014 q 706 875 668 940 q 743 722 743 810 q 690 546 743 619 q 544 444 636 472 l 757 0 l 610 0 l 415 431 l 253 431 l 253 0 l 128 0 m 253 543 l 442 543 q 567 592 519 543 q 614 722 614 642 q 567 853 614 804 q 442 901 519 901 l 253 901 l 253 543 z "},"Ŕ":{"ha":833,"x_min":128,"x_max":757,"o":"m 128 0 l 128 1014 l 442 1014 q 600 977 532 1014 q 706 875 668 940 q 743 722 743 810 q 690 546 743 619 q 544 444 636 472 l 757 0 l 610 0 l 415 431 l 253 431 l 253 0 l 128 0 m 253 543 l 442 543 q 567 592 519 543 q 614 722 614 642 q 567 853 614 804 q 442 901 519 901 l 253 901 l 253 543 m 336 1125 l 483 1319 l 618 1319 l 464 1125 l 336 1125 z "},"Ř":{"ha":833,"x_min":128,"x_max":757,"o":"m 128 0 l 128 1014 l 442 1014 q 600 977 532 1014 q 706 875 668 940 q 743 722 743 810 q 690 546 743 619 q 544 444 636 472 l 757 0 l 610 0 l 415 431 l 253 431 l 253 0 l 128 0 m 253 543 l 442 543 q 567 592 519 543 q 614 722 614 642 q 567 853 614 804 q 442 901 519 901 l 253 901 l 253 543 m 360 1125 l 165 1319 l 303 1319 l 417 1211 l 528 1319 l 668 1319 l 475 1125 l 360 1125 z "},"Ŗ":{"ha":833,"x_min":128,"x_max":757,"o":"m 128 0 l 128 1014 l 442 1014 q 600 977 532 1014 q 706 875 668 940 q 743 722 743 810 q 690 546 743 619 q 544 444 636 472 l 757 0 l 610 0 l 415 431 l 253 431 l 253 0 l 128 0 m 253 543 l 442 543 q 567 592 519 543 q 614 722 614 642 q 567 853 614 804 q 442 901 519 901 l 253 901 l 253 543 m 264 -333 l 396 -132 l 542 -132 l 396 -333 l 264 -333 z "},"S":{"ha":833,"x_min":100,"x_max":733,"o":"m 422 -14 q 188 63 275 -14 q 100 267 100 139 l 225 267 q 279 144 225 190 q 422 97 333 97 q 560 144 508 97 q 611 267 611 190 q 580 372 611 326 q 494 433 549 417 l 344 481 q 185 586 243 513 q 128 757 128 660 q 209 954 128 881 q 425 1028 290 1028 q 640 954 560 1028 q 721 757 721 881 l 596 757 q 549 874 596 831 q 425 917 503 917 q 298 874 346 917 q 250 760 250 831 q 282 664 250 704 q 369 606 314 624 l 525 556 q 677 447 621 525 q 733 267 733 369 q 649 63 733 139 q 422 -14 564 -14 z "},"Ś":{"ha":833,"x_min":100,"x_max":733,"o":"m 422 -14 q 188 63 275 -14 q 100 267 100 139 l 225 267 q 279 144 225 190 q 422 97 333 97 q 560 144 508 97 q 611 267 611 190 q 580 372 611 326 q 494 433 549 417 l 344 481 q 185 586 243 513 q 128 757 128 660 q 209 954 128 881 q 425 1028 290 1028 q 640 954 560 1028 q 721 757 721 881 l 596 757 q 549 874 596 831 q 425 917 503 917 q 298 874 346 917 q 250 760 250 831 q 282 664 250 704 q 369 606 314 624 l 525 556 q 677 447 621 525 q 733 267 733 369 q 649 63 733 139 q 422 -14 564 -14 m 336 1125 l 483 1319 l 618 1319 l 464 1125 l 336 1125 z "},"Š":{"ha":833,"x_min":100,"x_max":733,"o":"m 422 -14 q 188 63 275 -14 q 100 267 100 139 l 225 267 q 279 144 225 190 q 422 97 333 97 q 560 144 508 97 q 611 267 611 190 q 580 372 611 326 q 494 433 549 417 l 344 481 q 185 586 243 513 q 128 757 128 660 q 209 954 128 881 q 425 1028 290 1028 q 640 954 560 1028 q 721 757 721 881 l 596 757 q 549 874 596 831 q 425 917 503 917 q 298 874 346 917 q 250 760 250 831 q 282 664 250 704 q 369 606 314 624 l 525 556 q 677 447 621 525 q 733 267 733 369 q 649 63 733 139 q 422 -14 564 -14 m 360 1125 l 165 1319 l 303 1319 l 417 1211 l 528 1319 l 668 1319 l 475 1125 l 360 1125 z "},"Ş":{"ha":833,"x_min":100,"x_max":733,"o":"m 285 -282 l 285 -206 l 382 -206 q 431 -190 413 -206 q 450 -156 450 -174 q 412 -114 450 -132 q 304 -96 374 -96 l 338 -7 q 164 86 228 14 q 100 267 100 158 l 225 267 q 279 144 225 190 q 422 97 333 97 q 560 144 508 97 q 611 267 611 190 q 580 372 611 326 q 494 433 549 417 l 344 481 q 185 586 243 513 q 128 757 128 660 q 209 954 128 881 q 425 1028 290 1028 q 640 954 560 1028 q 721 757 721 881 l 596 757 q 549 874 596 831 q 425 917 503 917 q 298 874 346 917 q 250 760 250 831 q 282 664 250 704 q 369 606 314 624 l 525 556 q 677 447 621 525 q 733 267 733 369 q 649 63 733 139 q 422 -14 564 -14 q 415 -14 418 -14 l 403 -49 q 478 -67 439 -53 q 543 -106 517 -81 q 569 -167 569 -131 q 524 -248 569 -214 q 403 -282 478 -282 l 285 -282 z "},"Ŝ":{"ha":833,"x_min":100,"x_max":733,"o":"m 422 -14 q 188 63 275 -14 q 100 267 100 139 l 225 267 q 279 144 225 190 q 422 97 333 97 q 560 144 508 97 q 611 267 611 190 q 580 372 611 326 q 494 433 549 417 l 344 481 q 185 586 243 513 q 128 757 128 660 q 209 954 128 881 q 425 1028 290 1028 q 640 954 560 1028 q 721 757 721 881 l 596 757 q 549 874 596 831 q 425 917 503 917 q 298 874 346 917 q 250 760 250 831 q 282 664 250 704 q 369 606 314 624 l 525 556 q 677 447 621 525 q 733 267 733 369 q 649 63 733 139 q 422 -14 564 -14 m 165 1125 l 358 1319 l 474 1319 l 668 1125 l 531 1125 l 417 1233 l 306 1125 l 165 1125 z "},"Ș":{"ha":833,"x_min":100,"x_max":733,"o":"m 422 -14 q 188 63 275 -14 q 100 267 100 139 l 225 267 q 279 144 225 190 q 422 97 333 97 q 560 144 508 97 q 611 267 611 190 q 580 372 611 326 q 494 433 549 417 l 344 481 q 185 586 243 513 q 128 757 128 660 q 209 954 128 881 q 425 1028 290 1028 q 640 954 560 1028 q 721 757 721 881 l 596 757 q 549 874 596 831 q 425 917 503 917 q 298 874 346 917 q 250 760 250 831 q 282 664 250 704 q 369 606 314 624 l 525 556 q 677 447 621 525 q 733 267 733 369 q 649 63 733 139 q 422 -14 564 -14 m 264 -333 l 396 -132 l 542 -132 l 396 -333 l 264 -333 z "},"ẞ":{"ha":833,"x_min":128,"x_max":750,"o":"m 128 0 l 128 728 q 164 878 128 814 q 266 978 200 943 q 419 1014 332 1014 l 735 1014 l 735 892 l 510 588 q 684 503 618 581 q 750 299 750 425 q 713 142 750 210 q 608 38 675 75 q 451 0 542 0 l 358 0 l 358 114 l 438 114 q 569 164 521 114 q 618 299 618 214 q 569 431 618 382 q 438 479 521 479 l 375 479 l 375 588 l 603 900 l 419 900 q 298 854 343 900 q 253 728 253 808 l 253 0 l 128 0 z "},"Ə":{"ha":833,"x_min":125,"x_max":708,"o":"m 417 -14 q 203 66 282 -14 q 125 278 125 146 l 125 556 l 583 556 l 583 738 q 541 870 583 824 q 417 917 499 917 q 293 869 336 917 q 250 736 250 822 l 125 736 q 203 949 125 871 q 417 1028 281 1028 q 632 950 556 1028 q 708 736 708 872 l 708 278 q 631 66 708 146 q 417 -14 553 -14 m 417 90 q 543 139 503 90 q 583 278 583 188 l 583 458 l 250 458 l 250 278 q 291 139 250 188 q 417 90 332 90 z "},"T":{"ha":833,"x_min":76,"x_max":757,"o":"m 354 0 l 354 900 l 76 900 l 76 1014 l 757 1014 l 757 900 l 479 900 l 479 0 l 354 0 z "},"Ŧ":{"ha":833,"x_min":76,"x_max":757,"o":"m 354 0 l 354 410 l 153 410 l 153 514 l 354 514 l 354 900 l 76 900 l 76 1014 l 757 1014 l 757 900 l 479 900 l 479 514 l 681 514 l 681 410 l 479 410 l 479 0 l 354 0 z "},"Ť":{"ha":833,"x_min":76,"x_max":757,"o":"m 354 0 l 354 900 l 76 900 l 76 1014 l 757 1014 l 757 900 l 479 900 l 479 0 l 354 0 m 360 1125 l 165 1319 l 303 1319 l 417 1211 l 528 1319 l 668 1319 l 475 1125 l 360 1125 z "},"Ţ":{"ha":833,"x_min":76,"x_max":757,"o":"m 354 0 l 354 900 l 76 900 l 76 1014 l 757 1014 l 757 900 l 479 900 l 479 0 l 463 -49 q 538 -67 499 -53 q 603 -106 576 -81 q 629 -167 629 -131 q 583 -248 629 -214 q 463 -282 538 -282 l 344 -282 l 344 -206 l 442 -206 q 491 -190 472 -206 q 510 -156 510 -174 q 472 -114 510 -132 q 364 -96 433 -96 l 399 0 l 354 0 z "},"Ț":{"ha":833,"x_min":76,"x_max":757,"o":"m 354 0 l 354 900 l 76 900 l 76 1014 l 757 1014 l 757 900 l 479 900 l 479 0 l 354 0 m 264 -333 l 396 -132 l 542 -132 l 396 -333 l 264 -333 z "},"U":{"ha":833,"x_min":125,"x_max":708,"o":"m 417 -14 q 200 65 275 -14 q 125 278 125 143 l 125 1014 l 250 1014 l 250 278 q 291 146 250 194 q 417 97 332 97 q 542 146 500 97 q 583 278 583 194 l 583 1014 l 708 1014 l 708 278 q 634 64 708 142 q 417 -14 560 -14 z "},"Ú":{"ha":833,"x_min":125,"x_max":708,"o":"m 417 -14 q 200 65 275 -14 q 125 278 125 143 l 125 1014 l 250 1014 l 250 278 q 291 146 250 194 q 417 97 332 97 q 542 146 500 97 q 583 278 583 194 l 583 1014 l 708 1014 l 708 278 q 634 64 708 142 q 417 -14 560 -14 m 336 1125 l 483 1319 l 618 1319 l 464 1125 l 336 1125 z "},"Ŭ":{"ha":833,"x_min":125,"x_max":708,"o":"m 417 -14 q 200 65 275 -14 q 125 278 125 143 l 125 1014 l 250 1014 l 250 278 q 291 146 250 194 q 417 97 332 97 q 542 146 500 97 q 583 278 583 194 l 583 1014 l 708 1014 l 708 278 q 634 64 708 142 q 417 -14 560 -14 m 417 1118 q 256 1174 317 1118 q 194 1319 194 1229 l 293 1319 q 326 1232 293 1265 q 415 1199 360 1199 q 506 1232 472 1199 q 540 1319 540 1265 l 639 1319 q 578 1174 639 1229 q 417 1118 517 1118 z "},"Û":{"ha":833,"x_min":125,"x_max":708,"o":"m 417 -14 q 200 65 275 -14 q 125 278 125 143 l 125 1014 l 250 1014 l 250 278 q 291 146 250 194 q 417 97 332 97 q 542 146 500 97 q 583 278 583 194 l 583 1014 l 708 1014 l 708 278 q 634 64 708 142 q 417 -14 560 -14 m 165 1125 l 358 1319 l 474 1319 l 668 1125 l 531 1125 l 417 1233 l 306 1125 l 165 1125 z "},"Ü":{"ha":833,"x_min":125,"x_max":708,"o":"m 417 -14 q 200 65 275 -14 q 125 278 125 143 l 125 1014 l 250 1014 l 250 278 q 291 146 250 194 q 417 97 332 97 q 542 146 500 97 q 583 278 583 194 l 583 1014 l 708 1014 l 708 278 q 634 64 708 142 q 417 -14 560 -14 m 571 1135 q 506 1158 531 1135 q 482 1222 482 1182 q 506 1288 482 1264 q 571 1313 531 1313 q 635 1288 611 1313 q 660 1222 660 1264 q 635 1158 660 1182 q 571 1135 611 1135 m 263 1135 q 198 1158 222 1135 q 174 1222 174 1182 q 198 1288 174 1264 q 263 1313 222 1313 q 327 1288 303 1313 q 351 1222 351 1264 q 327 1158 351 1182 q 263 1135 303 1135 z "},"Ụ":{"ha":833,"x_min":125,"x_max":708,"o":"m 417 -14 q 200 65 275 -14 q 125 278 125 143 l 125 1014 l 250 1014 l 250 278 q 291 146 250 194 q 417 97 332 97 q 542 146 500 97 q 583 278 583 194 l 583 1014 l 708 1014 l 708 278 q 634 64 708 142 q 417 -14 560 -14 m 417 -296 q 344 -272 371 -296 q 318 -208 318 -249 q 344 -142 318 -167 q 417 -118 371 -118 q 489 -142 463 -118 q 515 -208 515 -167 q 489 -272 515 -249 q 417 -296 463 -296 z "},"Ù":{"ha":833,"x_min":125,"x_max":708,"o":"m 417 -14 q 200 65 275 -14 q 125 278 125 143 l 125 1014 l 250 1014 l 250 278 q 291 146 250 194 q 417 97 332 97 q 542 146 500 97 q 583 278 583 194 l 583 1014 l 708 1014 l 708 278 q 634 64 708 142 q 417 -14 560 -14 m 371 1125 l 211 1319 l 350 1319 l 503 1125 l 371 1125 z "},"Ủ":{"ha":833,"x_min":125,"x_max":708,"o":"m 417 -14 q 200 65 275 -14 q 125 278 125 143 l 125 1014 l 250 1014 l 250 278 q 291 146 250 194 q 417 97 332 97 q 542 146 500 97 q 583 278 583 194 l 583 1014 l 708 1014 l 708 278 q 634 64 708 142 q 417 -14 560 -14 m 358 1111 l 421 1199 q 440 1243 440 1226 q 396 1271 440 1271 l 292 1271 l 292 1361 l 403 1361 q 508 1333 468 1361 q 549 1257 549 1304 q 525 1183 549 1218 l 476 1111 l 358 1111 z "},"Ư":{"ha":833,"x_min":125,"x_max":826,"o":"m 417 -14 q 200 65 275 -14 q 125 278 125 143 l 125 1014 l 250 1014 l 250 278 q 291 146 250 194 q 417 97 332 97 q 542 146 500 97 q 583 278 583 194 l 583 1014 l 674 1014 q 709 1027 696 1014 q 722 1063 722 1040 l 722 1167 l 826 1167 l 826 1056 q 794 967 826 1001 q 708 925 763 933 l 708 278 q 634 64 708 142 q 417 -14 560 -14 z "},"Ứ":{"ha":833,"x_min":125,"x_max":826,"o":"m 417 -14 q 200 65 275 -14 q 125 278 125 143 l 125 1014 l 250 1014 l 250 278 q 291 146 250 194 q 417 97 332 97 q 542 146 500 97 q 583 278 583 194 l 583 1014 l 674 1014 q 709 1027 696 1014 q 722 1063 722 1040 l 722 1167 l 826 1167 l 826 1056 q 794 967 826 1001 q 708 925 763 933 l 708 278 q 634 64 708 142 q 417 -14 560 -14 m 336 1125 l 483 1319 l 618 1319 l 464 1125 l 336 1125 z "},"Ự":{"ha":833,"x_min":125,"x_max":826,"o":"m 417 -14 q 200 65 275 -14 q 125 278 125 143 l 125 1014 l 250 1014 l 250 278 q 291 146 250 194 q 417 97 332 97 q 542 146 500 97 q 583 278 583 194 l 583 1014 l 674 1014 q 709 1027 696 1014 q 722 1063 722 1040 l 722 1167 l 826 1167 l 826 1056 q 794 967 826 1001 q 708 925 763 933 l 708 278 q 634 64 708 142 q 417 -14 560 -14 m 417 -296 q 344 -272 371 -296 q 318 -208 318 -249 q 344 -142 318 -167 q 417 -118 371 -118 q 489 -142 463 -118 q 515 -208 515 -167 q 489 -272 515 -249 q 417 -296 463 -296 z "},"Ừ":{"ha":833,"x_min":125,"x_max":826,"o":"m 417 -14 q 200 65 275 -14 q 125 278 125 143 l 125 1014 l 250 1014 l 250 278 q 291 146 250 194 q 417 97 332 97 q 542 146 500 97 q 583 278 583 194 l 583 1014 l 674 1014 q 709 1027 696 1014 q 722 1063 722 1040 l 722 1167 l 826 1167 l 826 1056 q 794 967 826 1001 q 708 925 763 933 l 708 278 q 634 64 708 142 q 417 -14 560 -14 m 371 1125 l 211 1319 l 350 1319 l 503 1125 l 371 1125 z "},"Ử":{"ha":833,"x_min":125,"x_max":826,"o":"m 417 -14 q 200 65 275 -14 q 125 278 125 143 l 125 1014 l 250 1014 l 250 278 q 291 146 250 194 q 417 97 332 97 q 542 146 500 97 q 583 278 583 194 l 583 1014 l 674 1014 q 709 1027 696 1014 q 722 1063 722 1040 l 722 1167 l 826 1167 l 826 1056 q 794 967 826 1001 q 708 925 763 933 l 708 278 q 634 64 708 142 q 417 -14 560 -14 m 358 1111 l 421 1199 q 440 1243 440 1226 q 396 1271 440 1271 l 292 1271 l 292 1361 l 403 1361 q 508 1333 468 1361 q 549 1257 549 1304 q 525 1183 549 1218 l 476 1111 l 358 1111 z "},"Ữ":{"ha":833,"x_min":125,"x_max":826,"o":"m 417 -14 q 200 65 275 -14 q 125 278 125 143 l 125 1014 l 250 1014 l 250 278 q 291 146 250 194 q 417 97 332 97 q 542 146 500 97 q 583 278 583 194 l 583 1014 l 674 1014 q 709 1027 696 1014 q 722 1063 722 1040 l 722 1167 l 826 1167 l 826 1056 q 794 967 826 1001 q 708 925 763 933 l 708 278 q 634 64 708 142 q 417 -14 560 -14 m 514 1132 q 446 1147 472 1132 q 401 1181 419 1161 q 367 1215 383 1200 q 326 1229 350 1229 q 285 1181 285 1229 l 285 1139 l 194 1139 l 194 1181 q 229 1278 194 1243 q 319 1313 264 1313 q 388 1298 361 1313 q 432 1264 414 1283 q 467 1230 450 1244 q 507 1215 483 1215 q 549 1264 549 1215 l 549 1306 l 639 1306 l 639 1264 q 605 1167 639 1201 q 514 1132 571 1132 z "},"Ű":{"ha":833,"x_min":125,"x_max":733,"o":"m 417 -14 q 200 65 275 -14 q 125 278 125 143 l 125 1014 l 250 1014 l 250 278 q 291 146 250 194 q 417 97 332 97 q 542 146 500 97 q 583 278 583 194 l 583 1014 l 708 1014 l 708 278 q 634 64 708 142 q 417 -14 560 -14 m 453 1125 l 606 1319 l 733 1319 l 574 1125 l 453 1125 m 204 1125 l 357 1319 l 485 1319 l 325 1125 l 204 1125 z "},"Ū":{"ha":833,"x_min":125,"x_max":708,"o":"m 417 -14 q 200 65 275 -14 q 125 278 125 143 l 125 1014 l 250 1014 l 250 278 q 291 146 250 194 q 417 97 332 97 q 542 146 500 97 q 583 278 583 194 l 583 1014 l 708 1014 l 708 278 q 634 64 708 142 q 417 -14 560 -14 m 194 1167 l 194 1271 l 639 1271 l 639 1167 l 194 1167 z "},"Ų":{"ha":833,"x_min":125,"x_max":708,"o":"m 526 -282 q 403 -245 450 -282 q 357 -153 357 -208 q 435 -14 357 -89 l 417 -14 q 203 64 281 -14 q 125 278 125 142 l 125 1014 l 250 1014 l 250 278 q 293 145 250 192 q 417 99 336 99 q 541 145 499 99 q 583 278 583 192 l 583 1014 l 708 1014 l 708 278 q 597 35 708 110 l 557 1 q 493 -69 511 -37 q 475 -129 475 -100 q 496 -179 475 -160 q 551 -199 517 -199 l 635 -199 l 635 -282 l 526 -282 z "},"Ů":{"ha":833,"x_min":125,"x_max":708,"o":"m 417 -14 q 200 65 275 -14 q 125 278 125 143 l 125 1014 l 250 1014 l 250 278 q 291 146 250 194 q 417 97 332 97 q 542 146 500 97 q 583 278 583 194 l 583 1014 l 708 1014 l 708 278 q 634 64 708 142 q 417 -14 560 -14 m 417 1064 q 296 1108 342 1064 q 250 1222 250 1151 q 296 1337 250 1293 q 417 1381 342 1381 q 538 1337 492 1381 q 583 1222 583 1293 q 538 1108 583 1151 q 417 1064 492 1064 m 417 1138 q 477 1160 454 1138 q 500 1222 500 1183 q 477 1285 500 1261 q 417 1308 454 1308 q 356 1285 379 1308 q 333 1222 333 1261 q 356 1160 333 1183 q 417 1138 379 1138 z "},"Ũ":{"ha":833,"x_min":125,"x_max":708,"o":"m 417 -14 q 200 65 275 -14 q 125 278 125 143 l 125 1014 l 250 1014 l 250 278 q 291 146 250 194 q 417 97 332 97 q 542 146 500 97 q 583 278 583 194 l 583 1014 l 708 1014 l 708 278 q 634 64 708 142 q 417 -14 560 -14 m 514 1132 q 446 1147 472 1132 q 401 1181 419 1161 q 367 1215 383 1200 q 326 1229 350 1229 q 285 1181 285 1229 l 285 1139 l 194 1139 l 194 1181 q 229 1278 194 1243 q 319 1313 264 1313 q 388 1298 361 1313 q 432 1264 414 1283 q 467 1230 450 1244 q 507 1215 483 1215 q 549 1264 549 1215 l 549 1306 l 639 1306 l 639 1264 q 605 1167 639 1201 q 514 1132 571 1132 z "},"V":{"ha":833,"x_min":69,"x_max":764,"o":"m 331 0 l 69 1014 l 197 1014 l 371 324 q 401 190 389 251 q 418 97 413 129 q 437 191 424 129 q 468 325 450 253 l 635 1014 l 764 1014 l 501 0 l 331 0 z "},"W":{"ha":833,"x_min":35,"x_max":799,"o":"m 151 0 l 35 1014 l 154 1014 l 231 264 q 238 169 235 218 q 243 90 242 119 q 251 169 246 119 q 261 264 256 218 l 356 1014 l 485 1014 l 571 264 q 582 169 576 218 q 590 90 588 119 q 597 169 593 119 q 606 264 600 218 l 685 1014 l 799 1014 l 679 0 l 522 0 l 436 764 q 426 856 431 811 q 419 926 422 901 q 412 856 417 901 q 401 764 407 811 l 308 0 l 151 0 z "},"Ẃ":{"ha":833,"x_min":35,"x_max":799,"o":"m 151 0 l 35 1014 l 154 1014 l 231 264 q 238 169 235 218 q 243 90 242 119 q 251 169 246 119 q 261 264 256 218 l 356 1014 l 485 1014 l 571 264 q 582 169 576 218 q 590 90 588 119 q 597 169 593 119 q 606 264 600 218 l 685 1014 l 799 1014 l 679 0 l 522 0 l 436 764 q 426 856 431 811 q 419 926 422 901 q 412 856 417 901 q 401 764 407 811 l 308 0 l 151 0 m 336 1125 l 483 1319 l 618 1319 l 464 1125 l 336 1125 z "},"Ŵ":{"ha":833,"x_min":35,"x_max":799,"o":"m 151 0 l 35 1014 l 154 1014 l 231 264 q 238 169 235 218 q 243 90 242 119 q 251 169 246 119 q 261 264 256 218 l 356 1014 l 485 1014 l 571 264 q 582 169 576 218 q 590 90 588 119 q 597 169 593 119 q 606 264 600 218 l 685 1014 l 799 1014 l 679 0 l 522 0 l 436 764 q 426 856 431 811 q 419 926 422 901 q 412 856 417 901 q 401 764 407 811 l 308 0 l 151 0 m 165 1125 l 358 1319 l 474 1319 l 668 1125 l 531 1125 l 417 1233 l 306 1125 l 165 1125 z "},"Ẅ":{"ha":833,"x_min":35,"x_max":799,"o":"m 151 0 l 35 1014 l 154 1014 l 231 264 q 238 169 235 218 q 243 90 242 119 q 251 169 246 119 q 261 264 256 218 l 356 1014 l 485 1014 l 571 264 q 582 169 576 218 q 590 90 588 119 q 597 169 593 119 q 606 264 600 218 l 685 1014 l 799 1014 l 679 0 l 522 0 l 436 764 q 426 856 431 811 q 419 926 422 901 q 412 856 417 901 q 401 764 407 811 l 308 0 l 151 0 m 571 1135 q 506 1158 531 1135 q 482 1222 482 1182 q 506 1288 482 1264 q 571 1313 531 1313 q 635 1288 611 1313 q 660 1222 660 1264 q 635 1158 660 1182 q 571 1135 611 1135 m 263 1135 q 198 1158 222 1135 q 174 1222 174 1182 q 198 1288 174 1264 q 263 1313 222 1313 q 327 1288 303 1313 q 351 1222 351 1264 q 327 1158 351 1182 q 263 1135 303 1135 z "},"Ẁ":{"ha":833,"x_min":35,"x_max":799,"o":"m 151 0 l 35 1014 l 154 1014 l 231 264 q 238 169 235 218 q 243 90 242 119 q 251 169 246 119 q 261 264 256 218 l 356 1014 l 485 1014 l 571 264 q 582 169 576 218 q 590 90 588 119 q 597 169 593 119 q 606 264 600 218 l 685 1014 l 799 1014 l 679 0 l 522 0 l 436 764 q 426 856 431 811 q 419 926 422 901 q 412 856 417 901 q 401 764 407 811 l 308 0 l 151 0 m 371 1125 l 211 1319 l 350 1319 l 503 1125 l 371 1125 z "},"X":{"ha":833,"x_min":56,"x_max":778,"o":"m 56 0 l 347 514 l 71 1014 l 215 1014 l 372 714 q 398 663 385 690 q 419 621 411 636 q 440 663 426 636 q 465 714 453 690 l 625 1014 l 763 1014 l 486 522 l 778 0 l 635 0 l 461 322 q 435 373 449 346 q 415 417 422 400 q 395 374 408 400 q 369 324 382 347 l 194 0 l 56 0 z "},"Y":{"ha":833,"x_min":49,"x_max":785,"o":"m 354 0 l 354 379 l 49 1014 l 178 1014 l 379 597 q 406 538 396 563 q 418 503 415 514 q 431 538 421 514 q 458 597 442 563 l 656 1014 l 785 1014 l 479 379 l 479 0 l 354 0 z "},"Ý":{"ha":833,"x_min":49,"x_max":785,"o":"m 354 0 l 354 379 l 49 1014 l 178 1014 l 379 597 q 406 538 396 563 q 418 503 415 514 q 431 538 421 514 q 458 597 442 563 l 656 1014 l 785 1014 l 479 379 l 479 0 l 354 0 m 336 1125 l 483 1319 l 618 1319 l 464 1125 l 336 1125 z "},"Ŷ":{"ha":833,"x_min":49,"x_max":785,"o":"m 354 0 l 354 379 l 49 1014 l 178 1014 l 379 597 q 406 538 396 563 q 418 503 415 514 q 431 538 421 514 q 458 597 442 563 l 656 1014 l 785 1014 l 479 379 l 479 0 l 354 0 m 165 1125 l 358 1319 l 474 1319 l 668 1125 l 531 1125 l 417 1233 l 306 1125 l 165 1125 z "},"Ÿ":{"ha":833,"x_min":49,"x_max":785,"o":"m 354 0 l 354 379 l 49 1014 l 178 1014 l 379 597 q 406 538 396 563 q 418 503 415 514 q 431 538 421 514 q 458 597 442 563 l 656 1014 l 785 1014 l 479 379 l 479 0 l 354 0 m 571 1135 q 506 1158 531 1135 q 482 1222 482 1182 q 506 1288 482 1264 q 571 1313 531 1313 q 635 1288 611 1313 q 660 1222 660 1264 q 635 1158 660 1182 q 571 1135 611 1135 m 263 1135 q 198 1158 222 1135 q 174 1222 174 1182 q 198 1288 174 1264 q 263 1313 222 1313 q 327 1288 303 1313 q 351 1222 351 1264 q 327 1158 351 1182 q 263 1135 303 1135 z "},"Ỵ":{"ha":833,"x_min":49,"x_max":785,"o":"m 354 0 l 354 379 l 49 1014 l 178 1014 l 379 597 q 406 538 396 563 q 418 503 415 514 q 431 538 421 514 q 458 597 442 563 l 656 1014 l 785 1014 l 479 379 l 479 0 l 354 0 m 417 -296 q 344 -272 371 -296 q 318 -208 318 -249 q 344 -142 318 -167 q 417 -118 371 -118 q 489 -142 463 -118 q 515 -208 515 -167 q 489 -272 515 -249 q 417 -296 463 -296 z "},"Ỳ":{"ha":833,"x_min":49,"x_max":785,"o":"m 354 0 l 354 379 l 49 1014 l 178 1014 l 379 597 q 406 538 396 563 q 418 503 415 514 q 431 538 421 514 q 458 597 442 563 l 656 1014 l 785 1014 l 479 379 l 479 0 l 354 0 m 371 1125 l 211 1319 l 350 1319 l 503 1125 l 371 1125 z "},"Ỷ":{"ha":833,"x_min":49,"x_max":785,"o":"m 354 0 l 354 379 l 49 1014 l 178 1014 l 379 597 q 406 538 396 563 q 418 503 415 514 q 431 538 421 514 q 458 597 442 563 l 656 1014 l 785 1014 l 479 379 l 479 0 l 354 0 m 358 1111 l 421 1199 q 440 1243 440 1226 q 396 1271 440 1271 l 292 1271 l 292 1361 l 403 1361 q 508 1333 468 1361 q 549 1257 549 1304 q 525 1183 549 1218 l 476 1111 l 358 1111 z "},"Ȳ":{"ha":833,"x_min":49,"x_max":785,"o":"m 354 0 l 354 379 l 49 1014 l 178 1014 l 379 597 q 406 538 396 563 q 418 503 415 514 q 431 538 421 514 q 458 597 442 563 l 656 1014 l 785 1014 l 479 379 l 479 0 l 354 0 m 194 1167 l 194 1271 l 639 1271 l 639 1167 l 194 1167 z "},"Ỹ":{"ha":833,"x_min":49,"x_max":785,"o":"m 354 0 l 354 379 l 49 1014 l 178 1014 l 379 597 q 406 538 396 563 q 418 503 415 514 q 431 538 421 514 q 458 597 442 563 l 656 1014 l 785 1014 l 479 379 l 479 0 l 354 0 m 514 1132 q 446 1147 472 1132 q 401 1181 419 1161 q 367 1215 383 1200 q 326 1229 350 1229 q 285 1181 285 1229 l 285 1139 l 194 1139 l 194 1181 q 229 1278 194 1243 q 319 1313 264 1313 q 388 1298 361 1313 q 432 1264 414 1283 q 467 1230 450 1244 q 507 1215 483 1215 q 549 1264 549 1215 l 549 1306 l 639 1306 l 639 1264 q 605 1167 639 1201 q 514 1132 571 1132 z "},"Z":{"ha":833,"x_min":118,"x_max":715,"o":"m 118 0 l 118 125 l 575 900 l 125 900 l 125 1014 l 701 1014 l 701 889 l 244 114 l 715 114 l 715 0 l 118 0 z "},"Ź":{"ha":833,"x_min":118,"x_max":715,"o":"m 118 0 l 118 125 l 575 900 l 125 900 l 125 1014 l 701 1014 l 701 889 l 244 114 l 715 114 l 715 0 l 118 0 m 336 1125 l 483 1319 l 618 1319 l 464 1125 l 336 1125 z "},"Ž":{"ha":833,"x_min":118,"x_max":715,"o":"m 118 0 l 118 125 l 575 900 l 125 900 l 125 1014 l 701 1014 l 701 889 l 244 114 l 715 114 l 715 0 l 118 0 m 360 1125 l 165 1319 l 303 1319 l 417 1211 l 528 1319 l 668 1319 l 475 1125 l 360 1125 z "},"Ż":{"ha":833,"x_min":118,"x_max":715,"o":"m 118 0 l 118 125 l 575 900 l 125 900 l 125 1014 l 701 1014 l 701 889 l 244 114 l 715 114 l 715 0 l 118 0 m 417 1133 q 344 1158 371 1133 q 318 1222 318 1182 q 344 1287 318 1263 q 417 1311 371 1311 q 489 1287 463 1311 q 515 1222 515 1263 q 489 1158 515 1182 q 417 1133 463 1133 z "},"a":{"ha":833,"x_min":90,"x_max":708,"o":"m 350 -14 q 160 48 229 -14 q 90 215 90 110 q 160 383 90 322 q 347 444 229 444 l 583 444 l 583 521 q 541 629 583 590 q 424 668 499 668 q 311 639 357 668 q 254 563 265 610 l 129 563 q 176 675 136 626 q 280 751 215 724 q 424 778 344 778 q 632 710 556 778 q 708 525 708 642 l 708 0 l 586 0 l 586 146 l 585 146 q 513 29 576 72 q 350 -14 450 -14 m 381 85 q 526 129 469 85 q 583 243 583 174 l 583 351 l 350 351 q 251 317 288 351 q 215 222 215 282 q 259 122 215 158 q 381 85 303 85 z "},"á":{"ha":833,"x_min":90,"x_max":708,"o":"m 350 -14 q 160 48 229 -14 q 90 215 90 110 q 160 383 90 322 q 347 444 229 444 l 583 444 l 583 521 q 541 629 583 590 q 424 668 499 668 q 311 639 357 668 q 254 563 265 610 l 129 563 q 176 675 136 626 q 280 751 215 724 q 424 778 344 778 q 632 710 556 778 q 708 525 708 642 l 708 0 l 586 0 l 586 146 l 585 146 q 513 29 576 72 q 350 -14 450 -14 m 381 85 q 526 129 469 85 q 583 243 583 174 l 583 351 l 350 351 q 251 317 288 351 q 215 222 215 282 q 259 122 215 158 q 381 85 303 85 m 343 896 l 490 1090 l 625 1090 l 471 896 l 343 896 z "},"ă":{"ha":833,"x_min":90,"x_max":708,"o":"m 350 -14 q 160 48 229 -14 q 90 215 90 110 q 160 383 90 322 q 347 444 229 444 l 583 444 l 583 521 q 541 629 583 590 q 424 668 499 668 q 311 639 357 668 q 254 563 265 610 l 129 563 q 176 675 136 626 q 280 751 215 724 q 424 778 344 778 q 632 710 556 778 q 708 525 708 642 l 708 0 l 586 0 l 586 146 l 585 146 q 513 29 576 72 q 350 -14 450 -14 m 381 85 q 526 129 469 85 q 583 243 583 174 l 583 351 l 350 351 q 251 317 288 351 q 215 222 215 282 q 259 122 215 158 q 381 85 303 85 m 424 889 q 263 944 324 889 q 201 1090 201 1000 l 300 1090 q 333 1003 300 1036 q 422 969 367 969 q 513 1003 479 969 q 547 1090 547 1036 l 646 1090 q 585 944 646 1000 q 424 889 524 889 z "},"ắ":{"ha":833,"x_min":90,"x_max":708,"o":"m 350 -14 q 160 48 229 -14 q 90 215 90 110 q 160 383 90 322 q 347 444 229 444 l 583 444 l 583 521 q 541 629 583 590 q 424 668 499 668 q 311 639 357 668 q 254 563 265 610 l 129 563 q 176 675 136 626 q 280 751 215 724 q 424 778 344 778 q 632 710 556 778 q 708 525 708 642 l 708 0 l 586 0 l 586 146 l 585 146 q 513 29 576 72 q 350 -14 450 -14 m 381 85 q 526 129 469 85 q 583 243 583 174 l 583 351 l 350 351 q 251 317 288 351 q 215 222 215 282 q 259 122 215 158 q 381 85 303 85 m 336 1056 l 496 1236 l 629 1236 l 463 1056 l 336 1056 m 424 889 q 253 939 318 889 q 188 1069 188 989 l 285 1069 q 323 999 285 1026 q 424 972 361 972 q 524 999 486 972 q 563 1069 563 1026 l 660 1069 q 595 939 660 989 q 424 889 531 889 z "},"ặ":{"ha":833,"x_min":90,"x_max":708,"o":"m 350 -14 q 160 48 229 -14 q 90 215 90 110 q 160 383 90 322 q 347 444 229 444 l 583 444 l 583 521 q 541 629 583 590 q 424 668 499 668 q 311 639 357 668 q 254 563 265 610 l 129 563 q 176 675 136 626 q 280 751 215 724 q 424 778 344 778 q 632 710 556 778 q 708 525 708 642 l 708 0 l 586 0 l 586 146 l 585 146 q 513 29 576 72 q 350 -14 450 -14 m 381 85 q 526 129 469 85 q 583 243 583 174 l 583 351 l 350 351 q 251 317 288 351 q 215 222 215 282 q 259 122 215 158 q 381 85 303 85 m 424 -296 q 351 -272 378 -296 q 325 -208 325 -249 q 351 -142 325 -167 q 424 -118 378 -118 q 496 -142 469 -118 q 522 -208 522 -167 q 496 -272 522 -249 q 424 -296 469 -296 m 424 889 q 263 944 324 889 q 201 1090 201 1000 l 300 1090 q 333 1003 300 1036 q 422 969 367 969 q 513 1003 479 969 q 547 1090 547 1036 l 646 1090 q 585 944 646 1000 q 424 889 524 889 z "},"ằ":{"ha":833,"x_min":90,"x_max":708,"o":"m 350 -14 q 160 48 229 -14 q 90 215 90 110 q 160 383 90 322 q 347 444 229 444 l 583 444 l 583 521 q 541 629 583 590 q 424 668 499 668 q 311 639 357 668 q 254 563 265 610 l 129 563 q 176 675 136 626 q 280 751 215 724 q 424 778 344 778 q 632 710 556 778 q 708 525 708 642 l 708 0 l 586 0 l 586 146 l 585 146 q 513 29 576 72 q 350 -14 450 -14 m 381 85 q 526 129 469 85 q 583 243 583 174 l 583 351 l 350 351 q 251 317 288 351 q 215 222 215 282 q 259 122 215 158 q 381 85 303 85 m 385 1056 l 218 1236 l 351 1236 l 511 1056 l 385 1056 m 424 889 q 253 939 318 889 q 188 1069 188 989 l 285 1069 q 323 999 285 1026 q 424 972 361 972 q 524 999 486 972 q 563 1069 563 1026 l 660 1069 q 595 939 660 989 q 424 889 531 889 z "},"ẳ":{"ha":833,"x_min":90,"x_max":708,"o":"m 350 -14 q 160 48 229 -14 q 90 215 90 110 q 160 383 90 322 q 347 444 229 444 l 583 444 l 583 521 q 541 629 583 590 q 424 668 499 668 q 311 639 357 668 q 254 563 265 610 l 129 563 q 176 675 136 626 q 280 751 215 724 q 424 778 344 778 q 632 710 556 778 q 708 525 708 642 l 708 0 l 586 0 l 586 146 l 585 146 q 513 29 576 72 q 350 -14 450 -14 m 381 85 q 526 129 469 85 q 583 243 583 174 l 583 351 l 350 351 q 251 317 288 351 q 215 222 215 282 q 259 122 215 158 q 381 85 303 85 m 358 1056 l 421 1140 q 433 1175 433 1157 q 396 1208 433 1208 l 319 1208 l 319 1292 l 410 1292 q 505 1265 469 1292 q 540 1193 540 1238 q 534 1158 540 1175 q 517 1125 528 1140 l 468 1056 l 358 1056 m 424 889 q 253 939 318 889 q 188 1069 188 989 l 285 1069 q 323 999 285 1026 q 424 972 361 972 q 524 999 486 972 q 563 1069 563 1026 l 660 1069 q 595 939 660 989 q 424 889 531 889 z "},"ẵ":{"ha":833,"x_min":90,"x_max":708,"o":"m 350 -14 q 160 48 229 -14 q 90 215 90 110 q 160 383 90 322 q 347 444 229 444 l 583 444 l 583 521 q 541 629 583 590 q 424 668 499 668 q 311 639 357 668 q 254 563 265 610 l 129 563 q 176 675 136 626 q 280 751 215 724 q 424 778 344 778 q 632 710 556 778 q 708 525 708 642 l 708 0 l 586 0 l 586 146 l 585 146 q 513 29 576 72 q 350 -14 450 -14 m 381 85 q 526 129 469 85 q 583 243 583 174 l 583 351 l 350 351 q 251 317 288 351 q 215 222 215 282 q 259 122 215 158 q 381 85 303 85 m 515 1128 q 447 1141 472 1128 q 404 1172 421 1154 q 372 1202 388 1189 q 333 1215 357 1215 q 292 1174 292 1215 l 292 1139 l 201 1139 l 201 1167 q 238 1256 201 1222 q 332 1289 274 1289 q 402 1276 376 1289 q 444 1245 428 1263 q 475 1215 460 1228 q 514 1201 490 1201 q 556 1243 556 1201 l 556 1278 l 646 1278 l 646 1250 q 610 1161 646 1194 q 515 1128 574 1128 m 424 896 q 263 946 324 896 q 201 1076 201 996 l 292 1076 q 328 1006 292 1033 q 422 978 364 978 q 519 1006 482 978 q 556 1076 556 1033 l 646 1076 q 585 946 646 996 q 424 896 524 896 z "},"ǎ":{"ha":833,"x_min":90,"x_max":708,"o":"m 350 -14 q 160 48 229 -14 q 90 215 90 110 q 160 383 90 322 q 347 444 229 444 l 583 444 l 583 521 q 541 629 583 590 q 424 668 499 668 q 311 639 357 668 q 254 563 265 610 l 129 563 q 176 675 136 626 q 280 751 215 724 q 424 778 344 778 q 632 710 556 778 q 708 525 708 642 l 708 0 l 586 0 l 586 146 l 585 146 q 513 29 576 72 q 350 -14 450 -14 m 381 85 q 526 129 469 85 q 583 243 583 174 l 583 351 l 350 351 q 251 317 288 351 q 215 222 215 282 q 259 122 215 158 q 381 85 303 85 m 367 896 l 172 1090 l 310 1090 l 424 982 l 535 1090 l 675 1090 l 482 896 l 367 896 z "},"â":{"ha":833,"x_min":90,"x_max":708,"o":"m 350 -14 q 160 48 229 -14 q 90 215 90 110 q 160 383 90 322 q 347 444 229 444 l 583 444 l 583 521 q 541 629 583 590 q 424 668 499 668 q 311 639 357 668 q 254 563 265 610 l 129 563 q 176 675 136 626 q 280 751 215 724 q 424 778 344 778 q 632 710 556 778 q 708 525 708 642 l 708 0 l 586 0 l 586 146 l 585 146 q 513 29 576 72 q 350 -14 450 -14 m 381 85 q 526 129 469 85 q 583 243 583 174 l 583 351 l 350 351 q 251 317 288 351 q 215 222 215 282 q 259 122 215 158 q 381 85 303 85 m 172 896 l 365 1090 l 481 1090 l 675 896 l 538 896 l 424 1004 l 313 896 l 172 896 z "},"ấ":{"ha":833,"x_min":90,"x_max":875,"o":"m 350 -14 q 160 48 229 -14 q 90 215 90 110 q 160 383 90 322 q 347 444 229 444 l 583 444 l 583 521 q 541 629 583 590 q 424 668 499 668 q 311 639 357 668 q 254 563 265 610 l 129 563 q 176 675 136 626 q 280 751 215 724 q 424 778 344 778 q 632 710 556 778 q 708 525 708 642 l 708 0 l 586 0 l 586 146 l 585 146 q 513 29 576 72 q 350 -14 450 -14 m 381 85 q 526 129 469 85 q 583 243 583 174 l 583 351 l 350 351 q 251 317 288 351 q 215 222 215 282 q 259 122 215 158 q 381 85 303 85 m 576 1056 l 736 1250 l 875 1250 l 708 1056 l 576 1056 m 174 896 l 365 1090 l 482 1090 l 675 896 l 535 896 l 424 1004 l 311 896 l 174 896 z "},"ậ":{"ha":833,"x_min":90,"x_max":708,"o":"m 350 -14 q 160 48 229 -14 q 90 215 90 110 q 160 383 90 322 q 347 444 229 444 l 583 444 l 583 521 q 541 629 583 590 q 424 668 499 668 q 311 639 357 668 q 254 563 265 610 l 129 563 q 176 675 136 626 q 280 751 215 724 q 424 778 344 778 q 632 710 556 778 q 708 525 708 642 l 708 0 l 586 0 l 586 146 l 585 146 q 513 29 576 72 q 350 -14 450 -14 m 381 85 q 526 129 469 85 q 583 243 583 174 l 583 351 l 350 351 q 251 317 288 351 q 215 222 215 282 q 259 122 215 158 q 381 85 303 85 m 424 -296 q 351 -272 378 -296 q 325 -208 325 -249 q 351 -142 325 -167 q 424 -118 378 -118 q 496 -142 469 -118 q 522 -208 522 -167 q 496 -272 522 -249 q 424 -296 469 -296 m 172 896 l 365 1090 l 481 1090 l 675 896 l 538 896 l 424 1004 l 313 896 l 172 896 z "},"ầ":{"ha":833,"x_min":90,"x_max":764,"o":"m 350 -14 q 160 48 229 -14 q 90 215 90 110 q 160 383 90 322 q 347 444 229 444 l 583 444 l 583 521 q 541 629 583 590 q 424 668 499 668 q 311 639 357 668 q 254 563 265 610 l 129 563 q 176 675 136 626 q 280 751 215 724 q 424 778 344 778 q 632 710 556 778 q 708 525 708 642 l 708 0 l 586 0 l 586 146 l 585 146 q 513 29 576 72 q 350 -14 450 -14 m 381 85 q 526 129 469 85 q 583 243 583 174 l 583 351 l 350 351 q 251 317 288 351 q 215 222 215 282 q 259 122 215 158 q 381 85 303 85 m 632 1056 l 451 1250 l 590 1250 l 764 1056 l 632 1056 m 174 896 l 365 1090 l 482 1090 l 675 896 l 535 896 l 424 1004 l 311 896 l 174 896 z "},"ẩ":{"ha":833,"x_min":90,"x_max":771,"o":"m 350 -14 q 160 48 229 -14 q 90 215 90 110 q 160 383 90 322 q 347 444 229 444 l 583 444 l 583 521 q 541 629 583 590 q 424 668 499 668 q 311 639 357 668 q 254 563 265 610 l 129 563 q 176 675 136 626 q 280 751 215 724 q 424 778 344 778 q 632 710 556 778 q 708 525 708 642 l 708 0 l 586 0 l 586 146 l 585 146 q 513 29 576 72 q 350 -14 450 -14 m 381 85 q 526 129 469 85 q 583 243 583 174 l 583 351 l 350 351 q 251 317 288 351 q 215 222 215 282 q 259 122 215 158 q 381 85 303 85 m 594 1056 l 657 1140 q 669 1174 669 1160 q 625 1208 669 1208 l 556 1208 l 556 1292 l 632 1292 q 733 1264 696 1292 q 771 1188 771 1236 q 747 1125 771 1158 l 699 1056 l 594 1056 m 174 896 l 365 1090 l 482 1090 l 675 896 l 535 896 l 424 1004 l 311 896 l 174 896 z "},"ẫ":{"ha":833,"x_min":90,"x_max":708,"o":"m 350 -14 q 160 48 229 -14 q 90 215 90 110 q 160 383 90 322 q 347 444 229 444 l 583 444 l 583 521 q 541 629 583 590 q 424 668 499 668 q 311 639 357 668 q 254 563 265 610 l 129 563 q 176 675 136 626 q 280 751 215 724 q 424 778 344 778 q 632 710 556 778 q 708 525 708 642 l 708 0 l 586 0 l 586 146 l 585 146 q 513 29 576 72 q 350 -14 450 -14 m 381 85 q 526 129 469 85 q 583 243 583 174 l 583 351 l 350 351 q 251 317 288 351 q 215 222 215 282 q 259 122 215 158 q 381 85 303 85 m 515 1128 q 447 1141 472 1128 q 404 1172 421 1154 q 372 1202 388 1189 q 333 1215 357 1215 q 292 1174 292 1215 l 292 1139 l 201 1139 l 201 1167 q 238 1256 201 1222 q 332 1289 274 1289 q 402 1276 376 1289 q 444 1245 428 1263 q 475 1215 460 1228 q 514 1201 490 1201 q 556 1243 556 1201 l 556 1278 l 646 1278 l 646 1250 q 610 1161 646 1194 q 515 1128 574 1128 m 174 896 l 365 1090 l 482 1090 l 675 896 l 535 896 l 424 1004 l 311 896 l 174 896 z "},"ä":{"ha":833,"x_min":90,"x_max":708,"o":"m 350 -14 q 160 48 229 -14 q 90 215 90 110 q 160 383 90 322 q 347 444 229 444 l 583 444 l 583 521 q 541 629 583 590 q 424 668 499 668 q 311 639 357 668 q 254 563 265 610 l 129 563 q 176 675 136 626 q 280 751 215 724 q 424 778 344 778 q 632 710 556 778 q 708 525 708 642 l 708 0 l 586 0 l 586 146 l 585 146 q 513 29 576 72 q 350 -14 450 -14 m 381 85 q 526 129 469 85 q 583 243 583 174 l 583 351 l 350 351 q 251 317 288 351 q 215 222 215 282 q 259 122 215 158 q 381 85 303 85 m 578 901 q 513 925 538 901 q 489 989 489 949 q 513 1055 489 1031 q 578 1079 538 1079 q 642 1055 618 1079 q 667 989 667 1031 q 642 925 667 949 q 578 901 618 901 m 269 901 q 205 925 229 901 q 181 989 181 949 q 205 1055 181 1031 q 269 1079 229 1079 q 334 1055 310 1079 q 358 989 358 1031 q 334 925 358 949 q 269 901 310 901 z "},"ạ":{"ha":833,"x_min":90,"x_max":708,"o":"m 350 -14 q 160 48 229 -14 q 90 215 90 110 q 160 383 90 322 q 347 444 229 444 l 583 444 l 583 521 q 541 629 583 590 q 424 668 499 668 q 311 639 357 668 q 254 563 265 610 l 129 563 q 176 675 136 626 q 280 751 215 724 q 424 778 344 778 q 632 710 556 778 q 708 525 708 642 l 708 0 l 586 0 l 586 146 l 585 146 q 513 29 576 72 q 350 -14 450 -14 m 381 85 q 526 129 469 85 q 583 243 583 174 l 583 351 l 350 351 q 251 317 288 351 q 215 222 215 282 q 259 122 215 158 q 381 85 303 85 m 424 -296 q 351 -272 378 -296 q 325 -208 325 -249 q 351 -142 325 -167 q 424 -118 378 -118 q 496 -142 469 -118 q 522 -208 522 -167 q 496 -272 522 -249 q 424 -296 469 -296 z "},"à":{"ha":833,"x_min":90,"x_max":708,"o":"m 350 -14 q 160 48 229 -14 q 90 215 90 110 q 160 383 90 322 q 347 444 229 444 l 583 444 l 583 521 q 541 629 583 590 q 424 668 499 668 q 311 639 357 668 q 254 563 265 610 l 129 563 q 176 675 136 626 q 280 751 215 724 q 424 778 344 778 q 632 710 556 778 q 708 525 708 642 l 708 0 l 586 0 l 586 146 l 585 146 q 513 29 576 72 q 350 -14 450 -14 m 381 85 q 526 129 469 85 q 583 243 583 174 l 583 351 l 350 351 q 251 317 288 351 q 215 222 215 282 q 259 122 215 158 q 381 85 303 85 m 378 896 l 218 1090 l 357 1090 l 510 896 l 378 896 z "},"ả":{"ha":833,"x_min":90,"x_max":708,"o":"m 350 -14 q 160 48 229 -14 q 90 215 90 110 q 160 383 90 322 q 347 444 229 444 l 583 444 l 583 521 q 541 629 583 590 q 424 668 499 668 q 311 639 357 668 q 254 563 265 610 l 129 563 q 176 675 136 626 q 280 751 215 724 q 424 778 344 778 q 632 710 556 778 q 708 525 708 642 l 708 0 l 586 0 l 586 146 l 585 146 q 513 29 576 72 q 350 -14 450 -14 m 381 85 q 526 129 469 85 q 583 243 583 174 l 583 351 l 350 351 q 251 317 288 351 q 215 222 215 282 q 259 122 215 158 q 381 85 303 85 m 365 896 l 435 983 q 454 1028 454 1010 q 410 1056 454 1056 l 299 1056 l 299 1146 l 444 1146 q 530 1119 497 1146 q 563 1043 563 1092 q 539 968 563 999 l 483 896 l 365 896 z "},"ā":{"ha":833,"x_min":90,"x_max":708,"o":"m 350 -14 q 160 48 229 -14 q 90 215 90 110 q 160 383 90 322 q 347 444 229 444 l 583 444 l 583 521 q 541 629 583 590 q 424 668 499 668 q 311 639 357 668 q 254 563 265 610 l 129 563 q 176 675 136 626 q 280 751 215 724 q 424 778 344 778 q 632 710 556 778 q 708 525 708 642 l 708 0 l 586 0 l 586 146 l 585 146 q 513 29 576 72 q 350 -14 450 -14 m 381 85 q 526 129 469 85 q 583 243 583 174 l 583 351 l 350 351 q 251 317 288 351 q 215 222 215 282 q 259 122 215 158 q 381 85 303 85 m 201 931 l 201 1035 l 646 1035 l 646 931 l 201 931 z "},"ą":{"ha":833,"x_min":90,"x_max":779,"o":"m 350 -14 q 160 48 229 -14 q 90 215 90 110 q 160 383 90 322 q 347 444 229 444 l 583 444 l 583 521 q 541 629 583 590 q 424 668 499 668 q 311 639 357 668 q 254 563 265 610 l 129 563 q 176 675 136 626 q 280 751 215 724 q 424 778 344 778 q 632 710 556 778 q 708 525 708 642 l 708 0 q 640 -69 661 -39 q 619 -129 619 -100 q 640 -179 619 -160 q 696 -199 661 -199 l 779 -199 l 779 -282 l 671 -282 q 548 -245 594 -282 q 501 -153 501 -208 q 524 -79 501 -117 q 600 0 546 -42 l 586 0 l 586 146 l 585 146 q 513 29 576 72 q 350 -14 450 -14 m 381 85 q 526 129 469 85 q 583 243 583 174 l 583 351 l 350 351 q 251 317 288 351 q 215 222 215 282 q 259 122 215 158 q 381 85 303 85 z "},"å":{"ha":833,"x_min":90,"x_max":708,"o":"m 350 -14 q 160 48 229 -14 q 90 215 90 110 q 160 383 90 322 q 347 444 229 444 l 583 444 l 583 521 q 541 629 583 590 q 424 668 499 668 q 311 639 357 668 q 254 563 265 610 l 129 563 q 176 675 136 626 q 280 751 215 724 q 424 778 344 778 q 632 710 556 778 q 708 525 708 642 l 708 0 l 586 0 l 586 146 l 585 146 q 513 29 576 72 q 350 -14 450 -14 m 381 85 q 526 129 469 85 q 583 243 583 174 l 583 351 l 350 351 q 251 317 288 351 q 215 222 215 282 q 259 122 215 158 q 381 85 303 85 m 424 844 q 303 888 349 844 q 257 1003 257 932 q 303 1117 257 1074 q 424 1161 349 1161 q 544 1117 499 1161 q 590 1003 590 1074 q 544 888 590 932 q 424 844 499 844 m 424 918 q 484 941 461 918 q 507 1003 507 964 q 484 1065 507 1042 q 424 1089 461 1089 q 363 1065 386 1089 q 340 1003 340 1042 q 363 941 340 964 q 424 918 386 918 z "},"ã":{"ha":833,"x_min":90,"x_max":708,"o":"m 350 -14 q 160 48 229 -14 q 90 215 90 110 q 160 383 90 322 q 347 444 229 444 l 583 444 l 583 521 q 541 629 583 590 q 424 668 499 668 q 311 639 357 668 q 254 563 265 610 l 129 563 q 176 675 136 626 q 280 751 215 724 q 424 778 344 778 q 632 710 556 778 q 708 525 708 642 l 708 0 l 586 0 l 586 146 l 585 146 q 513 29 576 72 q 350 -14 450 -14 m 381 85 q 526 129 469 85 q 583 243 583 174 l 583 351 l 350 351 q 251 317 288 351 q 215 222 215 282 q 259 122 215 158 q 381 85 303 85 m 521 903 q 453 917 479 903 q 408 951 426 932 q 374 985 390 971 q 333 1000 357 1000 q 292 951 292 1000 l 292 910 l 201 910 l 201 951 q 236 1049 201 1014 q 326 1083 271 1083 q 394 1069 368 1083 q 439 1035 421 1054 q 474 1001 457 1015 q 514 986 490 986 q 556 1035 556 986 l 556 1076 l 646 1076 l 646 1035 q 612 938 646 972 q 521 903 578 903 z "},"æ":{"ha":833,"x_min":49,"x_max":785,"o":"m 236 -14 q 99 39 150 -14 q 49 181 49 92 l 49 264 q 106 401 49 350 q 261 451 164 451 l 364 451 l 364 554 q 271 671 364 671 q 208 647 232 671 q 183 583 183 624 l 65 583 q 116 724 65 671 q 250 778 167 778 q 340 760 304 778 q 395 716 376 742 q 418 667 414 690 l 424 667 q 446 716 428 690 q 498 760 464 742 q 583 778 532 778 q 731 718 678 778 q 785 556 785 658 l 785 354 l 476 354 l 476 208 q 502 125 476 157 q 569 93 528 93 q 640 117 614 93 q 667 181 667 140 l 785 181 q 729 40 785 93 q 583 -14 674 -14 q 497 4 532 -14 q 445 48 463 22 q 424 97 428 74 l 418 97 q 393 48 414 74 q 334 4 372 22 q 236 -14 296 -14 m 476 451 l 667 451 l 667 556 q 641 640 667 608 q 569 671 615 671 q 501 640 526 671 q 476 556 476 608 l 476 451 m 264 93 q 336 125 308 93 q 364 208 364 157 l 364 354 l 264 354 q 197 330 221 354 q 174 264 174 306 l 174 181 q 198 117 174 140 q 264 93 222 93 z "},"ǽ":{"ha":833,"x_min":49,"x_max":785,"o":"m 236 -14 q 99 39 150 -14 q 49 181 49 92 l 49 264 q 106 401 49 350 q 261 451 164 451 l 364 451 l 364 554 q 271 671 364 671 q 208 647 232 671 q 183 583 183 624 l 65 583 q 116 724 65 671 q 250 778 167 778 q 340 760 304 778 q 395 716 376 742 q 418 667 414 690 l 424 667 q 446 716 428 690 q 498 760 464 742 q 583 778 532 778 q 731 718 678 778 q 785 556 785 658 l 785 354 l 476 354 l 476 208 q 502 125 476 157 q 569 93 528 93 q 640 117 614 93 q 667 181 667 140 l 785 181 q 729 40 785 93 q 583 -14 674 -14 q 497 4 532 -14 q 445 48 463 22 q 424 97 428 74 l 418 97 q 393 48 414 74 q 334 4 372 22 q 236 -14 296 -14 m 476 451 l 667 451 l 667 556 q 641 640 667 608 q 569 671 615 671 q 501 640 526 671 q 476 556 476 608 l 476 451 m 264 93 q 336 125 308 93 q 364 208 364 157 l 364 354 l 264 354 q 197 330 221 354 q 174 264 174 306 l 174 181 q 198 117 174 140 q 264 93 222 93 m 336 896 l 483 1090 l 618 1090 l 464 896 l 336 896 z "},"b":{"ha":833,"x_min":128,"x_max":715,"o":"m 461 -14 q 319 28 375 -14 q 254 146 264 71 l 253 146 l 253 0 l 128 0 l 128 1014 l 253 1014 l 253 792 l 250 618 l 254 618 q 319 735 264 692 q 461 778 375 778 q 646 701 576 778 q 715 493 715 625 l 715 269 q 646 63 715 139 q 461 -14 576 -14 m 419 94 q 544 142 499 94 q 590 278 590 189 l 590 486 q 544 622 590 575 q 419 669 499 669 q 298 621 343 669 q 253 486 253 572 l 253 278 q 298 143 253 192 q 419 94 343 94 z "},"c":{"ha":833,"x_min":118,"x_max":719,"o":"m 422 -14 q 201 64 283 -14 q 118 278 118 142 l 118 486 q 201 700 118 622 q 422 778 283 778 q 635 707 554 778 q 719 514 715 636 l 594 514 q 545 627 590 588 q 422 667 500 667 q 292 620 340 667 q 243 488 243 574 l 243 278 q 292 144 243 192 q 422 97 340 97 q 545 138 500 97 q 594 250 590 178 l 719 250 q 635 57 715 128 q 422 -14 554 -14 z "},"ć":{"ha":833,"x_min":118,"x_max":719,"o":"m 422 -14 q 201 64 283 -14 q 118 278 118 142 l 118 486 q 201 700 118 622 q 422 778 283 778 q 635 707 554 778 q 719 514 715 636 l 594 514 q 545 627 590 588 q 422 667 500 667 q 292 620 340 667 q 243 488 243 574 l 243 278 q 292 144 243 192 q 422 97 340 97 q 545 138 500 97 q 594 250 590 178 l 719 250 q 635 57 715 128 q 422 -14 554 -14 m 342 896 l 489 1090 l 624 1090 l 469 896 l 342 896 z "},"č":{"ha":833,"x_min":118,"x_max":719,"o":"m 422 -14 q 201 64 283 -14 q 118 278 118 142 l 118 486 q 201 700 118 622 q 422 778 283 778 q 635 707 554 778 q 719 514 715 636 l 594 514 q 545 627 590 588 q 422 667 500 667 q 292 620 340 667 q 243 488 243 574 l 243 278 q 292 144 243 192 q 422 97 340 97 q 545 138 500 97 q 594 250 590 178 l 719 250 q 635 57 715 128 q 422 -14 554 -14 m 365 896 l 171 1090 l 308 1090 l 422 982 l 533 1090 l 674 1090 l 481 896 l 365 896 z "},"ç":{"ha":833,"x_min":118,"x_max":719,"o":"m 290 -282 l 290 -206 l 388 -206 q 437 -190 418 -206 q 456 -156 456 -174 q 417 -114 456 -132 q 310 -96 379 -96 l 343 -7 q 178 88 239 14 q 118 278 118 163 l 118 486 q 201 700 118 622 q 422 778 283 778 q 635 707 554 778 q 719 514 715 636 l 594 514 q 545 627 590 588 q 422 667 500 667 q 292 620 340 667 q 243 488 243 574 l 243 278 q 292 144 243 192 q 422 97 340 97 q 545 138 500 97 q 594 250 590 178 l 719 250 q 635 57 715 128 q 422 -14 554 -14 l 421 -14 l 408 -49 q 483 -67 444 -53 q 549 -106 522 -81 q 575 -167 575 -131 q 529 -248 575 -214 q 408 -282 483 -282 l 290 -282 z "},"ĉ":{"ha":833,"x_min":118,"x_max":719,"o":"m 422 -14 q 201 64 283 -14 q 118 278 118 142 l 118 486 q 201 700 118 622 q 422 778 283 778 q 635 707 554 778 q 719 514 715 636 l 594 514 q 545 627 590 588 q 422 667 500 667 q 292 620 340 667 q 243 488 243 574 l 243 278 q 292 144 243 192 q 422 97 340 97 q 545 138 500 97 q 594 250 590 178 l 719 250 q 635 57 715 128 q 422 -14 554 -14 m 171 896 l 364 1090 l 479 1090 l 674 896 l 536 896 l 422 1004 l 311 896 l 171 896 z "},"ċ":{"ha":833,"x_min":118,"x_max":719,"o":"m 422 -14 q 201 64 283 -14 q 118 278 118 142 l 118 486 q 201 700 118 622 q 422 778 283 778 q 635 707 554 778 q 719 514 715 636 l 594 514 q 545 627 590 588 q 422 667 500 667 q 292 620 340 667 q 243 488 243 574 l 243 278 q 292 144 243 192 q 422 97 340 97 q 545 138 500 97 q 594 250 590 178 l 719 250 q 635 57 715 128 q 422 -14 554 -14 m 422 901 q 350 925 376 901 q 324 989 324 949 q 350 1055 324 1031 q 422 1079 376 1079 q 494 1055 468 1079 q 521 989 521 1031 q 494 925 521 949 q 422 901 468 901 z "},"d":{"ha":833,"x_min":118,"x_max":706,"o":"m 372 -14 q 188 63 258 -14 q 118 269 118 139 l 118 493 q 188 701 118 625 q 372 778 257 778 q 514 735 458 778 q 579 618 569 692 l 583 618 l 581 792 l 581 1014 l 706 1014 l 706 0 l 581 0 l 581 146 l 579 146 q 514 28 569 71 q 372 -14 458 -14 m 414 94 q 536 143 492 94 q 581 278 581 192 l 581 486 q 536 621 581 572 q 414 669 492 669 q 289 622 335 669 q 243 486 243 575 l 243 278 q 289 142 243 189 q 414 94 335 94 z "},"ð":{"ha":833,"x_min":97,"x_max":736,"o":"m 415 -14 q 249 25 321 -14 q 137 135 176 64 q 97 299 97 206 q 134 460 97 392 q 237 567 171 529 q 390 606 303 606 q 492 579 451 606 q 549 528 533 553 l 568 528 q 540 578 563 542 q 479 667 518 615 l 389 793 l 163 688 l 163 799 l 329 876 l 229 1014 l 374 1014 l 435 925 l 640 1021 l 640 910 l 493 842 l 601 685 q 699 497 663 596 q 736 310 736 399 q 696 140 736 213 q 584 26 656 67 q 415 -14 513 -14 m 415 97 q 558 153 504 97 q 611 299 611 208 q 558 444 611 389 q 415 500 504 500 q 276 444 329 500 q 222 299 222 389 q 276 153 222 208 q 415 97 329 97 z "},"ď":{"ha":833,"x_min":88,"x_max":833,"o":"m 708 764 l 708 1014 l 833 1014 l 819 764 l 708 764 m 317 -14 q 149 61 211 -14 q 88 263 88 136 l 88 500 q 149 703 88 628 q 317 778 211 778 q 445 735 396 778 q 503 618 494 692 l 507 618 l 504 792 l 504 1014 l 629 1014 l 629 0 l 504 0 l 504 146 l 503 146 q 445 29 494 72 q 317 -14 396 -14 m 358 94 q 466 141 428 94 q 504 271 504 188 l 504 493 q 466 623 504 576 q 358 669 428 669 q 251 623 290 669 q 213 493 213 576 l 213 271 q 251 141 213 188 q 358 94 290 94 z "},"đ":{"ha":833,"x_min":125,"x_max":833,"o":"m 372 -14 q 192 63 258 -14 q 125 269 125 139 l 125 410 q 191 618 125 542 q 372 694 257 694 q 513 651 458 694 q 576 535 567 608 l 581 535 l 578 708 l 578 792 l 347 792 l 347 896 l 578 896 l 578 1014 l 703 1014 l 703 896 l 833 896 l 833 792 l 703 792 l 703 0 l 578 0 l 578 146 l 576 146 q 513 28 567 71 q 372 -14 458 -14 m 414 94 q 535 143 492 94 q 578 278 578 192 l 578 403 q 535 538 578 489 q 414 586 492 586 q 292 539 335 586 q 250 403 250 492 l 250 278 q 292 142 250 189 q 414 94 335 94 z "},"e":{"ha":833,"x_min":118,"x_max":715,"o":"m 417 -14 q 259 22 326 -14 q 155 124 192 58 q 118 278 118 190 l 118 486 q 155 640 118 575 q 259 742 192 706 q 417 778 326 778 q 574 742 507 778 q 678 640 642 706 q 715 486 715 575 l 715 351 l 240 351 l 240 278 q 286 140 240 188 q 417 92 332 92 q 533 117 489 92 q 588 194 578 143 l 713 194 q 619 42 700 99 q 417 -14 538 -14 m 240 446 l 593 446 l 593 486 q 548 625 593 576 q 417 674 503 674 q 286 625 332 674 q 240 486 240 576 l 240 446 z "},"é":{"ha":833,"x_min":118,"x_max":715,"o":"m 417 -14 q 259 22 326 -14 q 155 124 192 58 q 118 278 118 190 l 118 486 q 155 640 118 575 q 259 742 192 706 q 417 778 326 778 q 574 742 507 778 q 678 640 642 706 q 715 486 715 575 l 715 351 l 240 351 l 240 278 q 286 140 240 188 q 417 92 332 92 q 533 117 489 92 q 588 194 578 143 l 713 194 q 619 42 700 99 q 417 -14 538 -14 m 240 446 l 593 446 l 593 486 q 548 625 593 576 q 417 674 503 674 q 286 625 332 674 q 240 486 240 576 l 240 446 m 336 896 l 483 1090 l 618 1090 l 464 896 l 336 896 z "},"ĕ":{"ha":833,"x_min":118,"x_max":715,"o":"m 417 -14 q 259 22 326 -14 q 155 124 192 58 q 118 278 118 190 l 118 486 q 155 640 118 575 q 259 742 192 706 q 417 778 326 778 q 574 742 507 778 q 678 640 642 706 q 715 486 715 575 l 715 351 l 240 351 l 240 278 q 286 140 240 188 q 417 92 332 92 q 533 117 489 92 q 588 194 578 143 l 713 194 q 619 42 700 99 q 417 -14 538 -14 m 240 446 l 593 446 l 593 486 q 548 625 593 576 q 417 674 503 674 q 286 625 332 674 q 240 486 240 576 l 240 446 m 417 889 q 256 944 317 889 q 194 1090 194 1000 l 293 1090 q 326 1003 293 1036 q 415 969 360 969 q 506 1003 472 969 q 540 1090 540 1036 l 639 1090 q 578 944 639 1000 q 417 889 517 889 z "},"ě":{"ha":833,"x_min":118,"x_max":715,"o":"m 417 -14 q 259 22 326 -14 q 155 124 192 58 q 118 278 118 190 l 118 486 q 155 640 118 575 q 259 742 192 706 q 417 778 326 778 q 574 742 507 778 q 678 640 642 706 q 715 486 715 575 l 715 351 l 240 351 l 240 278 q 286 140 240 188 q 417 92 332 92 q 533 117 489 92 q 588 194 578 143 l 713 194 q 619 42 700 99 q 417 -14 538 -14 m 240 446 l 593 446 l 593 486 q 548 625 593 576 q 417 674 503 674 q 286 625 332 674 q 240 486 240 576 l 240 446 m 360 896 l 165 1090 l 303 1090 l 417 982 l 528 1090 l 668 1090 l 475 896 l 360 896 z "},"ê":{"ha":833,"x_min":118,"x_max":715,"o":"m 417 -14 q 259 22 326 -14 q 155 124 192 58 q 118 278 118 190 l 118 486 q 155 640 118 575 q 259 742 192 706 q 417 778 326 778 q 574 742 507 778 q 678 640 642 706 q 715 486 715 575 l 715 351 l 240 351 l 240 278 q 286 140 240 188 q 417 92 332 92 q 533 117 489 92 q 588 194 578 143 l 713 194 q 619 42 700 99 q 417 -14 538 -14 m 240 446 l 593 446 l 593 486 q 548 625 593 576 q 417 674 503 674 q 286 625 332 674 q 240 486 240 576 l 240 446 m 165 896 l 358 1090 l 474 1090 l 668 896 l 531 896 l 417 1004 l 306 896 l 165 896 z "},"ế":{"ha":833,"x_min":118,"x_max":868,"o":"m 417 -14 q 259 22 326 -14 q 155 124 192 58 q 118 278 118 190 l 118 486 q 155 640 118 575 q 259 742 192 706 q 417 778 326 778 q 574 742 507 778 q 678 640 642 706 q 715 486 715 575 l 715 351 l 240 351 l 240 278 q 286 140 240 188 q 417 92 332 92 q 533 117 489 92 q 588 194 578 143 l 713 194 q 619 42 700 99 q 417 -14 538 -14 m 240 446 l 593 446 l 593 486 q 548 625 593 576 q 417 674 503 674 q 286 625 332 674 q 240 486 240 576 l 240 446 m 569 1056 l 729 1250 l 868 1250 l 701 1056 l 569 1056 m 167 896 l 358 1090 l 475 1090 l 668 896 l 528 896 l 417 1004 l 304 896 l 167 896 z "},"ệ":{"ha":833,"x_min":118,"x_max":715,"o":"m 417 -14 q 259 22 326 -14 q 155 124 192 58 q 118 278 118 190 l 118 486 q 155 640 118 575 q 259 742 192 706 q 417 778 326 778 q 574 742 507 778 q 678 640 642 706 q 715 486 715 575 l 715 351 l 240 351 l 240 278 q 286 140 240 188 q 417 92 332 92 q 533 117 489 92 q 588 194 578 143 l 713 194 q 619 42 700 99 q 417 -14 538 -14 m 240 446 l 593 446 l 593 486 q 548 625 593 576 q 417 674 503 674 q 286 625 332 674 q 240 486 240 576 l 240 446 m 417 -296 q 344 -272 371 -296 q 318 -208 318 -249 q 344 -142 318 -167 q 417 -118 371 -118 q 489 -142 463 -118 q 515 -208 515 -167 q 489 -272 515 -249 q 417 -296 463 -296 m 165 896 l 358 1090 l 474 1090 l 668 896 l 531 896 l 417 1004 l 306 896 l 165 896 z "},"ề":{"ha":833,"x_min":118,"x_max":757,"o":"m 417 -14 q 259 22 326 -14 q 155 124 192 58 q 118 278 118 190 l 118 486 q 155 640 118 575 q 259 742 192 706 q 417 778 326 778 q 574 742 507 778 q 678 640 642 706 q 715 486 715 575 l 715 351 l 240 351 l 240 278 q 286 140 240 188 q 417 92 332 92 q 533 117 489 92 q 588 194 578 143 l 713 194 q 619 42 700 99 q 417 -14 538 -14 m 240 446 l 593 446 l 593 486 q 548 625 593 576 q 417 674 503 674 q 286 625 332 674 q 240 486 240 576 l 240 446 m 625 1056 l 444 1250 l 583 1250 l 757 1056 l 625 1056 m 167 896 l 358 1090 l 475 1090 l 668 896 l 528 896 l 417 1004 l 304 896 l 167 896 z "},"ể":{"ha":833,"x_min":118,"x_max":764,"o":"m 417 -14 q 259 22 326 -14 q 155 124 192 58 q 118 278 118 190 l 118 486 q 155 640 118 575 q 259 742 192 706 q 417 778 326 778 q 574 742 507 778 q 678 640 642 706 q 715 486 715 575 l 715 351 l 240 351 l 240 278 q 286 140 240 188 q 417 92 332 92 q 533 117 489 92 q 588 194 578 143 l 713 194 q 619 42 700 99 q 417 -14 538 -14 m 240 446 l 593 446 l 593 486 q 548 625 593 576 q 417 674 503 674 q 286 625 332 674 q 240 486 240 576 l 240 446 m 588 1056 l 650 1140 q 663 1174 663 1160 q 618 1208 663 1208 l 549 1208 l 549 1292 l 625 1292 q 726 1264 689 1292 q 764 1188 764 1236 q 740 1125 764 1158 l 692 1056 l 588 1056 m 167 896 l 358 1090 l 475 1090 l 668 896 l 528 896 l 417 1004 l 304 896 l 167 896 z "},"ễ":{"ha":833,"x_min":118,"x_max":715,"o":"m 417 -14 q 259 22 326 -14 q 155 124 192 58 q 118 278 118 190 l 118 486 q 155 640 118 575 q 259 742 192 706 q 417 778 326 778 q 574 742 507 778 q 678 640 642 706 q 715 486 715 575 l 715 351 l 240 351 l 240 278 q 286 140 240 188 q 417 92 332 92 q 533 117 489 92 q 588 194 578 143 l 713 194 q 619 42 700 99 q 417 -14 538 -14 m 240 446 l 593 446 l 593 486 q 548 625 593 576 q 417 674 503 674 q 286 625 332 674 q 240 486 240 576 l 240 446 m 508 1128 q 440 1141 465 1128 q 397 1172 414 1154 q 365 1202 381 1189 q 326 1215 350 1215 q 285 1174 285 1215 l 285 1139 l 194 1139 l 194 1167 q 231 1256 194 1222 q 325 1289 267 1289 q 395 1276 369 1289 q 437 1245 421 1263 q 468 1215 453 1228 q 507 1201 483 1201 q 549 1243 549 1201 l 549 1278 l 639 1278 l 639 1250 q 603 1161 639 1194 q 508 1128 567 1128 m 167 896 l 358 1090 l 475 1090 l 668 896 l 528 896 l 417 1004 l 304 896 l 167 896 z "},"ë":{"ha":833,"x_min":118,"x_max":715,"o":"m 417 -14 q 259 22 326 -14 q 155 124 192 58 q 118 278 118 190 l 118 486 q 155 640 118 575 q 259 742 192 706 q 417 778 326 778 q 574 742 507 778 q 678 640 642 706 q 715 486 715 575 l 715 351 l 240 351 l 240 278 q 286 140 240 188 q 417 92 332 92 q 533 117 489 92 q 588 194 578 143 l 713 194 q 619 42 700 99 q 417 -14 538 -14 m 240 446 l 593 446 l 593 486 q 548 625 593 576 q 417 674 503 674 q 286 625 332 674 q 240 486 240 576 l 240 446 m 571 901 q 506 925 531 901 q 482 989 482 949 q 506 1055 482 1031 q 571 1079 531 1079 q 635 1055 611 1079 q 660 989 660 1031 q 635 925 660 949 q 571 901 611 901 m 263 901 q 198 925 222 901 q 174 989 174 949 q 198 1055 174 1031 q 263 1079 222 1079 q 327 1055 303 1079 q 351 989 351 1031 q 327 925 351 949 q 263 901 303 901 z "},"ė":{"ha":833,"x_min":118,"x_max":715,"o":"m 417 -14 q 259 22 326 -14 q 155 124 192 58 q 118 278 118 190 l 118 486 q 155 640 118 575 q 259 742 192 706 q 417 778 326 778 q 574 742 507 778 q 678 640 642 706 q 715 486 715 575 l 715 351 l 240 351 l 240 278 q 286 140 240 188 q 417 92 332 92 q 533 117 489 92 q 588 194 578 143 l 713 194 q 619 42 700 99 q 417 -14 538 -14 m 240 446 l 593 446 l 593 486 q 548 625 593 576 q 417 674 503 674 q 286 625 332 674 q 240 486 240 576 l 240 446 m 417 901 q 344 925 371 901 q 318 989 318 949 q 344 1055 318 1031 q 417 1079 371 1079 q 489 1055 463 1079 q 515 989 515 1031 q 489 925 515 949 q 417 901 463 901 z "},"ẹ":{"ha":833,"x_min":118,"x_max":715,"o":"m 417 -14 q 259 22 326 -14 q 155 124 192 58 q 118 278 118 190 l 118 486 q 155 640 118 575 q 259 742 192 706 q 417 778 326 778 q 574 742 507 778 q 678 640 642 706 q 715 486 715 575 l 715 351 l 240 351 l 240 278 q 286 140 240 188 q 417 92 332 92 q 533 117 489 92 q 588 194 578 143 l 713 194 q 619 42 700 99 q 417 -14 538 -14 m 240 446 l 593 446 l 593 486 q 548 625 593 576 q 417 674 503 674 q 286 625 332 674 q 240 486 240 576 l 240 446 m 417 -296 q 344 -272 371 -296 q 318 -208 318 -249 q 344 -142 318 -167 q 417 -118 371 -118 q 489 -142 463 -118 q 515 -208 515 -167 q 489 -272 515 -249 q 417 -296 463 -296 z "},"è":{"ha":833,"x_min":118,"x_max":715,"o":"m 417 -14 q 259 22 326 -14 q 155 124 192 58 q 118 278 118 190 l 118 486 q 155 640 118 575 q 259 742 192 706 q 417 778 326 778 q 574 742 507 778 q 678 640 642 706 q 715 486 715 575 l 715 351 l 240 351 l 240 278 q 286 140 240 188 q 417 92 332 92 q 533 117 489 92 q 588 194 578 143 l 713 194 q 619 42 700 99 q 417 -14 538 -14 m 240 446 l 593 446 l 593 486 q 548 625 593 576 q 417 674 503 674 q 286 625 332 674 q 240 486 240 576 l 240 446 m 371 896 l 211 1090 l 350 1090 l 503 896 l 371 896 z "},"ẻ":{"ha":833,"x_min":118,"x_max":715,"o":"m 417 -14 q 259 22 326 -14 q 155 124 192 58 q 118 278 118 190 l 118 486 q 155 640 118 575 q 259 742 192 706 q 417 778 326 778 q 574 742 507 778 q 678 640 642 706 q 715 486 715 575 l 715 351 l 240 351 l 240 278 q 286 140 240 188 q 417 92 332 92 q 533 117 489 92 q 588 194 578 143 l 713 194 q 619 42 700 99 q 417 -14 538 -14 m 240 446 l 593 446 l 593 486 q 548 625 593 576 q 417 674 503 674 q 286 625 332 674 q 240 486 240 576 l 240 446 m 358 896 l 428 983 q 447 1028 447 1010 q 403 1056 447 1056 l 292 1056 l 292 1146 l 438 1146 q 523 1119 490 1146 q 556 1043 556 1092 q 532 968 556 999 l 476 896 l 358 896 z "},"ē":{"ha":833,"x_min":118,"x_max":715,"o":"m 417 -14 q 259 22 326 -14 q 155 124 192 58 q 118 278 118 190 l 118 486 q 155 640 118 575 q 259 742 192 706 q 417 778 326 778 q 574 742 507 778 q 678 640 642 706 q 715 486 715 575 l 715 351 l 240 351 l 240 278 q 286 140 240 188 q 417 92 332 92 q 533 117 489 92 q 588 194 578 143 l 713 194 q 619 42 700 99 q 417 -14 538 -14 m 240 446 l 593 446 l 593 486 q 548 625 593 576 q 417 674 503 674 q 286 625 332 674 q 240 486 240 576 l 240 446 m 194 931 l 194 1035 l 639 1035 l 639 931 l 194 931 z "},"ę":{"ha":833,"x_min":122,"x_max":711,"o":"m 518 -282 q 395 -245 442 -282 q 349 -153 349 -208 q 431 -14 349 -87 l 417 -14 q 202 66 282 -14 q 122 278 122 146 l 122 486 q 202 698 122 618 q 417 778 282 778 q 632 698 553 778 q 711 486 711 618 l 711 351 l 244 351 l 244 278 q 288 140 244 188 q 417 92 332 92 q 583 194 563 92 l 708 194 q 667 90 701 135 q 578 19 632 46 l 556 1 q 488 -69 508 -37 q 467 -129 467 -100 q 488 -179 467 -160 q 543 -199 508 -199 l 626 -199 l 626 -282 l 518 -282 m 244 446 l 589 446 l 589 486 q 546 625 589 576 q 417 674 503 674 q 288 625 332 674 q 244 486 244 576 l 244 446 z "},"ẽ":{"ha":833,"x_min":118,"x_max":715,"o":"m 417 -14 q 259 22 326 -14 q 155 124 192 58 q 118 278 118 190 l 118 486 q 155 640 118 575 q 259 742 192 706 q 417 778 326 778 q 574 742 507 778 q 678 640 642 706 q 715 486 715 575 l 715 351 l 240 351 l 240 278 q 286 140 240 188 q 417 92 332 92 q 533 117 489 92 q 588 194 578 143 l 713 194 q 619 42 700 99 q 417 -14 538 -14 m 240 446 l 593 446 l 593 486 q 548 625 593 576 q 417 674 503 674 q 286 625 332 674 q 240 486 240 576 l 240 446 m 514 903 q 446 917 472 903 q 401 951 419 932 q 367 985 383 971 q 326 1000 350 1000 q 285 951 285 1000 l 285 910 l 194 910 l 194 951 q 229 1049 194 1014 q 319 1083 264 1083 q 388 1069 361 1083 q 432 1035 414 1054 q 467 1001 450 1015 q 507 986 483 986 q 549 1035 549 986 l 549 1076 l 639 1076 l 639 1035 q 605 938 639 972 q 514 903 571 903 z "},"ə":{"ha":833,"x_min":125,"x_max":708,"o":"m 417 -14 q 203 66 282 -14 q 125 278 125 146 l 125 413 l 586 413 l 586 486 q 544 624 586 576 q 417 672 503 672 q 253 569 274 672 l 128 569 q 218 722 140 665 q 417 778 296 778 q 631 698 553 778 q 708 486 708 618 l 708 278 q 631 66 708 146 q 417 -14 553 -14 m 417 90 q 544 139 503 90 q 586 278 586 188 l 586 318 l 247 318 l 247 278 q 290 139 247 188 q 417 90 332 90 z "},"f":{"ha":833,"x_min":83,"x_max":743,"o":"m 306 0 l 306 574 l 83 574 l 83 688 l 306 688 l 306 819 q 363 962 306 910 q 519 1014 419 1014 l 743 1014 l 743 900 l 519 900 q 431 819 431 900 l 431 688 l 743 688 l 743 574 l 431 574 l 431 0 l 306 0 z "},"g":{"ha":833,"x_min":122,"x_max":704,"o":"m 224 -250 l 224 -136 l 467 -136 q 579 -28 579 -136 l 579 69 l 582 208 l 579 208 q 517 92 572 135 q 376 49 463 49 q 190 126 258 49 q 122 333 122 203 l 122 494 q 190 701 122 625 q 376 778 258 778 q 517 735 463 778 q 579 618 572 692 l 581 618 l 581 764 l 704 764 l 704 -28 q 641 -190 704 -131 q 465 -250 578 -250 l 224 -250 m 414 157 q 536 206 492 157 q 581 340 581 254 l 581 486 q 536 621 581 572 q 414 669 492 669 q 291 622 335 669 q 247 486 247 575 l 247 340 q 291 204 247 251 q 414 157 335 157 z "},"ǵ":{"ha":833,"x_min":122,"x_max":704,"o":"m 224 -250 l 224 -136 l 467 -136 q 579 -28 579 -136 l 579 69 l 582 208 l 579 208 q 517 92 572 135 q 376 49 463 49 q 190 126 258 49 q 122 333 122 203 l 122 494 q 190 701 122 625 q 376 778 258 778 q 517 735 463 778 q 579 618 572 692 l 581 618 l 581 764 l 704 764 l 704 -28 q 641 -190 704 -131 q 465 -250 578 -250 l 224 -250 m 414 157 q 536 206 492 157 q 581 340 581 254 l 581 486 q 536 621 581 572 q 414 669 492 669 q 291 622 335 669 q 247 486 247 575 l 247 340 q 291 204 247 251 q 414 157 335 157 m 332 896 l 479 1090 l 614 1090 l 460 896 l 332 896 z "},"ğ":{"ha":833,"x_min":122,"x_max":704,"o":"m 224 -250 l 224 -136 l 467 -136 q 579 -28 579 -136 l 579 69 l 582 208 l 579 208 q 517 92 572 135 q 376 49 463 49 q 190 126 258 49 q 122 333 122 203 l 122 494 q 190 701 122 625 q 376 778 258 778 q 517 735 463 778 q 579 618 572 692 l 581 618 l 581 764 l 704 764 l 704 -28 q 641 -190 704 -131 q 465 -250 578 -250 l 224 -250 m 414 157 q 536 206 492 157 q 581 340 581 254 l 581 486 q 536 621 581 572 q 414 669 492 669 q 291 622 335 669 q 247 486 247 575 l 247 340 q 291 204 247 251 q 414 157 335 157 m 413 889 q 251 944 313 889 q 190 1090 190 1000 l 289 1090 q 322 1003 289 1036 q 411 969 356 969 q 502 1003 468 969 q 536 1090 536 1036 l 635 1090 q 574 944 635 1000 q 413 889 513 889 z "},"ǧ":{"ha":833,"x_min":122,"x_max":704,"o":"m 224 -250 l 224 -136 l 467 -136 q 579 -28 579 -136 l 579 69 l 582 208 l 579 208 q 517 92 572 135 q 376 49 463 49 q 190 126 258 49 q 122 333 122 203 l 122 494 q 190 701 122 625 q 376 778 258 778 q 517 735 463 778 q 579 618 572 692 l 581 618 l 581 764 l 704 764 l 704 -28 q 641 -190 704 -131 q 465 -250 578 -250 l 224 -250 m 414 157 q 536 206 492 157 q 581 340 581 254 l 581 486 q 536 621 581 572 q 414 669 492 669 q 291 622 335 669 q 247 486 247 575 l 247 340 q 291 204 247 251 q 414 157 335 157 m 356 896 l 161 1090 l 299 1090 l 413 982 l 524 1090 l 664 1090 l 471 896 l 356 896 z "},"ĝ":{"ha":833,"x_min":122,"x_max":704,"o":"m 224 -250 l 224 -136 l 467 -136 q 579 -28 579 -136 l 579 69 l 582 208 l 579 208 q 517 92 572 135 q 376 49 463 49 q 190 126 258 49 q 122 333 122 203 l 122 494 q 190 701 122 625 q 376 778 258 778 q 517 735 463 778 q 579 618 572 692 l 581 618 l 581 764 l 704 764 l 704 -28 q 641 -190 704 -131 q 465 -250 578 -250 l 224 -250 m 414 157 q 536 206 492 157 q 581 340 581 254 l 581 486 q 536 621 581 572 q 414 669 492 669 q 291 622 335 669 q 247 486 247 575 l 247 340 q 291 204 247 251 q 414 157 335 157 m 161 896 l 354 1090 l 469 1090 l 664 896 l 526 896 l 413 1004 l 301 896 l 161 896 z "},"ģ":{"ha":833,"x_min":122,"x_max":704,"o":"m 224 -250 l 224 -136 l 467 -136 q 579 -28 579 -136 l 579 69 l 582 208 l 579 208 q 517 92 572 135 q 376 49 463 49 q 190 126 258 49 q 122 333 122 203 l 122 494 q 190 701 122 625 q 376 778 258 778 q 517 735 463 778 q 579 618 572 692 l 581 618 l 581 764 l 704 764 l 704 -28 q 641 -190 704 -131 q 465 -250 578 -250 l 224 -250 m 414 157 q 536 206 492 157 q 581 340 581 254 l 581 486 q 536 621 581 572 q 414 669 492 669 q 291 622 335 669 q 247 486 247 575 l 247 340 q 291 204 247 251 q 414 157 335 157 m 572 1222 l 461 896 l 288 896 l 468 1222 l 572 1222 z "},"ġ":{"ha":833,"x_min":122,"x_max":704,"o":"m 224 -250 l 224 -136 l 467 -136 q 579 -28 579 -136 l 579 69 l 582 208 l 579 208 q 517 92 572 135 q 376 49 463 49 q 190 126 258 49 q 122 333 122 203 l 122 494 q 190 701 122 625 q 376 778 258 778 q 517 735 463 778 q 579 618 572 692 l 581 618 l 581 764 l 704 764 l 704 -28 q 641 -190 704 -131 q 465 -250 578 -250 l 224 -250 m 414 157 q 536 206 492 157 q 581 340 581 254 l 581 486 q 536 621 581 572 q 414 669 492 669 q 291 622 335 669 q 247 486 247 575 l 247 340 q 291 204 247 251 q 414 157 335 157 m 413 901 q 340 925 367 901 q 314 989 314 949 q 340 1055 314 1031 q 413 1079 367 1079 q 485 1055 458 1079 q 511 989 511 1031 q 485 925 511 949 q 413 901 458 901 z "},"h":{"ha":833,"x_min":128,"x_max":708,"o":"m 128 0 l 128 1014 l 253 1014 l 253 618 l 254 618 q 317 736 264 694 q 457 778 369 778 q 640 707 572 778 q 708 514 708 636 l 708 0 l 583 0 l 583 500 q 540 627 583 582 q 421 672 496 672 q 298 624 343 672 q 253 486 253 575 l 253 0 l 128 0 z "},"ħ":{"ha":833,"x_min":0,"x_max":708,"o":"m 0 792 l 0 896 l 128 896 l 128 1014 l 253 1014 l 253 896 l 486 896 l 486 792 l 253 792 l 253 535 l 254 535 q 317 653 264 611 q 457 694 369 694 q 640 624 572 694 q 708 431 708 553 l 708 0 l 583 0 l 583 417 q 540 544 583 499 q 421 589 496 589 q 298 540 343 589 q 253 403 253 492 l 253 0 l 128 0 l 128 792 l 0 792 z "},"ĥ":{"ha":833,"x_min":-43,"x_max":708,"o":"m 128 0 l 128 1014 l 253 1014 l 253 618 l 254 618 q 317 736 264 694 q 457 778 369 778 q 640 707 572 778 q 708 514 708 636 l 708 0 l 583 0 l 583 500 q 540 627 583 582 q 421 672 496 672 q 298 624 343 672 q 253 486 253 575 l 253 0 l 128 0 m -43 1118 l 150 1313 l 265 1313 l 460 1118 l 322 1118 l 208 1226 l 97 1118 l -43 1118 z "},"i":{"ha":833,"x_min":118,"x_max":771,"o":"m 118 0 l 118 114 l 389 114 l 389 650 l 146 650 l 146 764 l 514 764 l 514 114 l 771 114 l 771 0 l 118 0 m 438 901 q 365 925 392 901 q 339 989 339 949 q 365 1055 339 1031 q 438 1079 392 1079 q 510 1055 483 1079 q 536 989 536 1031 q 510 925 536 949 q 438 901 483 901 z "},"ı":{"ha":833,"x_min":118,"x_max":771,"o":"m 118 0 l 118 114 l 389 114 l 389 650 l 146 650 l 146 764 l 514 764 l 514 114 l 771 114 l 771 0 l 118 0 z "},"í":{"ha":833,"x_min":118,"x_max":771,"o":"m 118 0 l 118 114 l 389 114 l 389 650 l 146 650 l 146 764 l 514 764 l 514 114 l 771 114 l 771 0 l 118 0 m 357 896 l 504 1090 l 639 1090 l 485 896 l 357 896 z "},"ĭ":{"ha":833,"x_min":118,"x_max":771,"o":"m 118 0 l 118 114 l 389 114 l 389 650 l 146 650 l 146 764 l 514 764 l 514 114 l 771 114 l 771 0 l 118 0 m 438 889 q 276 944 338 889 q 215 1090 215 1000 l 314 1090 q 347 1003 314 1036 q 436 969 381 969 q 527 1003 493 969 q 561 1090 561 1036 l 660 1090 q 599 944 660 1000 q 438 889 538 889 z "},"ǐ":{"ha":833,"x_min":118,"x_max":771,"o":"m 118 0 l 118 114 l 389 114 l 389 650 l 146 650 l 146 764 l 514 764 l 514 114 l 771 114 l 771 0 l 118 0 m 381 896 l 186 1090 l 324 1090 l 438 982 l 549 1090 l 689 1090 l 496 896 l 381 896 z "},"î":{"ha":833,"x_min":118,"x_max":771,"o":"m 118 0 l 118 114 l 389 114 l 389 650 l 146 650 l 146 764 l 514 764 l 514 114 l 771 114 l 771 0 l 118 0 m 186 896 l 379 1090 l 494 1090 l 689 896 l 551 896 l 438 1004 l 326 896 l 186 896 z "},"ï":{"ha":833,"x_min":118,"x_max":771,"o":"m 118 0 l 118 114 l 389 114 l 389 650 l 146 650 l 146 764 l 514 764 l 514 114 l 771 114 l 771 0 l 118 0 m 592 901 q 527 925 551 901 q 503 989 503 949 q 527 1055 503 1031 q 592 1079 551 1079 q 656 1055 632 1079 q 681 989 681 1031 q 656 925 681 949 q 592 901 632 901 m 283 901 q 219 925 243 901 q 194 989 194 949 q 219 1055 194 1031 q 283 1079 243 1079 q 348 1055 324 1079 q 372 989 372 1031 q 348 925 372 949 q 283 901 324 901 z "},"ị":{"ha":833,"x_min":118,"x_max":771,"o":"m 118 0 l 118 114 l 389 114 l 389 650 l 146 650 l 146 764 l 514 764 l 514 114 l 771 114 l 771 0 l 118 0 m 438 901 q 365 925 392 901 q 339 989 339 949 q 365 1055 339 1031 q 438 1079 392 1079 q 510 1055 483 1079 q 536 989 536 1031 q 510 925 536 949 q 438 901 483 901 m 438 -296 q 365 -272 392 -296 q 339 -208 339 -249 q 365 -142 339 -167 q 438 -118 392 -118 q 510 -142 483 -118 q 536 -208 536 -167 q 510 -272 536 -249 q 438 -296 483 -296 z "},"ì":{"ha":833,"x_min":118,"x_max":771,"o":"m 118 0 l 118 114 l 389 114 l 389 650 l 146 650 l 146 764 l 514 764 l 514 114 l 771 114 l 771 0 l 118 0 m 392 896 l 232 1090 l 371 1090 l 524 896 l 392 896 z "},"ỉ":{"ha":833,"x_min":118,"x_max":771,"o":"m 118 0 l 118 114 l 389 114 l 389 650 l 146 650 l 146 764 l 514 764 l 514 114 l 771 114 l 771 0 l 118 0 m 379 896 l 449 983 q 468 1028 468 1010 q 424 1056 468 1056 l 313 1056 l 313 1146 l 458 1146 q 544 1119 511 1146 q 576 1043 576 1092 q 553 968 576 999 l 497 896 l 379 896 z "},"ī":{"ha":833,"x_min":118,"x_max":771,"o":"m 118 0 l 118 114 l 389 114 l 389 650 l 146 650 l 146 764 l 514 764 l 514 114 l 771 114 l 771 0 l 118 0 m 215 931 l 215 1035 l 660 1035 l 660 931 l 215 931 z "},"į":{"ha":833,"x_min":118,"x_max":771,"o":"m 438 901 q 365 925 392 901 q 339 989 339 949 q 365 1055 339 1031 q 438 1079 392 1079 q 510 1055 483 1079 q 536 989 536 1031 q 510 925 536 949 q 438 901 483 901 m 118 0 l 118 114 l 389 114 l 389 650 l 146 650 l 146 764 l 514 764 l 514 114 l 771 114 l 771 0 l 483 0 q 417 -69 438 -37 q 396 -129 396 -100 q 417 -179 396 -160 q 472 -199 438 -199 l 556 -199 l 556 -282 l 447 -282 q 324 -245 371 -282 q 278 -153 278 -208 q 300 -79 278 -117 q 376 0 322 -42 l 118 0 z "},"ĩ":{"ha":833,"x_min":118,"x_max":771,"o":"m 118 0 l 118 114 l 389 114 l 389 650 l 146 650 l 146 764 l 514 764 l 514 114 l 771 114 l 771 0 l 118 0 m 535 903 q 467 917 493 903 q 422 951 440 932 q 388 985 404 971 q 347 1000 371 1000 q 306 951 306 1000 l 306 910 l 215 910 l 215 951 q 250 1049 215 1014 q 340 1083 285 1083 q 408 1069 382 1083 q 453 1035 435 1054 q 488 1001 471 1015 q 528 986 504 986 q 569 1035 569 986 l 569 1076 l 660 1076 l 660 1035 q 626 938 660 972 q 535 903 592 903 z "},"j":{"ha":833,"x_min":97,"x_max":633,"o":"m 97 -250 l 97 -135 l 297 -135 q 431 -88 383 -135 q 479 43 479 -42 l 479 650 l 125 650 l 125 764 l 604 764 l 604 43 q 521 -171 604 -92 q 297 -250 438 -250 l 97 -250 m 535 901 q 463 925 489 901 q 436 989 436 949 q 463 1055 436 1031 q 535 1079 489 1079 q 607 1055 581 1079 q 633 989 633 1031 q 607 925 633 949 q 535 901 581 901 z "},"ȷ":{"ha":833,"x_min":97,"x_max":604,"o":"m 97 -250 l 97 -135 l 297 -135 q 431 -88 383 -135 q 479 43 479 -42 l 479 650 l 125 650 l 125 764 l 604 764 l 604 43 q 521 -171 604 -92 q 297 -250 438 -250 l 97 -250 z "},"ĵ":{"ha":833,"x_min":97,"x_max":786,"o":"m 97 -250 l 97 -135 l 297 -135 q 431 -88 383 -135 q 479 43 479 -42 l 479 650 l 125 650 l 125 764 l 604 764 l 604 43 q 521 -171 604 -92 q 297 -250 438 -250 l 97 -250 m 283 896 l 476 1090 l 592 1090 l 786 896 l 649 896 l 535 1004 l 424 896 l 283 896 z "},"k":{"ha":833,"x_min":132,"x_max":774,"o":"m 132 0 l 132 1014 l 257 1014 l 257 449 l 404 449 l 626 764 l 769 764 l 513 400 l 774 0 l 628 0 l 406 340 l 257 340 l 257 0 l 132 0 z "},"ķ":{"ha":833,"x_min":132,"x_max":774,"o":"m 132 0 l 132 1014 l 257 1014 l 257 449 l 404 449 l 626 764 l 769 764 l 513 400 l 774 0 l 628 0 l 406 340 l 257 340 l 257 0 l 132 0 m 264 -333 l 396 -132 l 542 -132 l 396 -333 l 264 -333 z "},"ĸ":{"ha":833,"x_min":132,"x_max":774,"o":"m 132 0 l 132 764 l 257 764 l 257 449 l 404 449 l 626 764 l 769 764 l 513 400 l 774 0 l 628 0 l 406 340 l 257 340 l 257 0 l 132 0 z "},"l":{"ha":833,"x_min":42,"x_max":764,"o":"m 528 0 q 366 59 426 0 q 306 215 306 118 l 306 900 l 42 900 l 42 1014 l 431 1014 l 431 215 q 457 141 431 168 q 528 114 483 114 l 764 114 l 764 0 l 528 0 z "},"ĺ":{"ha":833,"x_min":42,"x_max":764,"o":"m 528 0 q 366 59 426 0 q 306 215 306 118 l 306 900 l 42 900 l 42 1014 l 431 1014 l 431 215 q 457 141 431 168 q 528 114 483 114 l 764 114 l 764 0 l 528 0 m 267 1125 l 414 1319 l 549 1319 l 394 1125 l 267 1125 z "},"ƛ":{"ha":833,"x_min":69,"x_max":764,"o":"m 69 0 l 353 751 l 347 764 l 125 653 l 125 764 l 311 857 l 250 1014 l 383 1014 l 421 913 l 653 1028 l 653 917 l 457 818 l 764 0 l 631 0 l 449 496 q 422 582 431 544 q 407 640 414 619 q 401 582 407 619 q 379 496 396 544 l 204 0 l 69 0 z "},"ľ":{"ha":833,"x_min":42,"x_max":965,"o":"m 528 0 q 366 59 426 0 q 306 215 306 118 l 306 900 l 42 900 l 42 1014 l 431 1014 l 431 215 q 457 141 431 168 q 528 114 483 114 l 764 114 l 764 0 l 528 0 m 833 1014 l 847 1264 l 965 1264 l 938 1014 l 833 1014 z "},"ļ":{"ha":833,"x_min":42,"x_max":764,"o":"m 528 0 q 366 59 426 0 q 306 215 306 118 l 306 900 l 42 900 l 42 1014 l 431 1014 l 431 215 q 457 141 431 168 q 528 114 483 114 l 764 114 l 764 0 l 528 0 m 292 -333 l 424 -132 l 569 -132 l 424 -333 l 292 -333 z "},"ŀ":{"ha":833,"x_min":14,"x_max":875,"o":"m 500 0 q 338 59 399 0 q 278 215 278 118 l 278 900 l 14 900 l 14 1014 l 403 1014 l 403 215 q 429 141 403 168 q 500 114 456 114 l 736 114 l 736 0 l 500 0 m 760 368 q 676 399 707 368 q 644 481 644 429 q 676 567 644 535 q 760 599 707 599 q 844 567 813 599 q 875 481 875 535 q 844 399 875 429 q 760 368 813 368 z "},"ł":{"ha":833,"x_min":42,"x_max":764,"o":"m 139 319 l 139 431 l 306 543 l 306 900 l 42 900 l 42 1014 l 431 1014 l 431 628 l 653 778 l 653 667 l 431 517 l 431 215 q 457 141 431 168 q 528 114 483 114 l 764 114 l 764 0 l 528 0 q 366 59 426 0 q 306 215 306 118 l 306 432 l 139 319 z "},"m":{"ha":833,"x_min":83,"x_max":750,"o":"m 83 0 l 83 764 l 193 764 l 193 672 l 201 672 q 245 749 211 719 q 329 778 279 778 q 408 749 375 778 q 456 672 442 721 l 464 672 q 508 749 474 719 q 594 778 543 778 q 707 723 664 778 q 750 581 750 668 l 750 0 l 635 0 l 635 582 q 613 656 635 631 q 551 682 592 682 q 489 656 511 682 q 467 583 467 631 l 467 0 l 367 0 l 367 582 q 344 656 367 631 q 281 682 321 682 q 220 656 242 682 q 199 583 199 631 l 199 0 l 83 0 z "},"n":{"ha":833,"x_min":128,"x_max":708,"o":"m 128 0 l 128 764 l 253 764 l 253 618 l 254 618 q 317 736 264 694 q 457 778 369 778 q 640 707 572 778 q 708 514 708 636 l 708 0 l 583 0 l 583 500 q 540 626 583 582 q 421 669 496 669 q 298 622 343 669 q 253 486 253 575 l 253 0 l 128 0 z "},"ń":{"ha":833,"x_min":128,"x_max":708,"o":"m 128 0 l 128 764 l 253 764 l 253 618 l 254 618 q 317 736 264 694 q 457 778 369 778 q 640 707 572 778 q 708 514 708 636 l 708 0 l 583 0 l 583 500 q 540 626 583 582 q 421 669 496 669 q 298 622 343 669 q 253 486 253 575 l 253 0 l 128 0 m 343 896 l 490 1090 l 625 1090 l 471 896 l 343 896 z "},"ŉ":{"ha":833,"x_min":-14,"x_max":708,"o":"m 128 0 l 128 764 l 253 764 l 253 618 l 254 618 q 317 736 264 694 q 457 778 369 778 q 640 707 572 778 q 708 514 708 636 l 708 0 l 583 0 l 583 500 q 540 626 583 582 q 421 669 496 669 q 298 622 343 669 q 253 486 253 575 l 253 0 l 128 0 m -14 896 l 118 1097 l 264 1097 l 118 896 l -14 896 z "},"ň":{"ha":833,"x_min":128,"x_max":708,"o":"m 128 0 l 128 764 l 253 764 l 253 618 l 254 618 q 317 736 264 694 q 457 778 369 778 q 640 707 572 778 q 708 514 708 636 l 708 0 l 583 0 l 583 500 q 540 626 583 582 q 421 669 496 669 q 298 622 343 669 q 253 486 253 575 l 253 0 l 128 0 m 367 896 l 172 1090 l 310 1090 l 424 982 l 535 1090 l 675 1090 l 482 896 l 367 896 z "},"ņ":{"ha":833,"x_min":128,"x_max":708,"o":"m 128 0 l 128 764 l 253 764 l 253 618 l 254 618 q 317 736 264 694 q 457 778 369 778 q 640 707 572 778 q 708 514 708 636 l 708 0 l 583 0 l 583 500 q 540 626 583 582 q 421 669 496 669 q 298 622 343 669 q 253 486 253 575 l 253 0 l 128 0 m 264 -333 l 396 -132 l 542 -132 l 396 -333 l 264 -333 z "},"ŋ":{"ha":833,"x_min":131,"x_max":706,"o":"m 333 -250 l 333 -136 l 421 -136 q 538 -94 494 -136 q 581 21 581 -51 l 581 500 q 538 627 581 582 q 421 672 496 672 q 299 624 343 672 q 256 486 256 575 l 256 0 l 131 0 l 131 764 l 256 764 l 256 618 l 257 618 q 317 736 265 694 q 457 778 369 778 q 639 707 572 778 q 706 514 706 636 l 706 21 q 628 -176 706 -101 q 421 -250 550 -250 l 333 -250 z "},"ñ":{"ha":833,"x_min":128,"x_max":708,"o":"m 128 0 l 128 764 l 253 764 l 253 618 l 254 618 q 317 736 264 694 q 457 778 369 778 q 640 707 572 778 q 708 514 708 636 l 708 0 l 583 0 l 583 500 q 540 626 583 582 q 421 669 496 669 q 298 622 343 669 q 253 486 253 575 l 253 0 l 128 0 m 521 903 q 453 917 479 903 q 408 951 426 932 q 374 985 390 971 q 333 1000 357 1000 q 292 951 292 1000 l 292 910 l 201 910 l 201 951 q 236 1049 201 1014 q 326 1083 271 1083 q 394 1069 368 1083 q 439 1035 421 1054 q 474 1001 457 1015 q 514 986 490 986 q 556 1035 556 986 l 556 1076 l 646 1076 l 646 1035 q 612 938 646 972 q 521 903 578 903 z "},"o":{"ha":833,"x_min":118,"x_max":715,"o":"m 417 -11 q 198 67 278 -11 q 118 281 118 146 l 118 483 q 198 697 118 619 q 417 775 278 775 q 635 697 556 775 q 715 485 715 619 l 715 281 q 635 67 715 146 q 417 -11 556 -11 m 417 100 q 544 146 499 100 q 590 281 590 192 l 590 483 q 544 618 590 572 q 417 664 499 664 q 290 618 336 664 q 243 483 243 572 l 243 281 q 290 146 243 192 q 417 100 336 100 z "},"ó":{"ha":833,"x_min":118,"x_max":715,"o":"m 417 -11 q 198 67 278 -11 q 118 281 118 146 l 118 483 q 198 697 118 619 q 417 775 278 775 q 635 697 556 775 q 715 485 715 619 l 715 281 q 635 67 715 146 q 417 -11 556 -11 m 417 100 q 544 146 499 100 q 590 281 590 192 l 590 483 q 544 618 590 572 q 417 664 499 664 q 290 618 336 664 q 243 483 243 572 l 243 281 q 290 146 243 192 q 417 100 336 100 m 336 896 l 483 1090 l 618 1090 l 464 896 l 336 896 z "},"ŏ":{"ha":833,"x_min":118,"x_max":715,"o":"m 417 -11 q 198 67 278 -11 q 118 281 118 146 l 118 483 q 198 697 118 619 q 417 775 278 775 q 635 697 556 775 q 715 485 715 619 l 715 281 q 635 67 715 146 q 417 -11 556 -11 m 417 100 q 544 146 499 100 q 590 281 590 192 l 590 483 q 544 618 590 572 q 417 664 499 664 q 290 618 336 664 q 243 483 243 572 l 243 281 q 290 146 243 192 q 417 100 336 100 m 417 889 q 256 944 317 889 q 194 1090 194 1000 l 293 1090 q 326 1003 293 1036 q 415 969 360 969 q 506 1003 472 969 q 540 1090 540 1036 l 639 1090 q 578 944 639 1000 q 417 889 517 889 z "},"ǒ":{"ha":833,"x_min":118,"x_max":715,"o":"m 417 -11 q 198 67 278 -11 q 118 281 118 146 l 118 483 q 198 697 118 619 q 417 775 278 775 q 635 697 556 775 q 715 485 715 619 l 715 281 q 635 67 715 146 q 417 -11 556 -11 m 417 100 q 544 146 499 100 q 590 281 590 192 l 590 483 q 544 618 590 572 q 417 664 499 664 q 290 618 336 664 q 243 483 243 572 l 243 281 q 290 146 243 192 q 417 100 336 100 m 360 896 l 165 1090 l 303 1090 l 417 982 l 528 1090 l 668 1090 l 475 896 l 360 896 z "},"ô":{"ha":833,"x_min":118,"x_max":715,"o":"m 417 -11 q 198 67 278 -11 q 118 281 118 146 l 118 483 q 198 697 118 619 q 417 775 278 775 q 635 697 556 775 q 715 485 715 619 l 715 281 q 635 67 715 146 q 417 -11 556 -11 m 417 100 q 544 146 499 100 q 590 281 590 192 l 590 483 q 544 618 590 572 q 417 664 499 664 q 290 618 336 664 q 243 483 243 572 l 243 281 q 290 146 243 192 q 417 100 336 100 m 165 896 l 358 1090 l 474 1090 l 668 896 l 531 896 l 417 1004 l 306 896 l 165 896 z "},"ố":{"ha":833,"x_min":118,"x_max":868,"o":"m 417 -11 q 198 67 278 -11 q 118 281 118 146 l 118 483 q 198 697 118 619 q 417 775 278 775 q 635 697 556 775 q 715 485 715 619 l 715 281 q 635 67 715 146 q 417 -11 556 -11 m 417 100 q 544 146 499 100 q 590 281 590 192 l 590 483 q 544 618 590 572 q 417 664 499 664 q 290 618 336 664 q 243 483 243 572 l 243 281 q 290 146 243 192 q 417 100 336 100 m 569 1056 l 729 1250 l 868 1250 l 701 1056 l 569 1056 m 167 896 l 358 1090 l 475 1090 l 668 896 l 528 896 l 417 1004 l 304 896 l 167 896 z "},"ộ":{"ha":833,"x_min":118,"x_max":715,"o":"m 417 -11 q 198 67 278 -11 q 118 281 118 146 l 118 483 q 198 697 118 619 q 417 775 278 775 q 635 697 556 775 q 715 485 715 619 l 715 281 q 635 67 715 146 q 417 -11 556 -11 m 417 100 q 544 146 499 100 q 590 281 590 192 l 590 483 q 544 618 590 572 q 417 664 499 664 q 290 618 336 664 q 243 483 243 572 l 243 281 q 290 146 243 192 q 417 100 336 100 m 417 -296 q 344 -272 371 -296 q 318 -208 318 -249 q 344 -142 318 -167 q 417 -118 371 -118 q 489 -142 463 -118 q 515 -208 515 -167 q 489 -272 515 -249 q 417 -296 463 -296 m 165 896 l 358 1090 l 474 1090 l 668 896 l 531 896 l 417 1004 l 306 896 l 165 896 z "},"ồ":{"ha":833,"x_min":118,"x_max":757,"o":"m 417 -11 q 198 67 278 -11 q 118 281 118 146 l 118 483 q 198 697 118 619 q 417 775 278 775 q 635 697 556 775 q 715 485 715 619 l 715 281 q 635 67 715 146 q 417 -11 556 -11 m 417 100 q 544 146 499 100 q 590 281 590 192 l 590 483 q 544 618 590 572 q 417 664 499 664 q 290 618 336 664 q 243 483 243 572 l 243 281 q 290 146 243 192 q 417 100 336 100 m 625 1056 l 444 1250 l 583 1250 l 757 1056 l 625 1056 m 167 896 l 358 1090 l 475 1090 l 668 896 l 528 896 l 417 1004 l 304 896 l 167 896 z "},"ổ":{"ha":833,"x_min":118,"x_max":764,"o":"m 417 -11 q 198 67 278 -11 q 118 281 118 146 l 118 483 q 198 697 118 619 q 417 775 278 775 q 635 697 556 775 q 715 485 715 619 l 715 281 q 635 67 715 146 q 417 -11 556 -11 m 417 100 q 544 146 499 100 q 590 281 590 192 l 590 483 q 544 618 590 572 q 417 664 499 664 q 290 618 336 664 q 243 483 243 572 l 243 281 q 290 146 243 192 q 417 100 336 100 m 588 1056 l 650 1140 q 663 1174 663 1160 q 618 1208 663 1208 l 549 1208 l 549 1292 l 625 1292 q 726 1264 689 1292 q 764 1188 764 1236 q 740 1125 764 1158 l 692 1056 l 588 1056 m 167 896 l 358 1090 l 475 1090 l 668 896 l 528 896 l 417 1004 l 304 896 l 167 896 z "},"ỗ":{"ha":833,"x_min":118,"x_max":715,"o":"m 417 -11 q 198 67 278 -11 q 118 281 118 146 l 118 483 q 198 697 118 619 q 417 775 278 775 q 635 697 556 775 q 715 485 715 619 l 715 281 q 635 67 715 146 q 417 -11 556 -11 m 417 100 q 544 146 499 100 q 590 281 590 192 l 590 483 q 544 618 590 572 q 417 664 499 664 q 290 618 336 664 q 243 483 243 572 l 243 281 q 290 146 243 192 q 417 100 336 100 m 508 1128 q 440 1141 465 1128 q 397 1172 414 1154 q 365 1202 381 1189 q 326 1215 350 1215 q 285 1174 285 1215 l 285 1139 l 194 1139 l 194 1167 q 231 1256 194 1222 q 325 1289 267 1289 q 395 1276 369 1289 q 437 1245 421 1263 q 468 1215 453 1228 q 507 1201 483 1201 q 549 1243 549 1201 l 549 1278 l 639 1278 l 639 1250 q 603 1161 639 1194 q 508 1128 567 1128 m 167 896 l 358 1090 l 475 1090 l 668 896 l 528 896 l 417 1004 l 304 896 l 167 896 z "},"ö":{"ha":833,"x_min":118,"x_max":715,"o":"m 417 -11 q 198 67 278 -11 q 118 281 118 146 l 118 483 q 198 697 118 619 q 417 775 278 775 q 635 697 556 775 q 715 485 715 619 l 715 281 q 635 67 715 146 q 417 -11 556 -11 m 417 100 q 544 146 499 100 q 590 281 590 192 l 590 483 q 544 618 590 572 q 417 664 499 664 q 290 618 336 664 q 243 483 243 572 l 243 281 q 290 146 243 192 q 417 100 336 100 m 571 901 q 506 925 531 901 q 482 989 482 949 q 506 1055 482 1031 q 571 1079 531 1079 q 635 1055 611 1079 q 660 989 660 1031 q 635 925 660 949 q 571 901 611 901 m 263 901 q 198 925 222 901 q 174 989 174 949 q 198 1055 174 1031 q 263 1079 222 1079 q 327 1055 303 1079 q 351 989 351 1031 q 327 925 351 949 q 263 901 303 901 z "},"ọ":{"ha":833,"x_min":118,"x_max":715,"o":"m 417 -11 q 198 67 278 -11 q 118 281 118 146 l 118 483 q 198 697 118 619 q 417 775 278 775 q 635 697 556 775 q 715 485 715 619 l 715 281 q 635 67 715 146 q 417 -11 556 -11 m 417 100 q 544 146 499 100 q 590 281 590 192 l 590 483 q 544 618 590 572 q 417 664 499 664 q 290 618 336 664 q 243 483 243 572 l 243 281 q 290 146 243 192 q 417 100 336 100 m 417 -296 q 344 -272 371 -296 q 318 -208 318 -249 q 344 -142 318 -167 q 417 -118 371 -118 q 489 -142 463 -118 q 515 -208 515 -167 q 489 -272 515 -249 q 417 -296 463 -296 z "},"ò":{"ha":833,"x_min":118,"x_max":715,"o":"m 417 -11 q 198 67 278 -11 q 118 281 118 146 l 118 483 q 198 697 118 619 q 417 775 278 775 q 635 697 556 775 q 715 485 715 619 l 715 281 q 635 67 715 146 q 417 -11 556 -11 m 417 100 q 544 146 499 100 q 590 281 590 192 l 590 483 q 544 618 590 572 q 417 664 499 664 q 290 618 336 664 q 243 483 243 572 l 243 281 q 290 146 243 192 q 417 100 336 100 m 371 896 l 211 1090 l 350 1090 l 503 896 l 371 896 z "},"ỏ":{"ha":833,"x_min":118,"x_max":715,"o":"m 417 -11 q 198 67 278 -11 q 118 281 118 146 l 118 483 q 198 697 118 619 q 417 775 278 775 q 635 697 556 775 q 715 485 715 619 l 715 281 q 635 67 715 146 q 417 -11 556 -11 m 417 100 q 544 146 499 100 q 590 281 590 192 l 590 483 q 544 618 590 572 q 417 664 499 664 q 290 618 336 664 q 243 483 243 572 l 243 281 q 290 146 243 192 q 417 100 336 100 m 358 896 l 428 983 q 447 1028 447 1010 q 403 1056 447 1056 l 292 1056 l 292 1146 l 438 1146 q 523 1119 490 1146 q 556 1043 556 1092 q 532 968 556 999 l 476 896 l 358 896 z "},"ơ":{"ha":833,"x_min":118,"x_max":750,"o":"m 417 -11 q 198 67 278 -11 q 118 281 118 146 l 118 483 q 198 697 118 619 q 417 775 278 775 q 582 736 513 775 l 597 736 q 646 785 646 736 l 646 889 l 750 889 l 750 778 q 728 703 750 735 q 668 657 707 672 q 715 485 715 586 l 715 281 q 635 67 715 146 q 417 -11 556 -11 m 417 100 q 544 146 499 100 q 590 281 590 192 l 590 483 q 544 618 590 572 q 417 664 499 664 q 290 618 336 664 q 243 483 243 572 l 243 281 q 290 146 243 192 q 417 100 336 100 z "},"ớ":{"ha":833,"x_min":118,"x_max":750,"o":"m 417 -11 q 198 67 278 -11 q 118 281 118 146 l 118 483 q 198 697 118 619 q 417 775 278 775 q 582 736 513 775 l 597 736 q 646 785 646 736 l 646 889 l 750 889 l 750 778 q 728 703 750 735 q 668 657 707 672 q 715 485 715 586 l 715 281 q 635 67 715 146 q 417 -11 556 -11 m 417 100 q 544 146 499 100 q 590 281 590 192 l 590 483 q 544 618 590 572 q 417 664 499 664 q 290 618 336 664 q 243 483 243 572 l 243 281 q 290 146 243 192 q 417 100 336 100 m 322 896 l 469 1090 l 604 1090 l 450 896 l 322 896 z "},"ợ":{"ha":833,"x_min":118,"x_max":750,"o":"m 417 -11 q 198 67 278 -11 q 118 281 118 146 l 118 483 q 198 697 118 619 q 417 775 278 775 q 582 736 513 775 l 597 736 q 646 785 646 736 l 646 889 l 750 889 l 750 778 q 728 703 750 735 q 668 657 707 672 q 715 485 715 586 l 715 281 q 635 67 715 146 q 417 -11 556 -11 m 417 100 q 544 146 499 100 q 590 281 590 192 l 590 483 q 544 618 590 572 q 417 664 499 664 q 290 618 336 664 q 243 483 243 572 l 243 281 q 290 146 243 192 q 417 100 336 100 m 417 -296 q 344 -272 371 -296 q 318 -208 318 -249 q 344 -142 318 -167 q 417 -118 371 -118 q 489 -142 463 -118 q 515 -208 515 -167 q 489 -272 515 -249 q 417 -296 463 -296 z "},"ờ":{"ha":833,"x_min":118,"x_max":750,"o":"m 417 -11 q 198 67 278 -11 q 118 281 118 146 l 118 483 q 198 697 118 619 q 417 775 278 775 q 582 736 513 775 l 597 736 q 646 785 646 736 l 646 889 l 750 889 l 750 778 q 728 703 750 735 q 668 657 707 672 q 715 485 715 586 l 715 281 q 635 67 715 146 q 417 -11 556 -11 m 417 100 q 544 146 499 100 q 590 281 590 192 l 590 483 q 544 618 590 572 q 417 664 499 664 q 290 618 336 664 q 243 483 243 572 l 243 281 q 290 146 243 192 q 417 100 336 100 m 357 896 l 197 1090 l 336 1090 l 489 896 l 357 896 z "},"ở":{"ha":833,"x_min":118,"x_max":750,"o":"m 417 -11 q 198 67 278 -11 q 118 281 118 146 l 118 483 q 198 697 118 619 q 417 775 278 775 q 582 736 513 775 l 597 736 q 646 785 646 736 l 646 889 l 750 889 l 750 778 q 728 703 750 735 q 668 657 707 672 q 715 485 715 586 l 715 281 q 635 67 715 146 q 417 -11 556 -11 m 417 100 q 544 146 499 100 q 590 281 590 192 l 590 483 q 544 618 590 572 q 417 664 499 664 q 290 618 336 664 q 243 483 243 572 l 243 281 q 290 146 243 192 q 417 100 336 100 m 344 896 l 414 983 q 433 1028 433 1010 q 389 1056 433 1056 l 278 1056 l 278 1146 l 424 1146 q 509 1119 476 1146 q 542 1043 542 1092 q 518 968 542 999 l 463 896 l 344 896 z "},"ỡ":{"ha":833,"x_min":118,"x_max":750,"o":"m 417 -11 q 198 67 278 -11 q 118 281 118 146 l 118 483 q 198 697 118 619 q 417 775 278 775 q 582 736 513 775 l 597 736 q 646 785 646 736 l 646 889 l 750 889 l 750 778 q 728 703 750 735 q 668 657 707 672 q 715 485 715 586 l 715 281 q 635 67 715 146 q 417 -11 556 -11 m 417 100 q 544 146 499 100 q 590 281 590 192 l 590 483 q 544 618 590 572 q 417 664 499 664 q 290 618 336 664 q 243 483 243 572 l 243 281 q 290 146 243 192 q 417 100 336 100 m 500 903 q 432 917 458 903 q 388 951 406 932 q 353 985 369 971 q 313 1000 336 1000 q 271 951 271 1000 l 271 910 l 181 910 l 181 951 q 215 1049 181 1014 q 306 1083 250 1083 q 374 1069 347 1083 q 418 1035 400 1054 q 453 1001 436 1015 q 493 986 469 986 q 535 1035 535 986 l 535 1076 l 625 1076 l 625 1035 q 591 938 625 972 q 500 903 557 903 z "},"ő":{"ha":833,"x_min":118,"x_max":733,"o":"m 417 -11 q 198 67 278 -11 q 118 281 118 146 l 118 483 q 198 697 118 619 q 417 775 278 775 q 635 697 556 775 q 715 485 715 619 l 715 281 q 635 67 715 146 q 417 -11 556 -11 m 417 100 q 544 146 499 100 q 590 281 590 192 l 590 483 q 544 618 590 572 q 417 664 499 664 q 290 618 336 664 q 243 483 243 572 l 243 281 q 290 146 243 192 q 417 100 336 100 m 453 896 l 606 1090 l 733 1090 l 574 896 l 453 896 m 204 896 l 357 1090 l 485 1090 l 325 896 l 204 896 z "},"ō":{"ha":833,"x_min":118,"x_max":715,"o":"m 417 -11 q 198 67 278 -11 q 118 281 118 146 l 118 483 q 198 697 118 619 q 417 775 278 775 q 635 697 556 775 q 715 485 715 619 l 715 281 q 635 67 715 146 q 417 -11 556 -11 m 417 100 q 544 146 499 100 q 590 281 590 192 l 590 483 q 544 618 590 572 q 417 664 499 664 q 290 618 336 664 q 243 483 243 572 l 243 281 q 290 146 243 192 q 417 100 336 100 m 194 931 l 194 1035 l 639 1035 l 639 931 l 194 931 z "},"ǫ":{"ha":833,"x_min":122,"x_max":711,"o":"m 517 -282 q 394 -245 440 -282 q 347 -153 347 -208 q 365 -90 347 -122 q 429 -14 382 -57 l 417 -14 q 201 64 281 -14 q 122 278 122 142 l 122 486 q 201 700 122 622 q 417 778 281 778 q 632 701 553 778 q 711 488 711 624 l 711 278 q 679 128 711 192 q 588 29 647 65 l 554 1 q 486 -69 507 -37 q 465 -129 465 -100 q 486 -179 465 -160 q 542 -199 507 -199 l 625 -199 l 625 -282 l 517 -282 m 417 97 q 542 143 499 97 q 586 278 586 189 l 586 486 q 542 621 586 575 q 417 667 499 667 q 292 621 336 667 q 247 486 247 575 l 247 278 q 292 143 247 189 q 417 97 336 97 z "},"ø":{"ha":833,"x_min":49,"x_max":785,"o":"m 49 -42 l 161 117 q 122 278 122 185 l 122 486 q 201 700 122 622 q 417 778 281 778 q 594 731 522 778 l 658 819 l 785 819 l 668 656 q 711 488 711 586 l 711 278 q 632 64 711 142 q 417 -14 553 -14 q 231 39 306 -14 l 174 -42 l 49 -42 m 240 278 q 244 235 240 254 l 528 635 q 417 667 483 667 q 287 619 333 667 q 240 486 240 572 l 240 278 m 417 97 q 547 145 500 97 q 593 278 593 193 l 593 486 q 588 542 593 515 l 299 135 q 417 97 343 97 z "},"ǿ":{"ha":833,"x_min":49,"x_max":785,"o":"m 49 -42 l 161 117 q 122 278 122 185 l 122 486 q 201 700 122 622 q 417 778 281 778 q 594 731 522 778 l 658 819 l 785 819 l 668 656 q 711 488 711 586 l 711 278 q 632 64 711 142 q 417 -14 553 -14 q 231 39 306 -14 l 174 -42 l 49 -42 m 240 278 q 244 235 240 254 l 528 635 q 417 667 483 667 q 287 619 333 667 q 240 486 240 572 l 240 278 m 417 97 q 547 145 500 97 q 593 278 593 193 l 593 486 q 588 542 593 515 l 299 135 q 417 97 343 97 m 336 896 l 483 1090 l 618 1090 l 464 896 l 336 896 z "},"õ":{"ha":833,"x_min":118,"x_max":715,"o":"m 417 -11 q 198 67 278 -11 q 118 281 118 146 l 118 483 q 198 697 118 619 q 417 775 278 775 q 635 697 556 775 q 715 485 715 619 l 715 281 q 635 67 715 146 q 417 -11 556 -11 m 417 100 q 544 146 499 100 q 590 281 590 192 l 590 483 q 544 618 590 572 q 417 664 499 664 q 290 618 336 664 q 243 483 243 572 l 243 281 q 290 146 243 192 q 417 100 336 100 m 514 903 q 446 917 472 903 q 401 951 419 932 q 367 985 383 971 q 326 1000 350 1000 q 285 951 285 1000 l 285 910 l 194 910 l 194 951 q 229 1049 194 1014 q 319 1083 264 1083 q 388 1069 361 1083 q 432 1035 414 1054 q 467 1001 450 1015 q 507 986 483 986 q 549 1035 549 986 l 549 1076 l 639 1076 l 639 1035 q 605 938 639 972 q 514 903 571 903 z "},"œ":{"ha":833,"x_min":49,"x_max":785,"o":"m 250 -14 q 103 47 157 -14 q 49 208 49 107 l 49 556 q 103 718 49 658 q 250 778 157 778 q 341 760 306 778 q 394 716 376 742 q 414 667 413 690 l 419 667 q 440 716 422 690 q 492 760 457 742 q 583 778 528 778 q 731 718 676 778 q 785 556 785 658 l 785 347 l 476 347 l 476 208 q 501 124 476 156 q 569 93 526 93 q 631 115 606 93 q 663 174 657 138 l 781 174 q 714 37 767 88 q 583 -14 661 -14 q 492 4 528 -14 q 440 48 457 22 q 419 97 422 74 l 414 97 q 394 48 413 74 q 341 4 376 22 q 250 -14 306 -14 m 264 93 q 332 124 307 93 q 357 208 357 156 l 357 556 q 332 640 357 608 q 264 671 307 671 q 193 640 219 671 q 167 556 167 608 l 167 208 q 193 124 167 156 q 264 93 219 93 m 476 449 l 667 449 l 667 556 q 640 640 667 608 q 569 671 614 671 q 501 640 526 671 q 476 556 476 608 l 476 449 z "},"p":{"ha":833,"x_min":129,"x_max":717,"o":"m 129 -250 l 129 764 l 254 764 l 254 618 l 256 618 q 322 735 265 693 q 464 778 378 778 q 648 702 579 778 q 717 494 717 626 l 717 271 q 648 63 717 139 q 464 -14 579 -14 q 322 29 378 -14 q 256 146 267 72 l 251 146 l 254 -28 l 254 -250 l 129 -250 m 422 94 q 547 142 501 94 q 592 278 592 189 l 592 486 q 547 622 592 575 q 422 669 501 669 q 300 621 346 669 q 254 486 254 572 l 254 278 q 300 143 254 192 q 422 94 346 94 z "},"þ":{"ha":833,"x_min":121,"x_max":708,"o":"m 121 -236 l 121 1014 l 246 1014 l 246 792 l 243 618 l 247 618 q 313 735 257 692 q 454 778 368 778 q 639 701 569 778 q 708 493 708 625 l 708 269 q 639 63 708 139 q 454 -14 569 -14 q 313 28 368 -14 q 247 146 257 71 l 246 146 l 246 -236 l 121 -236 m 413 94 q 538 142 492 94 q 583 278 583 189 l 583 486 q 538 622 583 575 q 413 669 492 669 q 291 621 336 669 q 246 486 246 572 l 246 278 q 291 143 246 192 q 413 94 336 94 z "},"q":{"ha":833,"x_min":122,"x_max":706,"o":"m 581 -250 l 581 -28 l 583 146 l 579 146 q 514 29 569 72 q 372 -14 458 -14 q 190 63 257 -14 q 122 271 122 139 l 122 494 q 190 702 122 626 q 372 778 258 778 q 514 735 458 778 q 579 618 569 693 l 581 618 l 581 764 l 706 764 l 706 -250 l 581 -250 m 414 94 q 536 143 492 94 q 581 278 581 192 l 581 486 q 536 621 581 572 q 414 669 492 669 q 291 622 335 669 q 247 486 247 575 l 247 278 q 291 142 247 189 q 414 94 335 94 z "},"r":{"ha":833,"x_min":151,"x_max":742,"o":"m 151 0 l 151 764 l 276 764 l 276 618 l 278 618 q 340 736 288 694 q 481 778 393 778 q 671 702 600 778 q 742 497 742 626 l 742 444 l 617 444 l 617 486 q 572 622 617 574 q 443 669 528 669 q 276 486 276 669 l 276 0 l 151 0 z "},"ŕ":{"ha":833,"x_min":151,"x_max":742,"o":"m 151 0 l 151 764 l 276 764 l 276 618 l 278 618 q 340 736 288 694 q 481 778 393 778 q 671 702 600 778 q 742 497 742 626 l 742 444 l 617 444 l 617 486 q 572 622 617 574 q 443 669 528 669 q 276 486 276 669 l 276 0 l 151 0 m 364 896 l 511 1090 l 646 1090 l 492 896 l 364 896 z "},"ř":{"ha":833,"x_min":151,"x_max":742,"o":"m 151 0 l 151 764 l 276 764 l 276 618 l 278 618 q 340 736 288 694 q 481 778 393 778 q 671 702 600 778 q 742 497 742 626 l 742 444 l 617 444 l 617 486 q 572 622 617 574 q 443 669 528 669 q 276 486 276 669 l 276 0 l 151 0 m 388 896 l 193 1090 l 331 1090 l 444 982 l 556 1090 l 696 1090 l 503 896 l 388 896 z "},"ŗ":{"ha":833,"x_min":49,"x_max":742,"o":"m 151 0 l 151 764 l 276 764 l 276 618 l 278 618 q 340 736 288 694 q 481 778 393 778 q 671 702 600 778 q 742 497 742 626 l 742 444 l 617 444 l 617 486 q 572 622 617 574 q 443 669 528 669 q 276 486 276 669 l 276 0 l 151 0 m 49 -333 l 181 -132 l 326 -132 l 181 -333 l 49 -333 z "},"s":{"ha":833,"x_min":125,"x_max":722,"o":"m 393 -11 q 200 43 275 -11 q 125 192 125 97 l 253 192 q 294 124 253 149 q 396 100 335 100 l 454 100 q 564 130 528 100 q 600 210 600 160 q 566 287 600 258 q 468 325 532 315 l 365 342 q 197 414 251 361 q 143 560 143 467 q 210 719 143 664 q 404 775 278 775 l 457 775 q 644 723 574 775 q 714 585 714 671 l 586 585 q 551 642 586 621 q 454 664 515 664 l 401 664 q 301 637 336 664 q 265 560 265 610 q 383 457 265 476 l 486 440 q 666 368 610 421 q 722 215 722 315 q 655 49 722 110 q 451 -11 588 -11 l 393 -11 z "},"ś":{"ha":833,"x_min":125,"x_max":722,"o":"m 393 -11 q 200 43 275 -11 q 125 192 125 97 l 253 192 q 294 124 253 149 q 396 100 335 100 l 454 100 q 564 130 528 100 q 600 210 600 160 q 566 287 600 258 q 468 325 532 315 l 365 342 q 197 414 251 361 q 143 560 143 467 q 210 719 143 664 q 404 775 278 775 l 457 775 q 644 723 574 775 q 714 585 714 671 l 586 585 q 551 642 586 621 q 454 664 515 664 l 401 664 q 301 637 336 664 q 265 560 265 610 q 383 457 265 476 l 486 440 q 666 368 610 421 q 722 215 722 315 q 655 49 722 110 q 451 -11 588 -11 l 393 -11 m 336 896 l 483 1090 l 618 1090 l 464 896 l 336 896 z "},"š":{"ha":833,"x_min":125,"x_max":722,"o":"m 393 -11 q 200 43 275 -11 q 125 192 125 97 l 253 192 q 294 124 253 149 q 396 100 335 100 l 454 100 q 564 130 528 100 q 600 210 600 160 q 566 287 600 258 q 468 325 532 315 l 365 342 q 197 414 251 361 q 143 560 143 467 q 210 719 143 664 q 404 775 278 775 l 457 775 q 644 723 574 775 q 714 585 714 671 l 586 585 q 551 642 586 621 q 454 664 515 664 l 401 664 q 301 637 336 664 q 265 560 265 610 q 383 457 265 476 l 486 440 q 666 368 610 421 q 722 215 722 315 q 655 49 722 110 q 451 -11 588 -11 l 393 -11 m 360 896 l 165 1090 l 303 1090 l 417 982 l 528 1090 l 668 1090 l 475 896 l 360 896 z "},"ş":{"ha":833,"x_min":125,"x_max":722,"o":"m 299 -282 l 299 -206 l 396 -206 q 445 -190 426 -206 q 464 -156 464 -174 q 426 -114 464 -132 q 318 -96 388 -96 l 350 -10 q 188 53 250 0 q 125 192 125 106 l 253 192 q 294 124 253 149 q 396 100 335 100 l 454 100 q 564 130 528 100 q 600 210 600 160 q 566 287 600 258 q 468 325 532 315 l 365 342 q 197 414 251 361 q 143 560 143 467 q 210 719 143 664 q 404 775 278 775 l 457 775 q 644 723 574 775 q 714 585 714 671 l 586 585 q 551 642 586 621 q 454 664 515 664 l 401 664 q 301 637 336 664 q 265 560 265 610 q 383 457 265 476 l 486 440 q 666 368 610 421 q 722 215 722 315 q 655 49 722 110 q 451 -11 588 -11 l 429 -11 l 417 -49 q 492 -67 453 -53 q 557 -106 531 -81 q 583 -167 583 -131 q 538 -248 583 -214 q 417 -282 492 -282 l 299 -282 z "},"ŝ":{"ha":833,"x_min":125,"x_max":722,"o":"m 393 -11 q 200 43 275 -11 q 125 192 125 97 l 253 192 q 294 124 253 149 q 396 100 335 100 l 454 100 q 564 130 528 100 q 600 210 600 160 q 566 287 600 258 q 468 325 532 315 l 365 342 q 197 414 251 361 q 143 560 143 467 q 210 719 143 664 q 404 775 278 775 l 457 775 q 644 723 574 775 q 714 585 714 671 l 586 585 q 551 642 586 621 q 454 664 515 664 l 401 664 q 301 637 336 664 q 265 560 265 610 q 383 457 265 476 l 486 440 q 666 368 610 421 q 722 215 722 315 q 655 49 722 110 q 451 -11 588 -11 l 393 -11 m 165 896 l 358 1090 l 474 1090 l 668 896 l 531 896 l 417 1004 l 306 896 l 165 896 z "},"ș":{"ha":833,"x_min":125,"x_max":722,"o":"m 393 -11 q 200 43 275 -11 q 125 192 125 97 l 253 192 q 294 124 253 149 q 396 100 335 100 l 454 100 q 564 130 528 100 q 600 210 600 160 q 566 287 600 258 q 468 325 532 315 l 365 342 q 197 414 251 361 q 143 560 143 467 q 210 719 143 664 q 404 775 278 775 l 457 775 q 644 723 574 775 q 714 585 714 671 l 586 585 q 551 642 586 621 q 454 664 515 664 l 401 664 q 301 637 336 664 q 265 560 265 610 q 383 457 265 476 l 486 440 q 666 368 610 421 q 722 215 722 315 q 655 49 722 110 q 451 -11 588 -11 l 393 -11 m 264 -333 l 396 -132 l 542 -132 l 396 -333 l 264 -333 z "},"ß":{"ha":833,"x_min":128,"x_max":736,"o":"m 128 0 l 128 742 q 164 892 128 828 q 266 992 200 957 q 421 1028 332 1028 q 635 961 554 1028 q 717 769 717 894 q 674 626 717 686 q 557 543 632 565 q 688 454 640 521 q 736 289 736 388 q 699 139 736 204 q 594 37 661 74 q 438 0 528 0 l 346 0 l 346 114 l 424 114 q 556 163 507 114 q 604 293 604 213 q 556 419 604 374 q 424 465 508 465 l 363 465 l 363 574 l 421 574 q 542 622 499 574 q 586 744 586 671 q 542 869 586 825 q 421 914 497 914 q 299 868 344 914 q 253 742 253 822 l 253 0 l 128 0 z "},"ſ":{"ha":833,"x_min":229,"x_max":708,"o":"m 229 0 l 229 793 q 294 953 229 892 q 464 1014 358 1014 l 708 1014 l 708 903 l 464 903 q 385 872 415 903 q 354 792 354 842 l 354 0 l 229 0 z "},"t":{"ha":833,"x_min":76,"x_max":722,"o":"m 500 0 q 349 55 406 0 q 292 201 292 110 l 292 650 l 76 650 l 76 764 l 292 764 l 292 979 l 417 979 l 417 764 l 722 764 l 722 650 l 417 650 l 417 201 q 440 138 417 163 q 500 114 463 114 l 708 114 l 708 0 l 500 0 z "},"ŧ":{"ha":833,"x_min":76,"x_max":722,"o":"m 118 332 l 118 436 l 292 436 l 292 650 l 76 650 l 76 764 l 292 764 l 292 979 l 417 979 l 417 764 l 722 764 l 722 650 l 417 650 l 417 436 l 660 436 l 660 332 l 417 332 l 417 201 q 440 138 417 163 q 500 114 463 114 l 708 114 l 708 0 l 500 0 q 349 55 406 0 q 292 201 292 110 l 292 332 l 118 332 z "},"ť":{"ha":833,"x_min":76,"x_max":767,"o":"m 517 861 l 642 1078 l 767 1078 l 628 861 l 517 861 m 500 0 q 349 55 406 0 q 292 201 292 110 l 292 650 l 76 650 l 76 764 l 292 764 l 292 979 l 417 979 l 417 764 l 722 764 l 722 650 l 417 650 l 417 201 q 440 138 417 163 q 500 114 463 114 l 708 114 l 708 0 l 500 0 z "},"ţ":{"ha":833,"x_min":76,"x_max":722,"o":"m 368 -282 l 368 -206 l 465 -206 q 515 -190 496 -206 q 533 -156 533 -174 q 495 -114 533 -132 q 388 -96 457 -96 l 426 10 q 328 79 364 29 q 292 201 292 129 l 292 650 l 76 650 l 76 764 l 292 764 l 292 979 l 417 979 l 417 764 l 722 764 l 722 650 l 417 650 l 417 201 q 440 138 417 163 q 500 114 463 114 l 708 114 l 708 0 l 503 0 l 486 -49 q 561 -67 522 -53 q 626 -106 600 -81 q 653 -167 653 -131 q 607 -248 653 -214 q 486 -282 561 -282 l 368 -282 z "},"ț":{"ha":833,"x_min":76,"x_max":722,"o":"m 500 0 q 349 55 406 0 q 292 201 292 110 l 292 650 l 76 650 l 76 764 l 292 764 l 292 979 l 417 979 l 417 764 l 722 764 l 722 650 l 417 650 l 417 201 q 440 138 417 163 q 500 114 463 114 l 708 114 l 708 0 l 500 0 m 347 -333 l 479 -132 l 625 -132 l 479 -333 l 347 -333 z "},"u":{"ha":833,"x_min":125,"x_max":708,"o":"m 415 -14 q 204 65 283 -14 q 125 278 125 143 l 125 764 l 250 764 l 250 278 q 294 144 250 192 q 415 96 339 96 q 538 144 493 96 q 583 278 583 192 l 583 764 l 708 764 l 708 278 q 628 65 708 143 q 415 -14 547 -14 z "},"ú":{"ha":833,"x_min":125,"x_max":708,"o":"m 415 -14 q 204 65 283 -14 q 125 278 125 143 l 125 764 l 250 764 l 250 278 q 294 144 250 192 q 415 96 339 96 q 538 144 493 96 q 583 278 583 192 l 583 764 l 708 764 l 708 278 q 628 65 708 143 q 415 -14 547 -14 m 336 896 l 483 1090 l 618 1090 l 464 896 l 336 896 z "},"ŭ":{"ha":833,"x_min":125,"x_max":708,"o":"m 415 -14 q 204 65 283 -14 q 125 278 125 143 l 125 764 l 250 764 l 250 278 q 294 144 250 192 q 415 96 339 96 q 538 144 493 96 q 583 278 583 192 l 583 764 l 708 764 l 708 278 q 628 65 708 143 q 415 -14 547 -14 m 417 889 q 256 944 317 889 q 194 1090 194 1000 l 293 1090 q 326 1003 293 1036 q 415 969 360 969 q 506 1003 472 969 q 540 1090 540 1036 l 639 1090 q 578 944 639 1000 q 417 889 517 889 z "},"ǔ":{"ha":833,"x_min":125,"x_max":708,"o":"m 415 -14 q 204 65 283 -14 q 125 278 125 143 l 125 764 l 250 764 l 250 278 q 294 144 250 192 q 415 96 339 96 q 538 144 493 96 q 583 278 583 192 l 583 764 l 708 764 l 708 278 q 628 65 708 143 q 415 -14 547 -14 m 360 896 l 165 1090 l 303 1090 l 417 982 l 528 1090 l 668 1090 l 475 896 l 360 896 z "},"û":{"ha":833,"x_min":125,"x_max":708,"o":"m 415 -14 q 204 65 283 -14 q 125 278 125 143 l 125 764 l 250 764 l 250 278 q 294 144 250 192 q 415 96 339 96 q 538 144 493 96 q 583 278 583 192 l 583 764 l 708 764 l 708 278 q 628 65 708 143 q 415 -14 547 -14 m 165 896 l 358 1090 l 474 1090 l 668 896 l 531 896 l 417 1004 l 306 896 l 165 896 z "},"ü":{"ha":833,"x_min":125,"x_max":708,"o":"m 415 -14 q 204 65 283 -14 q 125 278 125 143 l 125 764 l 250 764 l 250 278 q 294 144 250 192 q 415 96 339 96 q 538 144 493 96 q 583 278 583 192 l 583 764 l 708 764 l 708 278 q 628 65 708 143 q 415 -14 547 -14 m 571 901 q 506 925 531 901 q 482 989 482 949 q 506 1055 482 1031 q 571 1079 531 1079 q 635 1055 611 1079 q 660 989 660 1031 q 635 925 660 949 q 571 901 611 901 m 263 901 q 198 925 222 901 q 174 989 174 949 q 198 1055 174 1031 q 263 1079 222 1079 q 327 1055 303 1079 q 351 989 351 1031 q 327 925 351 949 q 263 901 303 901 z "},"ǘ":{"ha":833,"x_min":125,"x_max":708,"o":"m 415 -14 q 204 65 283 -14 q 125 278 125 143 l 125 764 l 250 764 l 250 278 q 294 144 250 192 q 415 96 339 96 q 538 144 493 96 q 583 278 583 192 l 583 764 l 708 764 l 708 278 q 628 65 708 143 q 415 -14 547 -14 m 571 901 q 506 925 531 901 q 482 989 482 949 q 506 1055 482 1031 q 571 1079 531 1079 q 635 1055 611 1079 q 660 989 660 1031 q 635 925 660 949 q 571 901 611 901 m 263 901 q 198 925 222 901 q 174 989 174 949 q 198 1055 174 1031 q 263 1079 222 1079 q 327 1055 303 1079 q 351 989 351 1031 q 327 925 351 949 q 263 901 303 901 m 336 1211 l 483 1406 l 618 1406 l 464 1211 l 336 1211 z "},"ǚ":{"ha":833,"x_min":125,"x_max":708,"o":"m 415 -14 q 204 65 283 -14 q 125 278 125 143 l 125 764 l 250 764 l 250 278 q 294 144 250 192 q 415 96 339 96 q 538 144 493 96 q 583 278 583 192 l 583 764 l 708 764 l 708 278 q 628 65 708 143 q 415 -14 547 -14 m 571 901 q 506 925 531 901 q 482 989 482 949 q 506 1055 482 1031 q 571 1079 531 1079 q 635 1055 611 1079 q 660 989 660 1031 q 635 925 660 949 q 571 901 611 901 m 263 901 q 198 925 222 901 q 174 989 174 949 q 198 1055 174 1031 q 263 1079 222 1079 q 327 1055 303 1079 q 351 989 351 1031 q 327 925 351 949 q 263 901 303 901 m 360 1211 l 165 1406 l 303 1406 l 417 1297 l 528 1406 l 668 1406 l 475 1211 l 360 1211 z "},"ǜ":{"ha":833,"x_min":125,"x_max":708,"o":"m 415 -14 q 204 65 283 -14 q 125 278 125 143 l 125 764 l 250 764 l 250 278 q 294 144 250 192 q 415 96 339 96 q 538 144 493 96 q 583 278 583 192 l 583 764 l 708 764 l 708 278 q 628 65 708 143 q 415 -14 547 -14 m 571 901 q 506 925 531 901 q 482 989 482 949 q 506 1055 482 1031 q 571 1079 531 1079 q 635 1055 611 1079 q 660 989 660 1031 q 635 925 660 949 q 571 901 611 901 m 263 901 q 198 925 222 901 q 174 989 174 949 q 198 1055 174 1031 q 263 1079 222 1079 q 327 1055 303 1079 q 351 989 351 1031 q 327 925 351 949 q 263 901 303 901 m 371 1211 l 211 1406 l 350 1406 l 503 1211 l 371 1211 z "},"ǖ":{"ha":833,"x_min":125,"x_max":708,"o":"m 415 -14 q 204 65 283 -14 q 125 278 125 143 l 125 764 l 250 764 l 250 278 q 294 144 250 192 q 415 96 339 96 q 538 144 493 96 q 583 278 583 192 l 583 764 l 708 764 l 708 278 q 628 65 708 143 q 415 -14 547 -14 m 571 901 q 506 925 531 901 q 482 989 482 949 q 506 1055 482 1031 q 571 1079 531 1079 q 635 1055 611 1079 q 660 989 660 1031 q 635 925 660 949 q 571 901 611 901 m 263 901 q 198 925 222 901 q 174 989 174 949 q 198 1055 174 1031 q 263 1079 222 1079 q 327 1055 303 1079 q 351 989 351 1031 q 327 925 351 949 q 263 901 303 901 m 194 1246 l 194 1350 l 639 1350 l 639 1246 l 194 1246 z "},"ụ":{"ha":833,"x_min":125,"x_max":708,"o":"m 415 -14 q 204 65 283 -14 q 125 278 125 143 l 125 764 l 250 764 l 250 278 q 294 144 250 192 q 415 96 339 96 q 538 144 493 96 q 583 278 583 192 l 583 764 l 708 764 l 708 278 q 628 65 708 143 q 415 -14 547 -14 m 417 -296 q 344 -272 371 -296 q 318 -208 318 -249 q 344 -142 318 -167 q 417 -118 371 -118 q 489 -142 463 -118 q 515 -208 515 -167 q 489 -272 515 -249 q 417 -296 463 -296 z "},"ù":{"ha":833,"x_min":125,"x_max":708,"o":"m 415 -14 q 204 65 283 -14 q 125 278 125 143 l 125 764 l 250 764 l 250 278 q 294 144 250 192 q 415 96 339 96 q 538 144 493 96 q 583 278 583 192 l 583 764 l 708 764 l 708 278 q 628 65 708 143 q 415 -14 547 -14 m 371 896 l 211 1090 l 350 1090 l 503 896 l 371 896 z "},"ủ":{"ha":833,"x_min":125,"x_max":708,"o":"m 415 -14 q 204 65 283 -14 q 125 278 125 143 l 125 764 l 250 764 l 250 278 q 294 144 250 192 q 415 96 339 96 q 538 144 493 96 q 583 278 583 192 l 583 764 l 708 764 l 708 278 q 628 65 708 143 q 415 -14 547 -14 m 358 896 l 428 983 q 447 1028 447 1010 q 403 1056 447 1056 l 292 1056 l 292 1146 l 438 1146 q 523 1119 490 1146 q 556 1043 556 1092 q 532 968 556 999 l 476 896 l 358 896 z "},"ư":{"ha":833,"x_min":125,"x_max":833,"o":"m 125 278 l 125 764 l 250 764 l 250 278 q 294 144 250 192 q 415 96 339 96 q 538 144 493 96 q 583 278 583 192 l 583 764 l 681 764 q 729 813 729 764 l 729 917 l 833 917 l 833 806 q 803 710 833 746 q 708 674 774 674 l 708 278 q 628 65 708 143 q 415 -14 547 -14 q 204 65 283 -14 q 125 278 125 143 z "},"ứ":{"ha":833,"x_min":125,"x_max":833,"o":"m 125 278 l 125 764 l 250 764 l 250 278 q 294 144 250 192 q 415 96 339 96 q 538 144 493 96 q 583 278 583 192 l 583 764 l 681 764 q 729 813 729 764 l 729 917 l 833 917 l 833 806 q 803 710 833 746 q 708 674 774 674 l 708 278 q 628 65 708 143 q 415 -14 547 -14 q 204 65 283 -14 q 125 278 125 143 m 336 896 l 483 1090 l 618 1090 l 464 896 l 336 896 z "},"ự":{"ha":833,"x_min":125,"x_max":833,"o":"m 125 278 l 125 764 l 250 764 l 250 278 q 294 144 250 192 q 415 96 339 96 q 538 144 493 96 q 583 278 583 192 l 583 764 l 681 764 q 729 813 729 764 l 729 917 l 833 917 l 833 806 q 803 710 833 746 q 708 674 774 674 l 708 278 q 628 65 708 143 q 415 -14 547 -14 q 204 65 283 -14 q 125 278 125 143 m 415 -296 q 343 -272 369 -296 q 317 -208 317 -249 q 343 -142 317 -167 q 415 -118 369 -118 q 488 -142 461 -118 q 514 -208 514 -167 q 488 -272 514 -249 q 415 -296 461 -296 z "},"ừ":{"ha":833,"x_min":125,"x_max":833,"o":"m 125 278 l 125 764 l 250 764 l 250 278 q 294 144 250 192 q 415 96 339 96 q 538 144 493 96 q 583 278 583 192 l 583 764 l 681 764 q 729 813 729 764 l 729 917 l 833 917 l 833 806 q 803 710 833 746 q 708 674 774 674 l 708 278 q 628 65 708 143 q 415 -14 547 -14 q 204 65 283 -14 q 125 278 125 143 m 371 896 l 211 1090 l 350 1090 l 503 896 l 371 896 z "},"ử":{"ha":833,"x_min":125,"x_max":833,"o":"m 125 278 l 125 764 l 250 764 l 250 278 q 294 144 250 192 q 415 96 339 96 q 538 144 493 96 q 583 278 583 192 l 583 764 l 681 764 q 729 813 729 764 l 729 917 l 833 917 l 833 806 q 803 710 833 746 q 708 674 774 674 l 708 278 q 628 65 708 143 q 415 -14 547 -14 q 204 65 283 -14 q 125 278 125 143 m 358 896 l 428 983 q 447 1028 447 1010 q 403 1056 447 1056 l 292 1056 l 292 1146 l 438 1146 q 523 1119 490 1146 q 556 1043 556 1092 q 532 968 556 999 l 476 896 l 358 896 z "},"ữ":{"ha":833,"x_min":125,"x_max":833,"o":"m 125 278 l 125 764 l 250 764 l 250 278 q 294 144 250 192 q 415 96 339 96 q 538 144 493 96 q 583 278 583 192 l 583 764 l 681 764 q 729 813 729 764 l 729 917 l 833 917 l 833 806 q 803 710 833 746 q 708 674 774 674 l 708 278 q 628 65 708 143 q 415 -14 547 -14 q 204 65 283 -14 q 125 278 125 143 m 514 903 q 446 917 472 903 q 401 951 419 932 q 367 985 383 971 q 326 1000 350 1000 q 285 951 285 1000 l 285 910 l 194 910 l 194 951 q 229 1049 194 1014 q 319 1083 264 1083 q 388 1069 361 1083 q 432 1035 414 1054 q 467 1001 450 1015 q 507 986 483 986 q 549 1035 549 986 l 549 1076 l 639 1076 l 639 1035 q 605 938 639 972 q 514 903 571 903 z "},"ű":{"ha":833,"x_min":125,"x_max":733,"o":"m 415 -14 q 204 65 283 -14 q 125 278 125 143 l 125 764 l 250 764 l 250 278 q 294 144 250 192 q 415 96 339 96 q 538 144 493 96 q 583 278 583 192 l 583 764 l 708 764 l 708 278 q 628 65 708 143 q 415 -14 547 -14 m 453 896 l 606 1090 l 733 1090 l 574 896 l 453 896 m 204 896 l 357 1090 l 485 1090 l 325 896 l 204 896 z "},"ū":{"ha":833,"x_min":125,"x_max":708,"o":"m 415 -14 q 204 65 283 -14 q 125 278 125 143 l 125 764 l 250 764 l 250 278 q 294 144 250 192 q 415 96 339 96 q 538 144 493 96 q 583 278 583 192 l 583 764 l 708 764 l 708 278 q 628 65 708 143 q 415 -14 547 -14 m 194 931 l 194 1035 l 639 1035 l 639 931 l 194 931 z "},"ų":{"ha":833,"x_min":125,"x_max":708,"o":"m 517 -282 q 394 -245 440 -282 q 347 -153 347 -208 q 365 -90 347 -122 q 429 -14 382 -57 l 417 -14 q 203 64 281 -14 q 125 278 125 142 l 125 764 l 250 764 l 250 278 q 417 97 250 97 q 583 278 583 97 l 583 764 l 708 764 l 708 278 q 588 29 708 101 l 554 1 q 486 -69 507 -37 q 465 -129 465 -100 q 486 -179 465 -160 q 542 -199 507 -199 l 625 -199 l 625 -282 l 517 -282 z "},"ů":{"ha":833,"x_min":125,"x_max":708,"o":"m 415 -14 q 204 65 283 -14 q 125 278 125 143 l 125 764 l 250 764 l 250 278 q 294 144 250 192 q 415 96 339 96 q 538 144 493 96 q 583 278 583 192 l 583 764 l 708 764 l 708 278 q 628 65 708 143 q 415 -14 547 -14 m 417 844 q 296 888 342 844 q 250 1003 250 932 q 296 1117 250 1074 q 417 1161 342 1161 q 538 1117 492 1161 q 583 1003 583 1074 q 538 888 583 932 q 417 844 492 844 m 417 918 q 477 941 454 918 q 500 1003 500 964 q 477 1065 500 1042 q 417 1089 454 1089 q 356 1065 379 1089 q 333 1003 333 1042 q 356 941 333 964 q 417 918 379 918 z "},"ũ":{"ha":833,"x_min":125,"x_max":708,"o":"m 415 -14 q 204 65 283 -14 q 125 278 125 143 l 125 764 l 250 764 l 250 278 q 294 144 250 192 q 415 96 339 96 q 538 144 493 96 q 583 278 583 192 l 583 764 l 708 764 l 708 278 q 628 65 708 143 q 415 -14 547 -14 m 514 903 q 446 917 472 903 q 401 951 419 932 q 367 985 383 971 q 326 1000 350 1000 q 285 951 285 1000 l 285 910 l 194 910 l 194 951 q 229 1049 194 1014 q 319 1083 264 1083 q 388 1069 361 1083 q 432 1035 414 1054 q 467 1001 450 1015 q 507 986 483 986 q 549 1035 549 986 l 549 1076 l 639 1076 l 639 1035 q 605 938 639 972 q 514 903 571 903 z "},"v":{"ha":833,"x_min":69,"x_max":764,"o":"m 335 0 l 69 764 l 199 764 l 376 250 q 403 162 392 204 q 419 96 414 119 q 436 162 426 119 q 461 250 446 204 l 633 764 l 764 764 l 499 0 l 335 0 z "},"w":{"ha":833,"x_min":49,"x_max":785,"o":"m 171 0 l 49 764 l 157 764 l 233 222 q 242 156 238 192 q 247 97 246 121 l 253 97 q 260 156 256 121 q 269 222 264 192 l 354 764 l 479 764 l 564 222 q 574 156 569 192 q 581 97 579 121 l 586 97 q 594 156 589 121 q 603 222 599 192 l 682 764 l 785 764 l 657 0 l 519 0 l 438 528 q 426 606 432 567 q 418 667 421 644 l 413 667 q 406 606 411 644 q 394 528 401 567 l 308 0 l 171 0 z "},"ẃ":{"ha":833,"x_min":49,"x_max":785,"o":"m 171 0 l 49 764 l 157 764 l 233 222 q 242 156 238 192 q 247 97 246 121 l 253 97 q 260 156 256 121 q 269 222 264 192 l 354 764 l 479 764 l 564 222 q 574 156 569 192 q 581 97 579 121 l 586 97 q 594 156 589 121 q 603 222 599 192 l 682 764 l 785 764 l 657 0 l 519 0 l 438 528 q 426 606 432 567 q 418 667 421 644 l 413 667 q 406 606 411 644 q 394 528 401 567 l 308 0 l 171 0 m 336 896 l 483 1090 l 618 1090 l 464 896 l 336 896 z "},"ŵ":{"ha":833,"x_min":49,"x_max":785,"o":"m 171 0 l 49 764 l 157 764 l 233 222 q 242 156 238 192 q 247 97 246 121 l 253 97 q 260 156 256 121 q 269 222 264 192 l 354 764 l 479 764 l 564 222 q 574 156 569 192 q 581 97 579 121 l 586 97 q 594 156 589 121 q 603 222 599 192 l 682 764 l 785 764 l 657 0 l 519 0 l 438 528 q 426 606 432 567 q 418 667 421 644 l 413 667 q 406 606 411 644 q 394 528 401 567 l 308 0 l 171 0 m 165 896 l 358 1090 l 474 1090 l 668 896 l 531 896 l 417 1004 l 306 896 l 165 896 z "},"ẅ":{"ha":833,"x_min":49,"x_max":785,"o":"m 171 0 l 49 764 l 157 764 l 233 222 q 242 156 238 192 q 247 97 246 121 l 253 97 q 260 156 256 121 q 269 222 264 192 l 354 764 l 479 764 l 564 222 q 574 156 569 192 q 581 97 579 121 l 586 97 q 594 156 589 121 q 603 222 599 192 l 682 764 l 785 764 l 657 0 l 519 0 l 438 528 q 426 606 432 567 q 418 667 421 644 l 413 667 q 406 606 411 644 q 394 528 401 567 l 308 0 l 171 0 m 571 901 q 506 925 531 901 q 482 989 482 949 q 506 1055 482 1031 q 571 1079 531 1079 q 635 1055 611 1079 q 660 989 660 1031 q 635 925 660 949 q 571 901 611 901 m 263 901 q 198 925 222 901 q 174 989 174 949 q 198 1055 174 1031 q 263 1079 222 1079 q 327 1055 303 1079 q 351 989 351 1031 q 327 925 351 949 q 263 901 303 901 z "},"ẁ":{"ha":833,"x_min":49,"x_max":785,"o":"m 171 0 l 49 764 l 157 764 l 233 222 q 242 156 238 192 q 247 97 246 121 l 253 97 q 260 156 256 121 q 269 222 264 192 l 354 764 l 479 764 l 564 222 q 574 156 569 192 q 581 97 579 121 l 586 97 q 594 156 589 121 q 603 222 599 192 l 682 764 l 785 764 l 657 0 l 519 0 l 438 528 q 426 606 432 567 q 418 667 421 644 l 413 667 q 406 606 411 644 q 394 528 401 567 l 308 0 l 171 0 m 371 896 l 211 1090 l 350 1090 l 503 896 l 371 896 z "},"x":{"ha":833,"x_min":69,"x_max":764,"o":"m 69 0 l 340 393 l 86 764 l 233 764 l 385 528 q 403 494 394 513 q 418 465 413 476 q 431 494 422 476 q 450 528 440 513 l 603 764 l 749 764 l 494 392 l 764 0 l 617 0 l 453 250 q 434 285 443 265 q 418 318 425 306 q 402 285 413 306 q 381 250 392 265 l 215 0 l 69 0 z "},"y":{"ha":833,"x_min":69,"x_max":764,"o":"m 249 -250 l 361 47 l 69 764 l 206 764 l 392 292 q 410 235 401 268 q 425 181 419 203 q 440 235 431 203 q 460 292 450 268 l 633 764 l 764 764 l 379 -250 l 249 -250 z "},"ý":{"ha":833,"x_min":69,"x_max":764,"o":"m 249 -250 l 361 47 l 69 764 l 206 764 l 392 292 q 410 235 401 268 q 425 181 419 203 q 440 235 431 203 q 460 292 450 268 l 633 764 l 764 764 l 379 -250 l 249 -250 m 336 896 l 483 1090 l 618 1090 l 464 896 l 336 896 z "},"ŷ":{"ha":833,"x_min":69,"x_max":764,"o":"m 249 -250 l 361 47 l 69 764 l 206 764 l 392 292 q 410 235 401 268 q 425 181 419 203 q 440 235 431 203 q 460 292 450 268 l 633 764 l 764 764 l 379 -250 l 249 -250 m 165 896 l 358 1090 l 474 1090 l 668 896 l 531 896 l 417 1004 l 306 896 l 165 896 z "},"ÿ":{"ha":833,"x_min":69,"x_max":764,"o":"m 249 -250 l 361 47 l 69 764 l 206 764 l 392 292 q 410 235 401 268 q 425 181 419 203 q 440 235 431 203 q 460 292 450 268 l 633 764 l 764 764 l 379 -250 l 249 -250 m 571 901 q 506 925 531 901 q 482 989 482 949 q 506 1055 482 1031 q 571 1079 531 1079 q 635 1055 611 1079 q 660 989 660 1031 q 635 925 660 949 q 571 901 611 901 m 263 901 q 198 925 222 901 q 174 989 174 949 q 198 1055 174 1031 q 263 1079 222 1079 q 327 1055 303 1079 q 351 989 351 1031 q 327 925 351 949 q 263 901 303 901 z "},"ỵ":{"ha":833,"x_min":69,"x_max":764,"o":"m 249 -250 l 361 47 l 69 764 l 206 764 l 392 292 q 410 235 401 268 q 425 181 419 203 q 440 235 431 203 q 460 292 450 268 l 633 764 l 764 764 l 379 -250 l 249 -250 m 639 -296 q 567 -272 593 -296 q 540 -208 540 -249 q 567 -142 540 -167 q 639 -118 593 -118 q 711 -142 685 -118 q 738 -208 738 -167 q 711 -272 738 -249 q 639 -296 685 -296 z "},"ỳ":{"ha":833,"x_min":69,"x_max":764,"o":"m 249 -250 l 361 47 l 69 764 l 206 764 l 392 292 q 410 235 401 268 q 425 181 419 203 q 440 235 431 203 q 460 292 450 268 l 633 764 l 764 764 l 379 -250 l 249 -250 m 371 896 l 211 1090 l 350 1090 l 503 896 l 371 896 z "},"ỷ":{"ha":833,"x_min":69,"x_max":764,"o":"m 249 -250 l 361 47 l 69 764 l 206 764 l 392 292 q 410 235 401 268 q 425 181 419 203 q 440 235 431 203 q 460 292 450 268 l 633 764 l 764 764 l 379 -250 l 249 -250 m 358 896 l 428 983 q 447 1028 447 1010 q 403 1056 447 1056 l 292 1056 l 292 1146 l 438 1146 q 523 1119 490 1146 q 556 1043 556 1092 q 532 968 556 999 l 476 896 l 358 896 z "},"ȳ":{"ha":833,"x_min":69,"x_max":764,"o":"m 249 -250 l 361 47 l 69 764 l 206 764 l 392 292 q 410 235 401 268 q 425 181 419 203 q 440 235 431 203 q 460 292 450 268 l 633 764 l 764 764 l 379 -250 l 249 -250 m 194 931 l 194 1035 l 639 1035 l 639 931 l 194 931 z "},"ỹ":{"ha":833,"x_min":69,"x_max":764,"o":"m 249 -250 l 361 47 l 69 764 l 206 764 l 392 292 q 410 235 401 268 q 425 181 419 203 q 440 235 431 203 q 460 292 450 268 l 633 764 l 764 764 l 379 -250 l 249 -250 m 514 903 q 446 917 472 903 q 401 951 419 932 q 367 985 383 971 q 326 1000 350 1000 q 285 951 285 1000 l 285 910 l 194 910 l 194 951 q 229 1049 194 1014 q 319 1083 264 1083 q 388 1069 361 1083 q 432 1035 414 1054 q 467 1001 450 1015 q 507 986 483 986 q 549 1035 549 986 l 549 1076 l 639 1076 l 639 1035 q 605 938 639 972 q 514 903 571 903 z "},"z":{"ha":833,"x_min":125,"x_max":708,"o":"m 125 0 l 125 125 l 553 650 l 136 650 l 136 764 l 693 764 l 693 639 l 257 114 l 708 114 l 708 0 l 125 0 z "},"ź":{"ha":833,"x_min":125,"x_max":708,"o":"m 125 0 l 125 125 l 553 650 l 136 650 l 136 764 l 693 764 l 693 639 l 257 114 l 708 114 l 708 0 l 125 0 m 336 896 l 483 1090 l 618 1090 l 464 896 l 336 896 z "},"ž":{"ha":833,"x_min":125,"x_max":708,"o":"m 125 0 l 125 125 l 553 650 l 136 650 l 136 764 l 693 764 l 693 639 l 257 114 l 708 114 l 708 0 l 125 0 m 360 896 l 165 1090 l 303 1090 l 417 982 l 528 1090 l 668 1090 l 475 896 l 360 896 z "},"ż":{"ha":833,"x_min":125,"x_max":708,"o":"m 125 0 l 125 125 l 553 650 l 136 650 l 136 764 l 693 764 l 693 639 l 257 114 l 708 114 l 708 0 l 125 0 m 417 901 q 344 925 371 901 q 318 989 318 949 q 344 1055 318 1031 q 417 1079 371 1079 q 489 1055 463 1079 q 515 989 515 1031 q 489 925 515 949 q 417 901 463 901 z "},"ª":{"ha":833,"x_min":243,"x_max":583,"o":"m 381 625 q 281 658 318 625 q 243 744 243 690 q 282 831 243 799 q 389 863 321 863 l 514 863 l 514 903 q 490 953 514 935 q 424 972 465 972 q 363 957 388 972 q 333 917 338 942 l 264 917 q 313 999 271 969 q 424 1028 356 1028 q 540 994 497 1028 q 583 903 583 961 l 583 632 l 518 632 l 518 708 l 514 708 q 465 647 500 669 q 381 625 429 625 m 399 678 q 483 703 453 678 q 514 771 514 728 l 514 807 l 389 807 q 313 744 313 807 q 336 696 313 714 q 399 678 360 678 z "},"º":{"ha":833,"x_min":257,"x_max":576,"o":"m 417 618 q 301 658 344 618 q 257 764 257 699 l 257 875 q 301 981 257 940 q 417 1021 344 1021 q 533 981 489 1021 q 576 875 576 940 l 576 764 q 533 658 576 699 q 417 618 489 618 m 417 674 q 482 699 457 674 q 507 764 507 724 l 507 875 q 482 940 507 915 q 417 965 457 965 q 351 940 376 965 q 326 875 326 915 l 326 764 q 351 699 326 724 q 417 674 376 674 z "},"А":{"ha":833,"x_min":69,"x_max":764,"o":"m 69 0 l 333 1014 l 501 1014 l 764 0 l 638 0 l 571 269 l 264 269 l 197 0 l 69 0 m 289 375 l 544 375 l 467 688 q 432 836 444 776 q 417 914 419 896 q 401 836 414 896 q 367 689 389 776 l 289 375 z "},"Б":{"ha":833,"x_min":131,"x_max":736,"o":"m 131 0 l 131 1014 l 694 1014 l 694 900 l 256 900 l 256 594 l 424 594 q 652 514 568 594 q 736 297 736 433 q 652 81 736 163 q 424 0 568 0 l 131 0 m 256 114 l 424 114 q 558 163 510 114 q 607 297 607 213 q 558 432 607 383 q 424 481 510 481 l 256 481 l 256 114 z "},"В":{"ha":833,"x_min":129,"x_max":736,"o":"m 129 0 l 129 1014 l 417 1014 q 634 944 556 1014 q 713 751 713 875 q 672 612 713 668 q 560 536 632 556 q 689 447 642 513 q 736 282 736 381 q 656 76 736 151 q 438 0 576 0 l 129 0 m 251 582 l 415 582 q 542 625 496 582 q 589 742 589 668 q 543 858 589 815 q 417 901 497 901 l 251 901 l 251 582 m 251 113 l 424 113 q 562 159 511 113 q 613 286 613 206 q 562 422 613 369 q 424 474 511 474 l 251 474 l 251 113 z "},"Г":{"ha":833,"x_min":181,"x_max":771,"o":"m 181 0 l 181 1014 l 771 1014 l 771 900 l 306 900 l 306 0 l 181 0 z "},"Ѓ":{"ha":833,"x_min":181,"x_max":771,"o":"m 181 0 l 181 1014 l 771 1014 l 771 900 l 306 900 l 306 0 l 181 0 m 364 1125 l 511 1319 l 646 1319 l 492 1125 l 364 1125 z "},"Ґ":{"ha":833,"x_min":181,"x_max":771,"o":"m 181 0 l 181 1014 l 653 1014 l 653 1146 l 771 1146 l 771 900 l 306 900 l 306 0 l 181 0 z "},"Д":{"ha":833,"x_min":35,"x_max":799,"o":"m 35 -194 l 35 107 l 97 107 q 146 233 121 149 q 172 414 171 317 l 182 1014 l 701 1014 l 701 107 l 799 107 l 799 -194 l 688 -194 l 688 0 l 146 0 l 146 -194 l 35 -194 m 228 107 l 576 107 l 576 903 l 301 903 l 294 414 q 271 225 293 307 q 228 107 249 143 z "},"Е":{"ha":833,"x_min":139,"x_max":722,"o":"m 139 0 l 139 1014 l 722 1014 l 722 900 l 263 900 l 263 586 l 674 586 l 674 475 l 263 475 l 263 114 l 722 114 l 722 0 l 139 0 z "},"Ё":{"ha":833,"x_min":139,"x_max":722,"o":"m 139 0 l 139 1014 l 722 1014 l 722 900 l 263 900 l 263 586 l 674 586 l 674 475 l 263 475 l 263 114 l 722 114 l 722 0 l 139 0 m 599 1135 q 534 1158 558 1135 q 510 1222 510 1182 q 534 1288 510 1264 q 599 1313 558 1313 q 663 1288 639 1313 q 688 1222 688 1264 q 663 1158 688 1182 q 599 1135 639 1135 m 290 1135 q 226 1158 250 1135 q 201 1222 201 1182 q 226 1288 201 1264 q 290 1313 250 1313 q 355 1288 331 1313 q 379 1222 379 1264 q 355 1158 379 1182 q 290 1135 331 1135 z "},"Ж":{"ha":833,"x_min":17,"x_max":817,"o":"m 17 0 l 200 522 l 31 1014 l 161 1014 l 306 564 l 364 564 l 364 1014 l 469 1014 l 469 564 l 529 564 l 672 1014 l 803 1014 l 636 521 l 817 0 l 688 0 l 532 475 l 469 475 l 469 0 l 364 0 l 364 475 l 301 475 l 144 0 l 17 0 z "},"З":{"ha":833,"x_min":75,"x_max":736,"o":"m 401 -14 q 232 22 306 -14 q 117 120 158 57 q 75 267 76 183 l 200 267 q 258 144 203 190 q 401 97 313 97 q 553 149 496 97 q 610 285 610 200 q 553 421 610 369 q 401 472 496 472 l 275 472 l 275 583 l 400 583 q 536 629 485 583 q 588 750 588 675 q 536 871 588 825 q 400 917 485 917 q 263 869 315 917 q 211 743 211 821 l 86 743 q 126 893 86 829 q 237 992 165 957 q 404 1028 308 1028 q 567 994 497 1028 q 674 901 636 961 q 713 758 713 840 q 667 613 713 671 q 544 538 622 556 q 685 453 633 519 q 736 285 736 386 q 694 128 736 196 q 578 24 653 61 q 401 -14 503 -14 z "},"И":{"ha":833,"x_min":125,"x_max":708,"o":"m 125 0 l 125 1014 l 246 1014 l 246 444 q 244 338 246 394 q 239 231 242 282 q 233 146 236 181 l 542 1014 l 708 1014 l 708 0 l 588 0 l 588 569 q 590 677 588 621 q 595 784 592 733 q 601 868 599 835 l 292 0 l 125 0 z "},"Й":{"ha":833,"x_min":125,"x_max":708,"o":"m 125 0 l 125 1014 l 246 1014 l 246 444 q 244 338 246 394 q 239 231 242 282 q 233 146 236 181 l 542 1014 l 708 1014 l 708 0 l 588 0 l 588 569 q 590 677 588 621 q 595 784 592 733 q 601 868 599 835 l 292 0 l 125 0 m 417 1118 q 256 1174 317 1118 q 194 1319 194 1229 l 293 1319 q 326 1232 293 1265 q 415 1199 360 1199 q 506 1232 472 1199 q 540 1319 540 1265 l 639 1319 q 578 1174 639 1229 q 417 1118 517 1118 z "},"К":{"ha":833,"x_min":128,"x_max":778,"o":"m 128 0 l 128 1014 l 253 1014 l 253 579 l 403 579 l 628 1014 l 764 1014 l 513 526 l 778 0 l 635 0 l 399 469 l 253 469 l 253 0 l 128 0 z "},"Ќ":{"ha":833,"x_min":128,"x_max":778,"o":"m 128 0 l 128 1014 l 253 1014 l 253 579 l 403 579 l 628 1014 l 764 1014 l 513 526 l 778 0 l 635 0 l 399 469 l 253 469 l 253 0 l 128 0 m 336 1125 l 483 1319 l 618 1319 l 464 1125 l 336 1125 z "},"Л":{"ha":833,"x_min":28,"x_max":703,"o":"m 28 -7 l 28 110 l 53 110 q 141 165 114 110 q 169 353 168 219 l 181 1014 l 703 1014 l 703 0 l 578 0 l 578 900 l 304 900 l 294 353 q 235 80 292 167 q 60 -7 179 -7 l 28 -7 z "},"М":{"ha":833,"x_min":106,"x_max":728,"o":"m 106 0 l 106 1014 l 269 1014 l 378 686 q 403 598 393 642 q 419 531 414 554 q 436 598 425 554 q 461 688 447 642 l 564 1014 l 728 1014 l 728 0 l 606 0 l 606 479 q 617 722 606 603 q 642 951 628 842 l 476 444 l 357 444 l 190 951 q 217 731 206 846 q 228 479 228 615 l 228 0 l 106 0 z "},"Н":{"ha":833,"x_min":129,"x_max":704,"o":"m 129 0 l 129 1014 l 254 1014 l 254 581 l 579 581 l 579 1014 l 704 1014 l 704 0 l 579 0 l 579 467 l 254 467 l 254 0 l 129 0 z "},"О":{"ha":833,"x_min":122,"x_max":711,"o":"m 417 -14 q 201 64 281 -14 q 122 278 122 142 l 122 736 q 201 950 122 872 q 417 1028 281 1028 q 632 951 553 1028 q 711 738 711 874 l 711 278 q 632 64 711 142 q 417 -14 553 -14 m 417 99 q 542 145 499 99 q 586 278 586 192 l 586 736 q 542 869 586 822 q 417 915 499 915 q 292 869 336 915 q 247 736 247 822 l 247 278 q 292 145 247 192 q 417 99 336 99 z "},"П":{"ha":833,"x_min":131,"x_max":703,"o":"m 131 0 l 131 1014 l 703 1014 l 703 0 l 578 0 l 578 900 l 256 900 l 256 0 l 131 0 z "},"Р":{"ha":833,"x_min":128,"x_max":764,"o":"m 128 0 l 128 1014 l 454 1014 q 680 933 596 1014 q 764 715 764 851 q 680 498 764 579 q 454 417 596 417 l 253 417 l 253 0 l 128 0 m 253 529 l 454 529 q 585 580 536 529 q 635 715 635 631 q 585 851 635 801 q 454 901 536 901 l 253 901 l 253 529 z "},"С":{"ha":833,"x_min":122,"x_max":719,"o":"m 422 -14 q 203 64 283 -14 q 122 278 122 142 l 122 736 q 203 950 122 872 q 422 1028 283 1028 q 639 949 558 1028 q 719 736 719 871 l 594 736 q 549 869 594 822 q 422 915 504 915 q 294 869 340 915 q 247 738 247 824 l 247 278 q 294 145 247 192 q 422 99 340 99 q 549 145 504 99 q 594 278 594 192 l 719 278 q 639 65 719 143 q 422 -14 558 -14 z "},"Т":{"ha":833,"x_min":76,"x_max":757,"o":"m 354 0 l 354 900 l 76 900 l 76 1014 l 757 1014 l 757 900 l 479 900 l 479 0 l 354 0 z "},"У":{"ha":833,"x_min":69,"x_max":764,"o":"m 265 0 l 368 263 l 69 1014 l 206 1014 l 388 518 q 417 428 406 471 q 431 365 428 386 q 443 428 433 386 q 468 518 453 471 l 628 1014 l 764 1014 l 399 0 l 265 0 z "},"Ў":{"ha":833,"x_min":69,"x_max":764,"o":"m 265 0 l 368 263 l 69 1014 l 206 1014 l 388 518 q 417 428 406 471 q 431 365 428 386 q 443 428 433 386 q 468 518 453 471 l 628 1014 l 764 1014 l 399 0 l 265 0 m 417 1118 q 256 1174 317 1118 q 194 1319 194 1229 l 293 1319 q 326 1232 293 1265 q 415 1199 360 1199 q 506 1232 472 1199 q 540 1319 540 1265 l 639 1319 q 578 1174 639 1229 q 417 1118 517 1118 z "},"Ф":{"ha":833,"x_min":75,"x_max":758,"o":"m 358 -35 l 358 63 q 210 99 274 63 q 110 199 146 135 q 75 351 75 264 l 75 676 q 152 892 75 811 q 358 972 229 972 l 358 1069 l 475 1069 l 475 972 q 681 892 604 972 q 758 676 758 811 l 758 351 q 723 199 758 264 q 624 99 688 135 q 475 63 561 63 l 475 -35 l 358 -35 m 358 168 l 358 867 q 236 816 281 867 q 192 676 192 765 l 192 351 q 236 217 192 267 q 358 168 281 168 m 475 168 q 597 217 553 168 q 642 351 642 267 l 642 676 q 597 816 642 765 q 475 867 553 867 l 475 168 z "},"Х":{"ha":833,"x_min":56,"x_max":778,"o":"m 56 0 l 347 514 l 71 1014 l 215 1014 l 372 714 q 398 663 385 690 q 419 621 411 636 q 440 663 426 636 q 465 714 453 690 l 625 1014 l 763 1014 l 486 522 l 778 0 l 635 0 l 461 322 q 435 373 449 346 q 415 417 422 400 q 395 374 408 400 q 369 324 382 347 l 194 0 l 56 0 z "},"Ч":{"ha":833,"x_min":104,"x_max":701,"o":"m 576 0 l 576 397 q 495 383 551 389 q 385 376 439 376 q 104 626 104 376 l 104 1014 l 229 1014 l 229 626 q 406 488 229 488 q 508 493 458 488 q 576 507 558 499 l 576 1014 l 701 1014 l 701 0 l 576 0 z "},"Ц":{"ha":833,"x_min":131,"x_max":785,"o":"m 674 -194 l 674 0 l 131 0 l 131 1014 l 256 1014 l 256 111 l 556 111 l 556 1014 l 681 1014 l 681 111 l 785 111 l 785 -194 l 674 -194 z "},"Ш":{"ha":833,"x_min":89,"x_max":744,"o":"m 92 0 l 89 1014 l 206 1014 l 206 94 l 368 94 l 368 1014 l 468 1014 l 468 94 l 629 94 l 629 1014 l 744 1014 l 744 0 l 92 0 z "},"Щ":{"ha":833,"x_min":89,"x_max":799,"o":"m 688 -194 l 688 0 l 89 0 l 89 1014 l 201 1014 l 201 106 l 363 106 l 363 1014 l 460 1014 l 460 106 l 621 106 l 621 1014 l 733 1014 l 733 106 l 799 106 l 799 -194 l 688 -194 z "},"Џ":{"ha":833,"x_min":131,"x_max":703,"o":"m 354 -174 l 354 0 l 131 0 l 131 1014 l 256 1014 l 256 114 l 578 114 l 578 1014 l 703 1014 l 703 0 l 479 0 l 479 -174 l 354 -174 z "},"Ь":{"ha":833,"x_min":131,"x_max":764,"o":"m 131 0 l 131 1014 l 256 1014 l 256 597 l 458 597 q 619 560 550 597 q 726 456 688 522 q 764 299 764 389 q 726 142 764 210 q 619 38 688 75 q 458 0 550 0 l 131 0 m 256 114 l 451 114 q 584 165 533 114 q 635 299 635 215 q 584 433 635 382 q 451 483 533 483 l 256 483 l 256 114 z "},"Ъ":{"ha":833,"x_min":-7,"x_max":764,"o":"m 188 0 l 188 900 l -7 900 l -7 1014 l 313 1014 l 313 597 l 458 597 q 619 560 550 597 q 726 456 688 522 q 764 299 764 389 q 726 142 764 210 q 619 38 688 75 q 458 0 550 0 l 188 0 m 313 114 l 451 114 q 584 165 533 114 q 635 299 635 215 q 584 433 635 382 q 451 483 533 483 l 313 483 l 313 114 z "},"Ы":{"ha":833,"x_min":90,"x_max":743,"o":"m 90 0 l 90 1014 l 207 1014 l 207 597 l 264 597 q 463 526 390 597 q 536 333 536 456 l 536 263 q 464 70 536 140 q 264 0 392 0 l 90 0 m 626 0 l 626 1014 l 743 1014 l 743 0 l 626 0 m 207 110 l 264 110 q 377 151 338 110 q 417 264 417 192 l 417 333 q 377 447 417 407 q 264 488 338 488 l 207 488 l 207 110 z "},"Љ":{"ha":833,"x_min":-7,"x_max":806,"o":"m -7 -7 l -7 104 l 18 104 q 74 149 54 104 q 96 269 94 193 l 103 1014 l 500 1014 l 500 597 l 583 597 q 744 538 683 597 q 806 382 806 479 l 806 215 q 744 59 806 118 q 583 0 683 0 l 389 0 l 389 910 l 213 910 l 206 269 q 153 67 204 142 q 14 -7 101 -7 l -7 -7 m 500 104 l 583 104 q 664 135 633 104 q 694 215 694 165 l 694 382 q 664 463 694 432 q 583 493 633 493 l 500 493 l 500 104 z "},"Њ":{"ha":833,"x_min":74,"x_max":806,"o":"m 74 0 l 74 1014 l 185 1014 l 185 597 l 389 597 l 389 1014 l 500 1014 l 500 597 l 583 597 q 746 539 686 597 q 806 382 806 481 l 806 215 q 746 58 806 117 q 583 0 686 0 l 389 0 l 389 493 l 185 493 l 185 0 l 74 0 m 500 104 l 583 104 q 665 134 636 104 q 694 215 694 164 l 694 382 q 665 464 694 435 q 583 493 636 493 l 500 493 l 500 104 z "},"Ѕ":{"ha":833,"x_min":100,"x_max":733,"o":"m 422 -14 q 188 63 275 -14 q 100 267 100 139 l 225 267 q 279 144 225 190 q 422 97 333 97 q 560 144 508 97 q 611 267 611 190 q 580 372 611 326 q 494 433 549 417 l 344 481 q 185 586 243 513 q 128 757 128 660 q 209 954 128 881 q 425 1028 290 1028 q 640 954 560 1028 q 721 757 721 881 l 596 757 q 549 874 596 831 q 425 917 503 917 q 298 874 346 917 q 250 760 250 831 q 282 664 250 704 q 369 606 314 624 l 525 556 q 677 447 621 525 q 733 267 733 369 q 649 63 733 139 q 422 -14 564 -14 z "},"Є":{"ha":833,"x_min":125,"x_max":717,"o":"m 422 -14 q 204 64 283 -14 q 125 278 125 142 l 125 736 q 204 950 125 872 q 422 1028 283 1028 q 638 949 558 1028 q 717 736 717 871 l 592 736 q 548 869 592 822 q 422 917 504 917 q 295 870 340 917 q 250 738 250 824 l 250 568 l 563 568 l 563 454 l 250 454 l 250 278 q 295 144 250 192 q 422 97 340 97 q 548 144 504 97 q 592 278 592 192 l 717 278 q 638 65 717 143 q 422 -14 558 -14 z "},"Э":{"ha":833,"x_min":117,"x_max":708,"o":"m 411 -14 q 196 65 275 -14 q 117 278 117 143 l 242 278 q 286 144 242 192 q 411 97 331 97 q 538 144 493 97 q 583 278 583 192 l 583 454 l 271 454 l 271 568 l 583 568 l 583 738 q 538 870 583 824 q 411 917 493 917 q 286 869 331 917 q 242 736 242 822 l 117 736 q 196 949 117 871 q 411 1028 275 1028 q 629 950 550 1028 q 708 736 708 872 l 708 278 q 629 64 708 142 q 411 -14 550 -14 z "},"І":{"ha":833,"x_min":146,"x_max":688,"o":"m 146 0 l 146 114 l 353 114 l 353 900 l 146 900 l 146 1014 l 688 1014 l 688 900 l 481 900 l 481 114 l 688 114 l 688 0 l 146 0 z "},"Ї":{"ha":833,"x_min":146,"x_max":688,"o":"m 146 0 l 146 114 l 353 114 l 353 900 l 146 900 l 146 1014 l 688 1014 l 688 900 l 481 900 l 481 114 l 688 114 l 688 0 l 146 0 m 571 1135 q 506 1158 531 1135 q 482 1222 482 1182 q 506 1288 482 1264 q 571 1313 531 1313 q 635 1288 611 1313 q 660 1222 660 1264 q 635 1158 660 1182 q 571 1135 611 1135 m 263 1135 q 198 1158 222 1135 q 174 1222 174 1182 q 198 1288 174 1264 q 263 1313 222 1313 q 327 1288 303 1313 q 351 1222 351 1264 q 327 1158 351 1182 q 263 1135 303 1135 z "},"Ј":{"ha":833,"x_min":63,"x_max":688,"o":"m 375 -14 q 146 68 229 -14 q 63 292 63 150 l 188 292 q 237 148 188 199 q 375 97 286 97 q 513 148 464 97 q 563 292 563 199 l 563 900 l 278 900 l 278 1014 l 688 1014 l 688 292 q 603 68 688 150 q 375 -14 519 -14 z "},"Ћ":{"ha":833,"x_min":0,"x_max":743,"o":"m 153 0 l 153 904 l 0 904 l 0 1014 l 444 1014 l 444 904 l 278 904 l 278 550 l 300 574 q 526 688 406 688 q 684 620 625 688 q 743 439 743 553 l 743 0 l 618 0 l 618 411 q 497 582 618 582 q 339 496 419 582 l 278 431 l 278 0 l 153 0 z "},"Ю":{"ha":833,"x_min":83,"x_max":778,"o":"m 540 -14 q 371 57 433 -14 q 308 250 308 128 l 308 465 l 199 465 l 199 0 l 83 0 l 83 1014 l 199 1014 l 199 576 l 308 576 l 308 764 q 370 958 308 888 q 540 1028 432 1028 q 715 957 651 1028 q 778 764 778 886 l 778 250 q 715 57 778 128 q 540 -14 651 -14 m 540 94 q 631 135 600 94 q 663 250 663 175 l 663 764 q 631 879 663 839 q 540 919 600 919 q 449 879 481 919 q 418 764 418 839 l 418 250 q 449 135 418 175 q 540 94 481 94 z "},"Я":{"ha":833,"x_min":78,"x_max":701,"o":"m 78 0 l 286 444 q 142 546 194 472 q 89 722 89 619 q 126 875 89 810 q 232 977 164 940 q 390 1014 300 1014 l 701 1014 l 701 0 l 576 0 l 576 431 l 415 431 l 222 0 l 78 0 m 390 542 l 576 542 l 576 903 l 390 903 q 266 853 314 903 q 218 722 218 804 q 265 592 218 642 q 390 542 313 542 z "},"Ђ":{"ha":833,"x_min":0,"x_max":743,"o":"m 361 -250 l 361 -136 l 458 -136 q 575 -94 532 -136 q 618 21 618 -51 l 618 411 q 497 582 618 582 q 339 496 419 582 l 278 431 l 278 0 l 153 0 l 153 904 l 0 904 l 0 1014 l 444 1014 l 444 904 l 278 904 l 278 550 l 300 574 q 526 688 406 688 q 684 620 625 688 q 743 439 743 553 l 743 21 q 665 -176 743 -101 q 458 -250 588 -250 l 361 -250 z "},"Ғ":{"ha":833,"x_min":42,"x_max":771,"o":"m 181 0 l 181 453 l 42 453 l 42 564 l 181 564 l 181 1014 l 771 1014 l 771 900 l 306 900 l 306 564 l 528 564 l 528 453 l 306 453 l 306 0 l 181 0 z "},"Қ":{"ha":833,"x_min":113,"x_max":813,"o":"m 113 0 l 113 1014 l 238 1014 l 238 579 l 388 579 l 613 1014 l 749 1014 l 497 526 l 707 111 l 813 111 l 813 -194 l 701 -194 l 701 0 l 619 0 l 383 469 l 238 469 l 238 0 l 113 0 z "},"Ң":{"ha":833,"x_min":124,"x_max":764,"o":"m 124 0 l 124 1014 l 249 1014 l 249 581 l 574 581 l 574 1014 l 699 1014 l 699 111 l 764 111 l 764 -194 l 653 -194 l 653 0 l 574 0 l 574 467 l 249 467 l 249 0 l 124 0 z "},"Ү":{"ha":833,"x_min":49,"x_max":785,"o":"m 354 0 l 354 379 l 49 1014 l 178 1014 l 379 597 q 406 538 396 563 q 418 503 415 514 q 431 538 421 514 q 458 597 442 563 l 656 1014 l 785 1014 l 479 379 l 479 0 l 354 0 z "},"Ұ":{"ha":833,"x_min":49,"x_max":785,"o":"m 174 275 l 174 379 l 354 379 l 49 1014 l 178 1014 l 379 597 q 406 538 396 563 q 418 503 415 514 q 431 538 421 514 q 458 597 442 563 l 656 1014 l 785 1014 l 479 379 l 660 379 l 660 275 l 479 275 l 479 0 l 354 0 l 354 275 l 174 275 z "},"Ҷ":{"ha":833,"x_min":90,"x_max":753,"o":"m 563 0 l 563 397 q 481 383 538 389 q 371 376 425 376 q 90 626 90 376 l 90 1014 l 215 1014 l 215 626 q 392 488 215 488 q 494 493 444 488 q 563 507 544 499 l 563 1014 l 688 1014 l 688 111 l 753 111 l 753 -194 l 642 -194 l 642 0 l 563 0 z "},"Һ":{"ha":833,"x_min":132,"x_max":729,"o":"m 257 1014 l 257 617 q 338 631 282 625 q 449 638 394 638 q 729 388 729 638 l 729 0 l 604 0 l 604 388 q 428 526 604 526 q 325 521 375 526 q 257 507 275 515 l 257 0 l 132 0 l 132 1014 l 257 1014 z "},"Ә":{"ha":833,"x_min":117,"x_max":708,"o":"m 413 -14 q 197 65 276 -14 q 117 278 117 143 l 117 568 l 583 568 l 583 738 q 538 868 583 819 q 413 917 492 917 q 288 868 333 917 q 242 736 242 819 l 117 736 q 197 949 117 871 q 413 1028 276 1028 q 628 949 549 1028 q 708 736 708 871 l 708 278 q 628 65 708 143 q 413 -14 549 -14 m 413 97 q 538 146 492 97 q 583 278 583 194 l 583 454 l 242 454 l 242 278 q 288 146 242 194 q 413 97 333 97 z "},"Ө":{"ha":833,"x_min":125,"x_max":708,"o":"m 417 -14 q 203 65 281 -14 q 125 279 125 143 l 125 736 q 203 950 125 872 q 417 1028 281 1028 q 631 950 553 1028 q 708 736 708 872 l 708 279 q 631 65 708 144 q 417 -14 553 -14 m 249 575 l 585 575 l 585 736 q 542 872 585 825 q 417 918 499 918 q 292 872 335 918 q 249 736 249 825 l 249 575 m 417 96 q 542 143 499 96 q 585 279 585 190 l 585 464 l 249 464 l 249 279 q 292 143 249 190 q 417 96 336 96 z "},"а":{"ha":833,"x_min":90,"x_max":708,"o":"m 350 -14 q 160 48 229 -14 q 90 215 90 110 q 160 383 90 322 q 347 444 229 444 l 583 444 l 583 521 q 541 629 583 590 q 424 668 499 668 q 311 639 357 668 q 254 563 265 610 l 129 563 q 176 675 136 626 q 280 751 215 724 q 424 778 344 778 q 632 710 556 778 q 708 525 708 642 l 708 0 l 586 0 l 586 146 l 585 146 q 513 29 576 72 q 350 -14 450 -14 m 381 85 q 526 129 469 85 q 583 243 583 174 l 583 351 l 350 351 q 251 317 288 351 q 215 222 215 282 q 259 122 215 158 q 381 85 303 85 z "},"б":{"ha":833,"x_min":121,"x_max":718,"o":"m 419 -14 q 201 67 282 -14 q 121 285 121 147 l 121 632 q 165 835 121 750 q 290 967 208 921 q 482 1014 371 1014 l 676 1014 l 676 890 l 482 890 q 308 821 374 890 q 243 632 243 751 l 243 556 l 246 556 q 313 663 257 625 q 456 701 369 701 q 647 623 576 701 q 718 410 718 544 l 718 285 q 638 67 718 147 q 419 -14 557 -14 m 419 97 q 547 148 500 97 q 593 285 593 199 l 593 410 q 547 547 593 496 q 419 597 500 597 q 292 547 339 597 q 246 410 246 496 l 246 285 q 292 148 246 199 q 419 97 339 97 z "},"в":{"ha":833,"x_min":128,"x_max":729,"o":"m 128 0 l 128 764 l 456 764 q 638 712 571 764 q 704 571 704 660 q 660 457 704 500 q 539 411 615 414 l 539 406 q 677 352 625 404 q 729 215 729 300 q 658 58 729 117 q 467 0 588 0 l 128 0 m 250 444 l 456 444 q 547 472 514 444 q 581 550 581 500 q 547 626 581 599 q 456 654 514 654 l 250 654 l 250 444 m 250 110 l 467 110 q 569 140 532 110 q 606 226 606 171 q 569 311 606 281 q 467 342 532 342 l 250 342 l 250 110 z "},"г":{"ha":833,"x_min":181,"x_max":729,"o":"m 181 0 l 181 764 l 729 764 l 729 650 l 306 650 l 306 0 l 181 0 z "},"ѓ":{"ha":833,"x_min":181,"x_max":729,"o":"m 181 0 l 181 764 l 729 764 l 729 650 l 306 650 l 306 0 l 181 0 m 378 896 l 525 1090 l 660 1090 l 506 896 l 378 896 z "},"ґ":{"ha":833,"x_min":181,"x_max":729,"o":"m 181 0 l 181 764 l 611 764 l 611 910 l 729 910 l 729 650 l 306 650 l 306 0 l 181 0 z "},"д":{"ha":833,"x_min":42,"x_max":785,"o":"m 42 -194 l 42 107 l 104 107 q 153 200 128 131 q 181 376 179 269 l 189 764 l 688 764 l 688 107 l 785 107 l 785 -194 l 674 -194 l 674 0 l 153 0 l 153 -194 l 42 -194 m 236 107 l 563 107 l 563 653 l 307 653 l 301 374 q 278 196 300 264 q 236 107 256 128 z "},"е":{"ha":833,"x_min":118,"x_max":715,"o":"m 417 -14 q 259 22 326 -14 q 155 124 192 58 q 118 278 118 190 l 118 486 q 155 640 118 575 q 259 742 192 706 q 417 778 326 778 q 574 742 507 778 q 678 640 642 706 q 715 486 715 575 l 715 351 l 240 351 l 240 278 q 286 140 240 188 q 417 92 332 92 q 533 117 489 92 q 588 194 578 143 l 713 194 q 619 42 700 99 q 417 -14 538 -14 m 240 446 l 593 446 l 593 486 q 548 625 593 576 q 417 674 503 674 q 286 625 332 674 q 240 486 240 576 l 240 446 z "},"ё":{"ha":833,"x_min":118,"x_max":715,"o":"m 417 -14 q 259 22 326 -14 q 155 124 192 58 q 118 278 118 190 l 118 486 q 155 640 118 575 q 259 742 192 706 q 417 778 326 778 q 574 742 507 778 q 678 640 642 706 q 715 486 715 575 l 715 351 l 240 351 l 240 278 q 286 140 240 188 q 417 92 332 92 q 533 117 489 92 q 588 194 578 143 l 713 194 q 619 42 700 99 q 417 -14 538 -14 m 240 446 l 593 446 l 593 486 q 548 625 593 576 q 417 674 503 674 q 286 625 332 674 q 240 486 240 576 l 240 446 m 571 901 q 506 925 531 901 q 482 989 482 949 q 506 1055 482 1031 q 571 1079 531 1079 q 635 1055 611 1079 q 660 989 660 1031 q 635 925 660 949 q 571 901 611 901 m 263 901 q 198 925 222 901 q 174 989 174 949 q 198 1055 174 1031 q 263 1079 222 1079 q 327 1055 303 1079 q 351 989 351 1031 q 327 925 351 949 q 263 901 303 901 z "},"ж":{"ha":833,"x_min":25,"x_max":808,"o":"m 25 0 l 192 392 l 36 764 l 157 764 l 290 431 l 364 431 l 364 764 l 469 764 l 469 431 l 540 431 l 678 764 l 797 764 l 642 396 l 808 0 l 683 0 l 544 347 l 469 347 l 469 0 l 364 0 l 364 347 l 289 347 l 149 0 l 25 0 z "},"з":{"ha":833,"x_min":90,"x_max":722,"o":"m 374 -10 q 180 41 256 -10 q 90 181 104 92 l 222 181 q 269 123 229 144 q 374 101 310 101 l 446 101 q 552 135 514 101 q 590 219 590 168 q 553 308 590 275 q 446 342 517 342 l 264 342 l 264 450 l 435 450 q 532 479 499 450 q 565 558 565 508 q 436 663 565 663 l 372 663 q 274 640 313 663 q 228 576 235 617 l 96 576 q 183 721 108 668 q 372 774 257 774 l 436 774 q 628 719 560 774 q 697 565 697 664 q 656 457 697 497 q 535 411 615 417 l 535 406 q 678 349 633 399 q 722 214 722 300 q 647 51 722 113 q 446 -10 572 -10 l 374 -10 z "},"и":{"ha":833,"x_min":128,"x_max":706,"o":"m 128 0 l 128 764 l 247 764 l 247 347 q 242 219 247 288 q 232 111 238 151 l 546 764 l 706 764 l 706 0 l 586 0 l 586 417 q 591 546 586 478 q 601 654 596 614 l 288 0 l 128 0 z "},"й":{"ha":833,"x_min":128,"x_max":706,"o":"m 128 0 l 128 764 l 247 764 l 247 347 q 242 219 247 288 q 232 111 238 151 l 546 764 l 706 764 l 706 0 l 586 0 l 586 417 q 591 546 586 478 q 601 654 596 614 l 288 0 l 128 0 m 417 889 q 256 944 317 889 q 194 1090 194 1000 l 293 1090 q 326 1003 293 1036 q 415 969 360 969 q 506 1003 472 969 q 540 1090 540 1036 l 639 1090 q 578 944 639 1000 q 417 889 517 889 z "},"к":{"ha":833,"x_min":132,"x_max":774,"o":"m 132 0 l 132 764 l 257 764 l 257 449 l 404 449 l 626 764 l 769 764 l 513 400 l 774 0 l 628 0 l 406 340 l 257 340 l 257 0 l 132 0 z "},"ќ":{"ha":833,"x_min":132,"x_max":774,"o":"m 132 0 l 132 764 l 257 764 l 257 449 l 404 449 l 626 764 l 769 764 l 513 400 l 774 0 l 628 0 l 406 340 l 257 340 l 257 0 l 132 0 m 336 896 l 483 1090 l 618 1090 l 464 896 l 336 896 z "},"л":{"ha":833,"x_min":35,"x_max":706,"o":"m 35 -10 l 35 107 l 60 107 q 149 157 124 107 q 176 336 175 207 l 185 764 l 706 764 l 706 0 l 581 0 l 581 650 l 308 650 l 301 331 q 243 69 297 149 q 67 -10 189 -10 l 35 -10 z "},"м":{"ha":833,"x_min":106,"x_max":728,"o":"m 106 0 l 106 764 l 275 764 l 375 471 q 403 383 390 426 q 421 315 415 339 q 438 383 426 339 q 464 472 450 426 l 558 764 l 728 764 l 728 0 l 608 0 l 608 118 q 610 260 608 181 q 615 424 613 340 q 622 583 618 508 q 626 708 625 657 l 482 229 l 356 229 l 210 701 q 214 583 211 654 q 219 431 217 513 q 223 267 221 349 q 225 118 225 186 l 225 0 l 106 0 z "},"н":{"ha":833,"x_min":128,"x_max":706,"o":"m 128 0 l 128 764 l 253 764 l 253 449 l 581 449 l 581 764 l 706 764 l 706 0 l 581 0 l 581 335 l 253 335 l 253 0 l 128 0 z "},"о":{"ha":833,"x_min":118,"x_max":715,"o":"m 417 -11 q 198 67 278 -11 q 118 281 118 146 l 118 483 q 198 697 118 619 q 417 775 278 775 q 635 697 556 775 q 715 485 715 619 l 715 281 q 635 67 715 146 q 417 -11 556 -11 m 417 100 q 544 146 499 100 q 590 281 590 192 l 590 483 q 544 618 590 572 q 417 664 499 664 q 290 618 336 664 q 243 483 243 572 l 243 281 q 290 146 243 192 q 417 100 336 100 z "},"п":{"ha":833,"x_min":128,"x_max":706,"o":"m 128 0 l 128 764 l 706 764 l 706 0 l 581 0 l 581 650 l 253 650 l 253 0 l 128 0 z "},"р":{"ha":833,"x_min":129,"x_max":717,"o":"m 129 -250 l 129 764 l 254 764 l 254 618 l 256 618 q 322 735 265 693 q 464 778 378 778 q 648 702 579 778 q 717 494 717 626 l 717 271 q 648 63 717 139 q 464 -14 579 -14 q 322 29 378 -14 q 256 146 267 72 l 251 146 l 254 -28 l 254 -250 l 129 -250 m 422 94 q 547 142 501 94 q 592 278 592 189 l 592 486 q 547 622 592 575 q 422 669 501 669 q 300 621 346 669 q 254 486 254 572 l 254 278 q 300 143 254 192 q 422 94 346 94 z "}}}
